<mxfile host="Electron" modified="2024-03-04T10:24:07.129Z" agent="Mozilla/5.0 (Macintosh; Intel Mac OS X 10_15_7) AppleWebKit/537.36 (KHTML, like Gecko) draw.io/23.1.5 Chrome/120.0.6099.109 Electron/28.1.0 Safari/537.36" etag="zIEwygeqXTbU18Xqn0V-" version="23.1.5" type="device" pages="15">
  <diagram name="main" id="m0zTKrYATkNEm8Ja8VeW">
    <mxGraphModel dx="1147" dy="1678" grid="1" gridSize="10" guides="1" tooltips="1" connect="1" arrows="1" fold="1" page="1" pageScale="1" pageWidth="850" pageHeight="1100" math="0" shadow="0">
      <root>
        <mxCell id="0" />
        <mxCell id="1" parent="0" />
        <mxCell id="5h2CW9FKoI-fmD1mVUUu-3" value="✗" style="rhombus;whiteSpace=wrap;html=1;rounded=1;fillColor=#0050ef;fontColor=#ffffff;strokeColor=#001DBC;fontStyle=1;glass=0;sketch=0;fontSize=12;points=[[0,0.5,0,0,0],[0.5,0,0,0,0],[0.5,1,0,0,0],[1,0.5,0,0,0]];shadow=1;fontFamily=Helvetica;opacity=30;textOpacity=30;" parent="1" vertex="1">
          <mxGeometry x="1520" y="270" width="40" height="40" as="geometry" />
        </mxCell>
        <mxCell id="5h2CW9FKoI-fmD1mVUUu-11" value="Read Text File" style="rounded=1;whiteSpace=wrap;html=1;sketch=0;container=1;recursiveResize=0;verticalAlign=top;arcSize=6;fontStyle=0;autosize=0;points=[];absoluteArcSize=1;shadow=1;strokeColor=#001DBC;fillColor=#0050ef;fontColor=#ffffff;fontFamily=Helvetica;fontSize=11;" parent="1" vertex="1">
          <mxGeometry x="410" y="80" width="130" height="125" as="geometry">
            <mxRectangle x="-98" y="-1230" width="99" height="26" as="alternateBounds" />
          </mxGeometry>
        </mxCell>
        <mxCell id="5h2CW9FKoI-fmD1mVUUu-12" value="" style="rounded=1;whiteSpace=wrap;html=1;sketch=0;points=[[0,0.5,0,0,0],[1,0.5,0,0,0]];arcSize=50;fontFamily=Helvetica;fontSize=11;fontColor=default;" parent="5h2CW9FKoI-fmD1mVUUu-11" vertex="1">
          <mxGeometry x="-10" y="40" width="37.25" height="25" as="geometry" />
        </mxCell>
        <mxCell id="5h2CW9FKoI-fmD1mVUUu-13" value="" style="rounded=1;whiteSpace=wrap;html=1;sketch=0;points=[[0,0.5,0,0,0],[1,0.5,0,0,0]];fillColor=#1ba1e2;fontColor=#ffffff;strokeColor=#006EAF;arcSize=50;fontFamily=Helvetica;fontSize=11;" parent="5h2CW9FKoI-fmD1mVUUu-11" vertex="1">
          <mxGeometry x="111.5" y="40" width="37.25" height="25" as="geometry" />
        </mxCell>
        <mxCell id="5h2CW9FKoI-fmD1mVUUu-14" value="✗" style="rounded=1;whiteSpace=wrap;sketch=0;points=[[0,0.5,0,0,0],[1,0.5,0,0,0]];fillColor=#1ba1e2;fontColor=#ffffff;strokeColor=#006EAF;arcSize=50;fontFamily=Helvetica;fontSize=11;opacity=30;textOpacity=30;" parent="5h2CW9FKoI-fmD1mVUUu-11" vertex="1">
          <mxGeometry x="111.5" y="82.5" width="37.25" height="25" as="geometry" />
        </mxCell>
        <mxCell id="5h2CW9FKoI-fmD1mVUUu-15" style="edgeStyle=orthogonalEdgeStyle;rounded=1;orthogonalLoop=1;jettySize=auto;html=1;exitX=1;exitY=0.5;exitDx=0;exitDy=0;exitPerimeter=0;entryX=0;entryY=0.5;entryDx=0;entryDy=0;entryPerimeter=0;strokeWidth=2;curved=0;" parent="1" source="Gk7-UacXkPncZtH4Vl_x-1" target="5h2CW9FKoI-fmD1mVUUu-12" edge="1">
          <mxGeometry relative="1" as="geometry" />
        </mxCell>
        <mxCell id="5h2CW9FKoI-fmD1mVUUu-17" style="edgeStyle=orthogonalEdgeStyle;rounded=1;orthogonalLoop=1;jettySize=auto;html=1;exitX=1;exitY=0.5;exitDx=0;exitDy=0;exitPerimeter=0;entryX=0;entryY=0.5;entryDx=0;entryDy=0;entryPerimeter=0;curved=0;opacity=30;" parent="1" source="5h2CW9FKoI-fmD1mVUUu-14" target="5h2CW9FKoI-fmD1mVUUu-3" edge="1">
          <mxGeometry relative="1" as="geometry">
            <Array as="points">
              <mxPoint x="590" y="175" />
              <mxPoint x="590" y="290" />
            </Array>
          </mxGeometry>
        </mxCell>
        <mxCell id="Gk7-UacXkPncZtH4Vl_x-1" value="" style="rhombus;whiteSpace=wrap;html=1;rounded=1;fontStyle=1;glass=0;sketch=0;fontSize=12;points=[[0,0.5,0,0,0],[0.5,0,0,0,0],[0.5,1,0,0,0],[1,0.5,0,0,0]];shadow=1;fontFamily=Helvetica;fontColor=default;" parent="1" vertex="1">
          <mxGeometry x="280" y="112.5" width="40" height="40" as="geometry" />
        </mxCell>
        <mxCell id="Gk7-UacXkPncZtH4Vl_x-2" value="" style="rhombus;whiteSpace=wrap;html=1;rounded=1;fontStyle=1;glass=0;sketch=0;fontSize=12;points=[[0,0.5,0,0,0],[0.5,0,0,0,0],[0.5,1,0,0,0],[1,0.5,0,0,0]];shadow=1;fillColor=#0050ef;fontColor=#ffffff;strokeColor=#001DBC;fontFamily=Helvetica;" parent="1" vertex="1">
          <mxGeometry x="1520" y="112.5" width="40" height="40" as="geometry" />
        </mxCell>
        <mxCell id="DaqUB-cS1HOJgV5fECmG-1" value="Delete Connections Section" style="rounded=1;whiteSpace=wrap;html=1;sketch=0;container=1;recursiveResize=0;verticalAlign=top;arcSize=6;fontStyle=0;autosize=0;points=[];absoluteArcSize=1;shadow=1;strokeColor=#001DBC;fillColor=#0050ef;fontColor=#ffffff;fontFamily=Helvetica;fontSize=11;" parent="1" vertex="1">
          <mxGeometry x="650" y="80" width="130" height="125" as="geometry">
            <mxRectangle x="-98" y="-1230" width="99" height="26" as="alternateBounds" />
          </mxGeometry>
        </mxCell>
        <mxCell id="DaqUB-cS1HOJgV5fECmG-2" value="" style="rounded=1;whiteSpace=wrap;html=1;sketch=0;points=[[0,0.5,0,0,0],[1,0.5,0,0,0]];arcSize=50;fontFamily=Helvetica;fontSize=11;fontColor=default;" parent="DaqUB-cS1HOJgV5fECmG-1" vertex="1">
          <mxGeometry x="-10" y="40" width="37.25" height="25" as="geometry" />
        </mxCell>
        <mxCell id="DaqUB-cS1HOJgV5fECmG-3" value="" style="rounded=1;whiteSpace=wrap;html=1;sketch=0;points=[[0,0.5,0,0,0],[1,0.5,0,0,0]];fillColor=#1ba1e2;fontColor=#ffffff;strokeColor=#006EAF;arcSize=50;fontFamily=Helvetica;fontSize=11;" parent="DaqUB-cS1HOJgV5fECmG-1" vertex="1">
          <mxGeometry x="100" y="40" width="37.25" height="25" as="geometry" />
        </mxCell>
        <mxCell id="DaqUB-cS1HOJgV5fECmG-4" value="✗" style="rounded=1;whiteSpace=wrap;sketch=0;points=[[0,0.5,0,0,0],[1,0.5,0,0,0]];fillColor=#1ba1e2;fontColor=#ffffff;strokeColor=#006EAF;arcSize=50;fontFamily=Helvetica;fontSize=11;opacity=30;textOpacity=30;" parent="DaqUB-cS1HOJgV5fECmG-1" vertex="1">
          <mxGeometry x="100" y="82.5" width="37.25" height="25" as="geometry" />
        </mxCell>
        <mxCell id="DaqUB-cS1HOJgV5fECmG-5" style="edgeStyle=orthogonalEdgeStyle;shape=connector;curved=0;rounded=1;orthogonalLoop=1;jettySize=auto;html=1;exitX=1;exitY=0.5;exitDx=0;exitDy=0;exitPerimeter=0;entryX=0;entryY=0.5;entryDx=0;entryDy=0;entryPerimeter=0;labelBackgroundColor=default;strokeColor=default;align=center;verticalAlign=middle;fontFamily=Helvetica;fontSize=11;fontColor=default;endArrow=classic;strokeWidth=2;" parent="1" source="5h2CW9FKoI-fmD1mVUUu-13" target="DaqUB-cS1HOJgV5fECmG-2" edge="1">
          <mxGeometry relative="1" as="geometry" />
        </mxCell>
        <mxCell id="DaqUB-cS1HOJgV5fECmG-6" style="edgeStyle=orthogonalEdgeStyle;shape=connector;curved=0;rounded=1;orthogonalLoop=1;jettySize=auto;html=1;exitX=1;exitY=0.5;exitDx=0;exitDy=0;exitPerimeter=0;entryX=0;entryY=0.5;entryDx=0;entryDy=0;entryPerimeter=0;labelBackgroundColor=default;strokeColor=default;align=center;verticalAlign=middle;fontFamily=Helvetica;fontSize=11;fontColor=default;endArrow=classic;opacity=30;" parent="1" source="DaqUB-cS1HOJgV5fECmG-4" target="5h2CW9FKoI-fmD1mVUUu-3" edge="1">
          <mxGeometry relative="1" as="geometry">
            <Array as="points">
              <mxPoint x="810" y="175" />
              <mxPoint x="810" y="290" />
            </Array>
          </mxGeometry>
        </mxCell>
        <mxCell id="FDZNbzwpRw9lqJndtv5u-5" style="edgeStyle=orthogonalEdgeStyle;rounded=1;orthogonalLoop=1;jettySize=auto;html=1;exitX=1;exitY=0.5;exitDx=0;exitDy=0;exitPerimeter=0;entryX=0;entryY=0.5;entryDx=0;entryDy=0;entryPerimeter=0;strokeWidth=2;curved=0;" parent="1" source="DaqUB-cS1HOJgV5fECmG-3" target="QdQ9IoSy5bB8EJfXgdD5-2" edge="1">
          <mxGeometry relative="1" as="geometry">
            <Array as="points">
              <mxPoint x="820" y="133" />
            </Array>
          </mxGeometry>
        </mxCell>
        <mxCell id="QdQ9IoSy5bB8EJfXgdD5-1" value="Encode JSON" style="rounded=1;whiteSpace=wrap;html=1;sketch=0;container=1;recursiveResize=0;verticalAlign=top;arcSize=6;fontStyle=0;autosize=0;points=[];absoluteArcSize=1;shadow=1;strokeColor=#001DBC;fillColor=#0050ef;fontColor=#ffffff;fontFamily=Helvetica;fontSize=11;" parent="1" vertex="1">
          <mxGeometry x="860" y="80" width="130" height="125" as="geometry">
            <mxRectangle x="-98" y="-1230" width="99" height="26" as="alternateBounds" />
          </mxGeometry>
        </mxCell>
        <mxCell id="QdQ9IoSy5bB8EJfXgdD5-2" value="" style="rounded=1;whiteSpace=wrap;html=1;sketch=0;points=[[0,0.5,0,0,0],[1,0.5,0,0,0]];arcSize=50;fontFamily=Helvetica;fontSize=11;fontColor=default;" parent="QdQ9IoSy5bB8EJfXgdD5-1" vertex="1">
          <mxGeometry x="-10" y="40" width="37.25" height="25" as="geometry" />
        </mxCell>
        <mxCell id="QdQ9IoSy5bB8EJfXgdD5-3" value="" style="rounded=1;whiteSpace=wrap;html=1;sketch=0;points=[[0,0.5,0,0,0],[1,0.5,0,0,0]];fillColor=#1ba1e2;fontColor=#ffffff;strokeColor=#006EAF;arcSize=50;fontFamily=Helvetica;fontSize=11;" parent="QdQ9IoSy5bB8EJfXgdD5-1" vertex="1">
          <mxGeometry x="100" y="40" width="37.25" height="25" as="geometry" />
        </mxCell>
        <mxCell id="QdQ9IoSy5bB8EJfXgdD5-4" value="✗" style="rounded=1;whiteSpace=wrap;sketch=0;points=[[0,0.5,0,0,0],[1,0.5,0,0,0]];fillColor=#1ba1e2;fontColor=#ffffff;strokeColor=#006EAF;arcSize=50;fontFamily=Helvetica;fontSize=11;opacity=30;textOpacity=30;" parent="QdQ9IoSy5bB8EJfXgdD5-1" vertex="1">
          <mxGeometry x="100" y="82.5" width="37.25" height="25" as="geometry" />
        </mxCell>
        <mxCell id="QdQ9IoSy5bB8EJfXgdD5-6" style="edgeStyle=orthogonalEdgeStyle;shape=connector;curved=0;rounded=1;orthogonalLoop=1;jettySize=auto;html=1;exitX=1;exitY=0.5;exitDx=0;exitDy=0;exitPerimeter=0;entryX=0;entryY=0.5;entryDx=0;entryDy=0;entryPerimeter=0;labelBackgroundColor=default;strokeColor=default;strokeWidth=1;align=center;verticalAlign=middle;fontFamily=Helvetica;fontSize=11;fontColor=default;endArrow=classic;opacity=30;" parent="1" source="QdQ9IoSy5bB8EJfXgdD5-4" target="5h2CW9FKoI-fmD1mVUUu-3" edge="1">
          <mxGeometry relative="1" as="geometry">
            <Array as="points">
              <mxPoint x="1020" y="175" />
              <mxPoint x="1020" y="290" />
            </Array>
          </mxGeometry>
        </mxCell>
        <mxCell id="nSmw6h7VeHDicx8E_0bV-1" value="Extract Name Strings" style="rounded=1;whiteSpace=wrap;html=1;sketch=0;container=1;recursiveResize=0;verticalAlign=top;arcSize=6;fontStyle=0;autosize=0;points=[];absoluteArcSize=1;shadow=1;strokeColor=#001DBC;fillColor=#0050ef;fontColor=#ffffff;fontFamily=Helvetica;fontSize=11;" parent="1" vertex="1">
          <mxGeometry x="1090" y="80" width="130" height="125" as="geometry">
            <mxRectangle x="-98" y="-1230" width="99" height="26" as="alternateBounds" />
          </mxGeometry>
        </mxCell>
        <mxCell id="nSmw6h7VeHDicx8E_0bV-2" value="" style="rounded=1;whiteSpace=wrap;html=1;sketch=0;points=[[0,0.5,0,0,0],[1,0.5,0,0,0]];arcSize=50;fontFamily=Helvetica;fontSize=11;fontColor=default;" parent="nSmw6h7VeHDicx8E_0bV-1" vertex="1">
          <mxGeometry x="-10" y="40" width="37.25" height="25" as="geometry" />
        </mxCell>
        <mxCell id="nSmw6h7VeHDicx8E_0bV-3" value="" style="rounded=1;whiteSpace=wrap;html=1;sketch=0;points=[[0,0.5,0,0,0],[1,0.5,0,0,0]];fillColor=#1ba1e2;fontColor=#ffffff;strokeColor=#006EAF;arcSize=50;fontFamily=Helvetica;fontSize=11;" parent="nSmw6h7VeHDicx8E_0bV-1" vertex="1">
          <mxGeometry x="100" y="40" width="37.25" height="25" as="geometry" />
        </mxCell>
        <mxCell id="nSmw6h7VeHDicx8E_0bV-4" value="✗" style="rounded=1;whiteSpace=wrap;sketch=0;points=[[0,0.5,0,0,0],[1,0.5,0,0,0]];fillColor=#1ba1e2;fontColor=#ffffff;strokeColor=#006EAF;arcSize=50;fontFamily=Helvetica;fontSize=11;opacity=30;textOpacity=30;" parent="nSmw6h7VeHDicx8E_0bV-1" vertex="1">
          <mxGeometry x="100" y="82.5" width="37.25" height="25" as="geometry" />
        </mxCell>
        <mxCell id="nSmw6h7VeHDicx8E_0bV-7" style="edgeStyle=orthogonalEdgeStyle;shape=connector;curved=0;rounded=1;orthogonalLoop=1;jettySize=auto;html=1;exitX=1;exitY=0.5;exitDx=0;exitDy=0;exitPerimeter=0;entryX=0;entryY=0.5;entryDx=0;entryDy=0;entryPerimeter=0;labelBackgroundColor=default;strokeColor=default;strokeWidth=1;align=center;verticalAlign=middle;fontFamily=Helvetica;fontSize=11;fontColor=default;endArrow=classic;opacity=30;" parent="1" source="nSmw6h7VeHDicx8E_0bV-4" target="5h2CW9FKoI-fmD1mVUUu-3" edge="1">
          <mxGeometry relative="1" as="geometry">
            <Array as="points">
              <mxPoint x="1260" y="175" />
              <mxPoint x="1260" y="290" />
            </Array>
          </mxGeometry>
        </mxCell>
        <mxCell id="oi65mrcfNY2p0OcdCMCG-1" value="Generate Code" style="rounded=1;whiteSpace=wrap;html=1;sketch=0;container=1;recursiveResize=0;verticalAlign=top;arcSize=6;fontStyle=0;autosize=0;points=[];absoluteArcSize=1;shadow=1;strokeColor=#001DBC;fillColor=#0050ef;fontColor=#ffffff;fontFamily=Helvetica;fontSize=11;" parent="1" vertex="1">
          <mxGeometry x="1310" y="80" width="130" height="125" as="geometry">
            <mxRectangle x="-98" y="-1230" width="99" height="26" as="alternateBounds" />
          </mxGeometry>
        </mxCell>
        <mxCell id="oi65mrcfNY2p0OcdCMCG-2" value="" style="rounded=1;whiteSpace=wrap;html=1;sketch=0;points=[[0,0.5,0,0,0],[1,0.5,0,0,0]];arcSize=50;fontFamily=Helvetica;fontSize=11;fontColor=default;" parent="oi65mrcfNY2p0OcdCMCG-1" vertex="1">
          <mxGeometry x="-10" y="40" width="37.25" height="25" as="geometry" />
        </mxCell>
        <mxCell id="oi65mrcfNY2p0OcdCMCG-3" value="" style="rounded=1;whiteSpace=wrap;html=1;sketch=0;points=[[0,0.5,0,0,0],[1,0.5,0,0,0]];fillColor=#1ba1e2;fontColor=#ffffff;strokeColor=#006EAF;arcSize=50;fontFamily=Helvetica;fontSize=11;" parent="oi65mrcfNY2p0OcdCMCG-1" vertex="1">
          <mxGeometry x="100" y="40" width="37.25" height="25" as="geometry" />
        </mxCell>
        <mxCell id="oi65mrcfNY2p0OcdCMCG-4" value="✗" style="rounded=1;whiteSpace=wrap;sketch=0;points=[[0,0.5,0,0,0],[1,0.5,0,0,0]];fillColor=#1ba1e2;fontColor=#ffffff;strokeColor=#006EAF;arcSize=50;fontFamily=Helvetica;fontSize=11;opacity=30;textOpacity=30;" parent="oi65mrcfNY2p0OcdCMCG-1" vertex="1">
          <mxGeometry x="100" y="82.5" width="37.25" height="25" as="geometry" />
        </mxCell>
        <mxCell id="oi65mrcfNY2p0OcdCMCG-5" style="edgeStyle=orthogonalEdgeStyle;shape=connector;curved=0;rounded=1;orthogonalLoop=1;jettySize=auto;html=1;exitX=1;exitY=0.5;exitDx=0;exitDy=0;exitPerimeter=0;entryX=0;entryY=0.5;entryDx=0;entryDy=0;entryPerimeter=0;labelBackgroundColor=default;strokeColor=default;strokeWidth=1;align=center;verticalAlign=middle;fontFamily=Helvetica;fontSize=11;fontColor=default;endArrow=classic;opacity=30;" parent="1" source="oi65mrcfNY2p0OcdCMCG-4" target="5h2CW9FKoI-fmD1mVUUu-3" edge="1">
          <mxGeometry relative="1" as="geometry">
            <Array as="points">
              <mxPoint x="1480" y="175" />
              <mxPoint x="1480" y="290" />
            </Array>
          </mxGeometry>
        </mxCell>
        <mxCell id="EawUHG758-FikfK3aMip-1" value="change whitespace to &quot;∘&quot; so that subsequent passes can use Ohm syntactic rules" style="shape=note;whiteSpace=wrap;html=1;backgroundOutline=1;fontColor=#000000;darkOpacity=0.05;fillColor=#FFF9B2;strokeColor=none;fillStyle=solid;direction=west;gradientDirection=north;gradientColor=none;shadow=1;size=20;pointerEvents=1;fontFamily=Helvetica;fontSize=11;labelBackgroundColor=none;" parent="1" vertex="1">
          <mxGeometry x="850" y="-60" width="140" height="120" as="geometry" />
        </mxCell>
        <mxCell id="EawUHG758-FikfK3aMip-3" value="convert &quot;name&quot; : &quot;...&quot; to &quot;...&quot;&lt;br&gt;discard everything else" style="shape=note;whiteSpace=wrap;html=1;backgroundOutline=1;fontColor=#000000;darkOpacity=0.05;fillColor=#FFF9B2;strokeColor=none;fillStyle=solid;direction=west;gradientDirection=north;gradientColor=none;shadow=1;size=20;pointerEvents=1;fontFamily=Helvetica;fontSize=11;labelBackgroundColor=none;" parent="1" vertex="1">
          <mxGeometry x="1080" y="-30" width="140" height="85" as="geometry" />
        </mxCell>
        <mxCell id="jaG_TJkaT6T19FuyvBMu-1" value="trim off the &quot;connections&quot; section, since that won&#39;t be used in downstream passes" style="shape=note;whiteSpace=wrap;html=1;backgroundOutline=1;fontColor=#000000;darkOpacity=0.05;fillColor=#FFF9B2;strokeColor=none;fillStyle=solid;direction=west;gradientDirection=north;gradientColor=none;shadow=1;size=20;pointerEvents=1;fontFamily=Helvetica;fontSize=11;labelBackgroundColor=none;" parent="1" vertex="1">
          <mxGeometry x="640" y="-60" width="140" height="110" as="geometry" />
        </mxCell>
        <mxCell id="jaG_TJkaT6T19FuyvBMu-2" value="generate code in a target language for each &quot;ė...&quot; and &quot;λ...&quot;, ignore other strings" style="shape=note;whiteSpace=wrap;html=1;backgroundOutline=1;fontColor=#000000;darkOpacity=0.05;fillColor=#FFF9B2;strokeColor=none;fillStyle=solid;direction=west;gradientDirection=north;gradientColor=none;shadow=1;size=20;pointerEvents=1;fontFamily=Helvetica;fontSize=11;labelBackgroundColor=none;" parent="1" vertex="1">
          <mxGeometry x="1300" y="-10" width="140" height="65" as="geometry" />
        </mxCell>
        <mxCell id="OF_G3X9hJYv8Q_f0EcJL-13" value="ensure Word Wrap and Formatting options are disabled for this set of diagrams" style="shape=note;whiteSpace=wrap;html=1;backgroundOutline=1;darkOpacity=0.05;fillColor=#f8cecc;strokeColor=#b85450;fillStyle=solid;direction=west;gradientDirection=north;shadow=1;size=20;pointerEvents=1;fontFamily=Helvetica;fontSize=11;labelBackgroundColor=none;" parent="1" vertex="1">
          <mxGeometry x="320" y="-30" width="140" height="100" as="geometry" />
        </mxCell>
        <mxCell id="UtHZUoaURTtUcfY8_t8P-10" style="edgeStyle=orthogonalEdgeStyle;rounded=0;orthogonalLoop=1;jettySize=auto;html=1;exitX=1;exitY=0.5;exitDx=0;exitDy=0;exitPerimeter=0;entryX=0;entryY=0.5;entryDx=0;entryDy=0;entryPerimeter=0;strokeWidth=2;" parent="1" source="QdQ9IoSy5bB8EJfXgdD5-3" target="nSmw6h7VeHDicx8E_0bV-2" edge="1">
          <mxGeometry relative="1" as="geometry" />
        </mxCell>
        <mxCell id="VXwKpyfx5A-wcNDfMUWe-1" style="edgeStyle=orthogonalEdgeStyle;rounded=0;orthogonalLoop=1;jettySize=auto;html=1;exitX=1;exitY=0.5;exitDx=0;exitDy=0;exitPerimeter=0;entryX=0;entryY=0.5;entryDx=0;entryDy=0;entryPerimeter=0;strokeWidth=2;" parent="1" source="nSmw6h7VeHDicx8E_0bV-3" target="oi65mrcfNY2p0OcdCMCG-2" edge="1">
          <mxGeometry relative="1" as="geometry" />
        </mxCell>
        <mxCell id="40vqIPohWvOfHKZCilAJ-1" style="edgeStyle=orthogonalEdgeStyle;rounded=0;orthogonalLoop=1;jettySize=auto;html=1;exitX=1;exitY=0.5;exitDx=0;exitDy=0;exitPerimeter=0;strokeWidth=2;" edge="1" parent="1" source="oi65mrcfNY2p0OcdCMCG-3" target="Gk7-UacXkPncZtH4Vl_x-2">
          <mxGeometry relative="1" as="geometry" />
        </mxCell>
      </root>
    </mxGraphModel>
  </diagram>
  <diagram id="xc-7a-P2q4sFTYbv2FOA" name="Encode JSON">
    <mxGraphModel dx="1147" dy="578" grid="1" gridSize="10" guides="1" tooltips="1" connect="1" arrows="1" fold="1" page="1" pageScale="1" pageWidth="850" pageHeight="1100" math="0" shadow="0">
      <root>
        <mxCell id="0" />
        <mxCell id="1" parent="0" />
        <mxCell id="FnwvUbNEf2cEv55kdrIi-1" style="edgeStyle=orthogonalEdgeStyle;rounded=1;orthogonalLoop=1;jettySize=auto;html=1;exitX=1;exitY=0.5;exitDx=0;exitDy=0;exitPerimeter=0;strokeWidth=2;curved=0;" parent="1" source="FnwvUbNEf2cEv55kdrIi-2" target="FnwvUbNEf2cEv55kdrIi-8" edge="1">
          <mxGeometry relative="1" as="geometry" />
        </mxCell>
        <mxCell id="FnwvUbNEf2cEv55kdrIi-2" value="" style="rhombus;whiteSpace=wrap;html=1;rounded=1;fontStyle=1;glass=0;sketch=0;fontSize=12;points=[[0,0.5,0,0,0],[0.5,0,0,0,0],[0.5,1,0,0,0],[1,0.5,0,0,0]];shadow=1;fontFamily=Helvetica;fontColor=default;" parent="1" vertex="1">
          <mxGeometry x="40" y="200" width="40" height="40" as="geometry" />
        </mxCell>
        <mxCell id="FnwvUbNEf2cEv55kdrIi-3" value="Transpile" style="rounded=1;whiteSpace=wrap;html=1;sketch=0;container=1;recursiveResize=0;verticalAlign=top;arcSize=6;fontStyle=1;autosize=0;points=[];absoluteArcSize=1;shadow=1;strokeColor=#001DBC;fillColor=#0050ef;fontColor=#ffffff;fontFamily=Helvetica;fontSize=11;" parent="1" vertex="1">
          <mxGeometry x="420" y="40" width="130" height="210" as="geometry">
            <mxRectangle x="-98" y="-1230" width="99" height="26" as="alternateBounds" />
          </mxGeometry>
        </mxCell>
        <mxCell id="FnwvUbNEf2cEv55kdrIi-4" value="ohmfn" style="rounded=1;whiteSpace=wrap;html=1;sketch=0;points=[[0,0.5,0,0,0],[1,0.5,0,0,0]];arcSize=50;fontFamily=Helvetica;fontSize=11;fontColor=default;fontStyle=0" parent="FnwvUbNEf2cEv55kdrIi-3" vertex="1">
          <mxGeometry x="-17" y="57.5" width="66" height="25" as="geometry" />
        </mxCell>
        <mxCell id="FnwvUbNEf2cEv55kdrIi-5" value="" style="rounded=1;whiteSpace=wrap;html=1;sketch=0;points=[[0,0.5,0,0,0],[1,0.5,0,0,0]];fillColor=#1ba1e2;fontColor=#ffffff;strokeColor=#006EAF;arcSize=50;fontFamily=Helvetica;fontSize=11;" parent="FnwvUbNEf2cEv55kdrIi-3" vertex="1">
          <mxGeometry x="110" y="27.5" width="35.25" height="25" as="geometry" />
        </mxCell>
        <mxCell id="FnwvUbNEf2cEv55kdrIi-6" value="✗" style="rounded=1;whiteSpace=wrap;html=1;sketch=0;points=[[0,0.5,0,0,0],[1,0.5,0,0,0]];fillColor=#1ba1e2;fontColor=#ffffff;strokeColor=#006EAF;arcSize=50;fontFamily=Helvetica;fontSize=11;" parent="FnwvUbNEf2cEv55kdrIi-3" vertex="1">
          <mxGeometry x="110" y="70" width="35.25" height="25" as="geometry" />
        </mxCell>
        <mxCell id="FnwvUbNEf2cEv55kdrIi-7" value="rwrfn" style="rounded=1;whiteSpace=wrap;html=1;sketch=0;points=[[0,0.5,0,0,0],[1,0.5,0,0,0]];arcSize=50;fontFamily=Helvetica;fontSize=11;fontColor=default;" parent="FnwvUbNEf2cEv55kdrIi-3" vertex="1">
          <mxGeometry x="-17" y="90" width="66" height="25" as="geometry" />
        </mxCell>
        <mxCell id="FnwvUbNEf2cEv55kdrIi-8" value="input" style="rounded=1;whiteSpace=wrap;html=1;sketch=0;points=[[0,0.5,0,0,0],[1,0.5,0,0,0]];arcSize=50;fontFamily=Helvetica;fontSize=11;fontColor=default;" parent="FnwvUbNEf2cEv55kdrIi-3" vertex="1">
          <mxGeometry x="-17" y="165" width="66" height="25" as="geometry" />
        </mxCell>
        <mxCell id="FnwvUbNEf2cEv55kdrIi-9" value="grammar name" style="rounded=1;whiteSpace=wrap;html=1;sketch=0;points=[[0,0.5,0,0,0],[1,0.5,0,0,0]];arcSize=50;fontFamily=Helvetica;fontSize=11;fontColor=default;" parent="FnwvUbNEf2cEv55kdrIi-3" vertex="1">
          <mxGeometry x="-16" y="27.5" width="66" height="25" as="geometry" />
        </mxCell>
        <mxCell id="FnwvUbNEf2cEv55kdrIi-10" value="rwrsupportfn" style="rounded=1;whiteSpace=wrap;html=1;sketch=0;points=[[0,0.5,0,0,0],[1,0.5,0,0,0]];arcSize=50;fontFamily=Helvetica;fontSize=11;fontColor=default;" parent="FnwvUbNEf2cEv55kdrIi-3" vertex="1">
          <mxGeometry x="-17" y="120" width="66" height="25" as="geometry" />
        </mxCell>
        <mxCell id="FnwvUbNEf2cEv55kdrIi-11" value="✗" style="rhombus;whiteSpace=wrap;html=1;rounded=1;fillColor=#0050ef;fontColor=#ffffff;strokeColor=#001DBC;fontStyle=1;glass=0;sketch=0;fontSize=12;points=[[0,0.5,0,0,0],[0.5,0,0,0,0],[0.5,1,0,0,0],[1,0.5,0,0,0]];shadow=1;fontFamily=Helvetica;" parent="1" vertex="1">
          <mxGeometry x="620" y="160" width="40" height="40" as="geometry" />
        </mxCell>
        <mxCell id="FnwvUbNEf2cEv55kdrIi-12" value="&#39;encodesupport.js&#39;" style="rounded=1;sketch=0;container=1;recursiveResize=0;verticalAlign=middle;arcSize=6;fontStyle=1;autosize=0;points=[];absoluteArcSize=1;shadow=0;strokeColor=#6c8ebf;fillColor=#dae8fc;fontFamily=Helvetica;fontSize=11;gradientColor=#E6E6E6;fontColor=default;" parent="1" vertex="1">
          <mxGeometry x="180" y="160" width="110" height="20" as="geometry">
            <mxRectangle x="-98" y="-1230" width="99" height="26" as="alternateBounds" />
          </mxGeometry>
        </mxCell>
        <mxCell id="FnwvUbNEf2cEv55kdrIi-13" value="⍺" style="rounded=1;whiteSpace=wrap;html=1;sketch=0;points=[[0,0.5,0,0,0],[1,0.5,0,0,0]];arcSize=50;fontFamily=Helvetica;fontSize=11;fontColor=default;" parent="FnwvUbNEf2cEv55kdrIi-12" vertex="1">
          <mxGeometry x="100" y="3.75" width="20" height="12.5" as="geometry" />
        </mxCell>
        <mxCell id="FnwvUbNEf2cEv55kdrIi-14" value="⍺" style="rounded=1;whiteSpace=wrap;html=1;sketch=0;points=[[0,0.5,0,0,0],[1,0.5,0,0,0]];arcSize=50;fontFamily=Helvetica;fontSize=11;fontColor=default;" parent="FnwvUbNEf2cEv55kdrIi-12" vertex="1">
          <mxGeometry x="-10" y="3.75" width="20" height="12.5" as="geometry" />
        </mxCell>
        <mxCell id="FnwvUbNEf2cEv55kdrIi-15" value="&#39;encodejson.rwr&#39;" style="rounded=1;whiteSpace=wrap;html=1;sketch=0;container=1;recursiveResize=0;verticalAlign=middle;arcSize=6;fontStyle=0;autosize=0;points=[];absoluteArcSize=1;shadow=0;strokeColor=#6c8ebf;fillColor=#dae8fc;fontFamily=Helvetica;fontSize=11;gradientColor=#E6E6E6;fontColor=default;" parent="1" vertex="1">
          <mxGeometry x="165" y="120" width="155" height="20" as="geometry">
            <mxRectangle x="-98" y="-1230" width="99" height="26" as="alternateBounds" />
          </mxGeometry>
        </mxCell>
        <mxCell id="FnwvUbNEf2cEv55kdrIi-16" value="⍺" style="rounded=1;whiteSpace=wrap;html=1;sketch=0;points=[[0,0.5,0,0,0],[1,0.5,0,0,0]];arcSize=50;fontFamily=Helvetica;fontSize=11;fontColor=default;" parent="FnwvUbNEf2cEv55kdrIi-15" vertex="1">
          <mxGeometry x="145" y="3.75" width="20" height="12.5" as="geometry" />
        </mxCell>
        <mxCell id="FnwvUbNEf2cEv55kdrIi-17" value="⍺" style="rounded=1;whiteSpace=wrap;html=1;sketch=0;points=[[0,0.5,0,0,0],[1,0.5,0,0,0]];arcSize=50;fontFamily=Helvetica;fontSize=11;fontColor=default;" parent="FnwvUbNEf2cEv55kdrIi-15" vertex="1">
          <mxGeometry x="-10" y="3.75" width="20" height="12.5" as="geometry" />
        </mxCell>
        <mxCell id="FnwvUbNEf2cEv55kdrIi-18" value="&#39;encodejson.ohm&#39;" style="rounded=1;whiteSpace=wrap;html=1;sketch=0;container=1;recursiveResize=0;verticalAlign=middle;arcSize=6;fontStyle=0;autosize=0;points=[];absoluteArcSize=1;shadow=0;strokeColor=#6c8ebf;fillColor=#dae8fc;fontFamily=Helvetica;fontSize=11;gradientColor=#E6E6E6;fontColor=default;" parent="1" vertex="1">
          <mxGeometry x="165" y="80" width="155" height="20" as="geometry">
            <mxRectangle x="-98" y="-1230" width="99" height="26" as="alternateBounds" />
          </mxGeometry>
        </mxCell>
        <mxCell id="FnwvUbNEf2cEv55kdrIi-19" value="⍺" style="rounded=1;whiteSpace=wrap;html=1;sketch=0;points=[[0,0.5,0,0,0],[1,0.5,0,0,0]];arcSize=50;fontFamily=Helvetica;fontSize=11;fontColor=default;" parent="FnwvUbNEf2cEv55kdrIi-18" vertex="1">
          <mxGeometry x="145" y="3.75" width="20" height="12.5" as="geometry" />
        </mxCell>
        <mxCell id="FnwvUbNEf2cEv55kdrIi-20" value="⍺" style="rounded=1;whiteSpace=wrap;html=1;sketch=0;points=[[0,0.5,0,0,0],[1,0.5,0,0,0]];arcSize=50;fontFamily=Helvetica;fontSize=11;fontColor=default;" parent="FnwvUbNEf2cEv55kdrIi-18" vertex="1">
          <mxGeometry x="-10" y="3.75" width="20" height="12.5" as="geometry" />
        </mxCell>
        <mxCell id="FnwvUbNEf2cEv55kdrIi-21" value="&#39;encodejson&#39;" style="rounded=1;whiteSpace=wrap;html=1;sketch=0;container=1;recursiveResize=0;verticalAlign=middle;arcSize=6;fontStyle=0;autosize=0;points=[];absoluteArcSize=1;shadow=0;strokeColor=#6c8ebf;fillColor=#dae8fc;fontFamily=Helvetica;fontSize=11;gradientColor=#E6E6E6;fontColor=default;" parent="1" vertex="1">
          <mxGeometry x="165" y="40" width="155" height="20" as="geometry">
            <mxRectangle x="-98" y="-1230" width="99" height="26" as="alternateBounds" />
          </mxGeometry>
        </mxCell>
        <mxCell id="FnwvUbNEf2cEv55kdrIi-22" value="⍺" style="rounded=1;whiteSpace=wrap;html=1;sketch=0;points=[[0,0.5,0,0,0],[1,0.5,0,0,0]];arcSize=50;fontFamily=Helvetica;fontSize=11;fontColor=default;" parent="FnwvUbNEf2cEv55kdrIi-21" vertex="1">
          <mxGeometry x="145" y="3.75" width="20" height="12.5" as="geometry" />
        </mxCell>
        <mxCell id="FnwvUbNEf2cEv55kdrIi-23" value="⍺" style="rounded=1;whiteSpace=wrap;html=1;sketch=0;points=[[0,0.5,0,0,0],[1,0.5,0,0,0]];arcSize=50;fontFamily=Helvetica;fontSize=11;fontColor=default;" parent="FnwvUbNEf2cEv55kdrIi-21" vertex="1">
          <mxGeometry x="-10" y="3.75" width="20" height="12.5" as="geometry" />
        </mxCell>
        <mxCell id="FnwvUbNEf2cEv55kdrIi-24" style="edgeStyle=orthogonalEdgeStyle;rounded=1;orthogonalLoop=1;jettySize=auto;html=1;exitX=1;exitY=0.5;exitDx=0;exitDy=0;exitPerimeter=0;entryX=0;entryY=0.5;entryDx=0;entryDy=0;entryPerimeter=0;strokeWidth=2;curved=0;" parent="1" source="FnwvUbNEf2cEv55kdrIi-13" target="FnwvUbNEf2cEv55kdrIi-10" edge="1">
          <mxGeometry relative="1" as="geometry" />
        </mxCell>
        <mxCell id="FnwvUbNEf2cEv55kdrIi-25" style="edgeStyle=orthogonalEdgeStyle;rounded=1;orthogonalLoop=1;jettySize=auto;html=1;exitX=1;exitY=0.5;exitDx=0;exitDy=0;exitPerimeter=0;entryX=0;entryY=0.5;entryDx=0;entryDy=0;entryPerimeter=0;strokeWidth=2;curved=0;" parent="1" source="FnwvUbNEf2cEv55kdrIi-16" target="FnwvUbNEf2cEv55kdrIi-7" edge="1">
          <mxGeometry relative="1" as="geometry" />
        </mxCell>
        <mxCell id="FnwvUbNEf2cEv55kdrIi-26" style="edgeStyle=orthogonalEdgeStyle;rounded=1;orthogonalLoop=1;jettySize=auto;html=1;exitX=1;exitY=0.5;exitDx=0;exitDy=0;exitPerimeter=0;entryX=0;entryY=0.5;entryDx=0;entryDy=0;entryPerimeter=0;strokeWidth=2;curved=0;" parent="1" source="FnwvUbNEf2cEv55kdrIi-19" target="FnwvUbNEf2cEv55kdrIi-4" edge="1">
          <mxGeometry relative="1" as="geometry" />
        </mxCell>
        <mxCell id="FnwvUbNEf2cEv55kdrIi-27" style="edgeStyle=orthogonalEdgeStyle;rounded=1;orthogonalLoop=1;jettySize=auto;html=1;exitX=1;exitY=0.5;exitDx=0;exitDy=0;exitPerimeter=0;entryX=0;entryY=0.5;entryDx=0;entryDy=0;entryPerimeter=0;strokeWidth=2;curved=0;" parent="1" source="FnwvUbNEf2cEv55kdrIi-22" target="FnwvUbNEf2cEv55kdrIi-9" edge="1">
          <mxGeometry relative="1" as="geometry" />
        </mxCell>
        <mxCell id="FnwvUbNEf2cEv55kdrIi-28" style="edgeStyle=orthogonalEdgeStyle;rounded=1;orthogonalLoop=1;jettySize=auto;html=1;exitX=1;exitY=0.5;exitDx=0;exitDy=0;exitPerimeter=0;entryX=0;entryY=0.5;entryDx=0;entryDy=0;entryPerimeter=0;curved=0;opacity=30;" parent="1" source="FnwvUbNEf2cEv55kdrIi-2" target="FnwvUbNEf2cEv55kdrIi-14" edge="1">
          <mxGeometry relative="1" as="geometry">
            <Array as="points">
              <mxPoint x="130" y="220" />
              <mxPoint x="130" y="170" />
            </Array>
          </mxGeometry>
        </mxCell>
        <mxCell id="FnwvUbNEf2cEv55kdrIi-29" style="edgeStyle=orthogonalEdgeStyle;rounded=1;orthogonalLoop=1;jettySize=auto;html=1;entryX=0;entryY=0.5;entryDx=0;entryDy=0;entryPerimeter=0;curved=0;opacity=30;" parent="1" source="FnwvUbNEf2cEv55kdrIi-2" target="FnwvUbNEf2cEv55kdrIi-17" edge="1">
          <mxGeometry relative="1" as="geometry">
            <Array as="points">
              <mxPoint x="130" y="220" />
              <mxPoint x="130" y="130" />
            </Array>
          </mxGeometry>
        </mxCell>
        <mxCell id="FnwvUbNEf2cEv55kdrIi-30" style="edgeStyle=orthogonalEdgeStyle;rounded=1;orthogonalLoop=1;jettySize=auto;html=1;exitX=1;exitY=0.5;exitDx=0;exitDy=0;exitPerimeter=0;entryX=0;entryY=0.5;entryDx=0;entryDy=0;entryPerimeter=0;curved=0;opacity=30;" parent="1" source="FnwvUbNEf2cEv55kdrIi-2" target="FnwvUbNEf2cEv55kdrIi-20" edge="1">
          <mxGeometry relative="1" as="geometry" />
        </mxCell>
        <mxCell id="FnwvUbNEf2cEv55kdrIi-31" style="edgeStyle=orthogonalEdgeStyle;rounded=1;orthogonalLoop=1;jettySize=auto;html=1;entryX=0;entryY=0.5;entryDx=0;entryDy=0;entryPerimeter=0;curved=0;opacity=30;" parent="1" source="FnwvUbNEf2cEv55kdrIi-2" target="FnwvUbNEf2cEv55kdrIi-23" edge="1">
          <mxGeometry relative="1" as="geometry" />
        </mxCell>
        <mxCell id="FnwvUbNEf2cEv55kdrIi-32" style="edgeStyle=orthogonalEdgeStyle;rounded=1;orthogonalLoop=1;jettySize=auto;html=1;entryX=0;entryY=0.5;entryDx=0;entryDy=0;entryPerimeter=0;strokeWidth=2;curved=0;" parent="1" source="FnwvUbNEf2cEv55kdrIi-5" target="FnwvUbNEf2cEv55kdrIi-33" edge="1">
          <mxGeometry relative="1" as="geometry">
            <mxPoint x="633.25" y="2.5" as="targetPoint" />
          </mxGeometry>
        </mxCell>
        <mxCell id="FnwvUbNEf2cEv55kdrIi-33" value="" style="rhombus;whiteSpace=wrap;html=1;rounded=1;fontStyle=1;glass=0;sketch=0;fontSize=12;points=[[0,0.5,0,0,0],[0.5,0,0,0,0],[0.5,1,0,0,0],[1,0.5,0,0,0]];shadow=1;fillColor=#0050ef;fontColor=#ffffff;strokeColor=#001DBC;fontFamily=Helvetica;" parent="1" vertex="1">
          <mxGeometry x="620" y="60" width="40" height="40" as="geometry" />
        </mxCell>
        <mxCell id="FnwvUbNEf2cEv55kdrIi-34" style="edgeStyle=orthogonalEdgeStyle;shape=connector;curved=0;rounded=1;orthogonalLoop=1;jettySize=auto;html=1;exitX=1;exitY=0.5;exitDx=0;exitDy=0;exitPerimeter=0;entryX=0;entryY=0.5;entryDx=0;entryDy=0;entryPerimeter=0;labelBackgroundColor=default;strokeColor=default;align=center;verticalAlign=middle;fontFamily=Helvetica;fontSize=11;fontColor=default;endArrow=classic;" parent="1" source="FnwvUbNEf2cEv55kdrIi-6" target="FnwvUbNEf2cEv55kdrIi-11" edge="1">
          <mxGeometry relative="1" as="geometry" />
        </mxCell>
      </root>
    </mxGraphModel>
  </diagram>
  <diagram name="Delete Connections Section" id="Qbw6DCc-uML8NpiIjb-J">
    <mxGraphModel dx="1147" dy="578" grid="1" gridSize="10" guides="1" tooltips="1" connect="1" arrows="1" fold="1" page="1" pageScale="1" pageWidth="850" pageHeight="1100" math="0" shadow="0">
      <root>
        <mxCell id="1buoqAQooCMRWTLwz8os-0" />
        <mxCell id="1buoqAQooCMRWTLwz8os-1" parent="1buoqAQooCMRWTLwz8os-0" />
        <mxCell id="1buoqAQooCMRWTLwz8os-2" style="edgeStyle=orthogonalEdgeStyle;rounded=1;orthogonalLoop=1;jettySize=auto;html=1;exitX=1;exitY=0.5;exitDx=0;exitDy=0;exitPerimeter=0;strokeWidth=2;curved=0;" parent="1buoqAQooCMRWTLwz8os-1" source="1buoqAQooCMRWTLwz8os-3" target="1buoqAQooCMRWTLwz8os-9" edge="1">
          <mxGeometry relative="1" as="geometry" />
        </mxCell>
        <mxCell id="1buoqAQooCMRWTLwz8os-3" value="" style="rhombus;whiteSpace=wrap;html=1;rounded=1;fontStyle=1;glass=0;sketch=0;fontSize=12;points=[[0,0.5,0,0,0],[0.5,0,0,0,0],[0.5,1,0,0,0],[1,0.5,0,0,0]];shadow=1;fontFamily=Helvetica;fontColor=default;" parent="1buoqAQooCMRWTLwz8os-1" vertex="1">
          <mxGeometry x="40" y="200" width="40" height="40" as="geometry" />
        </mxCell>
        <mxCell id="1buoqAQooCMRWTLwz8os-4" value="Transpile" style="rounded=1;whiteSpace=wrap;html=1;sketch=0;container=1;recursiveResize=0;verticalAlign=top;arcSize=6;fontStyle=1;autosize=0;points=[];absoluteArcSize=1;shadow=1;strokeColor=#001DBC;fillColor=#0050ef;fontColor=#ffffff;fontFamily=Helvetica;fontSize=11;" parent="1buoqAQooCMRWTLwz8os-1" vertex="1">
          <mxGeometry x="420" y="40" width="130" height="210" as="geometry">
            <mxRectangle x="-98" y="-1230" width="99" height="26" as="alternateBounds" />
          </mxGeometry>
        </mxCell>
        <mxCell id="1buoqAQooCMRWTLwz8os-5" value="ohmfn" style="rounded=1;whiteSpace=wrap;html=1;sketch=0;points=[[0,0.5,0,0,0],[1,0.5,0,0,0]];arcSize=50;fontFamily=Helvetica;fontSize=11;fontColor=default;fontStyle=0" parent="1buoqAQooCMRWTLwz8os-4" vertex="1">
          <mxGeometry x="-17" y="57.5" width="66" height="25" as="geometry" />
        </mxCell>
        <mxCell id="1buoqAQooCMRWTLwz8os-6" value="" style="rounded=1;whiteSpace=wrap;html=1;sketch=0;points=[[0,0.5,0,0,0],[1,0.5,0,0,0]];fillColor=#1ba1e2;fontColor=#ffffff;strokeColor=#006EAF;arcSize=50;fontFamily=Helvetica;fontSize=11;" parent="1buoqAQooCMRWTLwz8os-4" vertex="1">
          <mxGeometry x="110" y="27.5" width="35.25" height="25" as="geometry" />
        </mxCell>
        <mxCell id="1buoqAQooCMRWTLwz8os-7" value="✗" style="rounded=1;whiteSpace=wrap;html=1;sketch=0;points=[[0,0.5,0,0,0],[1,0.5,0,0,0]];fillColor=#1ba1e2;fontColor=#ffffff;strokeColor=#006EAF;arcSize=50;fontFamily=Helvetica;fontSize=11;" parent="1buoqAQooCMRWTLwz8os-4" vertex="1">
          <mxGeometry x="110" y="70" width="35.25" height="25" as="geometry" />
        </mxCell>
        <mxCell id="1buoqAQooCMRWTLwz8os-8" value="rwrfn" style="rounded=1;whiteSpace=wrap;html=1;sketch=0;points=[[0,0.5,0,0,0],[1,0.5,0,0,0]];arcSize=50;fontFamily=Helvetica;fontSize=11;fontColor=default;" parent="1buoqAQooCMRWTLwz8os-4" vertex="1">
          <mxGeometry x="-17" y="90" width="66" height="25" as="geometry" />
        </mxCell>
        <mxCell id="1buoqAQooCMRWTLwz8os-9" value="input" style="rounded=1;whiteSpace=wrap;html=1;sketch=0;points=[[0,0.5,0,0,0],[1,0.5,0,0,0]];arcSize=50;fontFamily=Helvetica;fontSize=11;fontColor=default;" parent="1buoqAQooCMRWTLwz8os-4" vertex="1">
          <mxGeometry x="-17" y="165" width="66" height="25" as="geometry" />
        </mxCell>
        <mxCell id="1buoqAQooCMRWTLwz8os-10" value="grammar name" style="rounded=1;whiteSpace=wrap;html=1;sketch=0;points=[[0,0.5,0,0,0],[1,0.5,0,0,0]];arcSize=50;fontFamily=Helvetica;fontSize=11;fontColor=default;" parent="1buoqAQooCMRWTLwz8os-4" vertex="1">
          <mxGeometry x="-16" y="27.5" width="66" height="25" as="geometry" />
        </mxCell>
        <mxCell id="1buoqAQooCMRWTLwz8os-11" value="rwrsupportfn" style="rounded=1;whiteSpace=wrap;html=1;sketch=0;points=[[0,0.5,0,0,0],[1,0.5,0,0,0]];arcSize=50;fontFamily=Helvetica;fontSize=11;fontColor=default;" parent="1buoqAQooCMRWTLwz8os-4" vertex="1">
          <mxGeometry x="-17" y="120" width="66" height="25" as="geometry" />
        </mxCell>
        <mxCell id="1buoqAQooCMRWTLwz8os-12" value="✗" style="rhombus;whiteSpace=wrap;html=1;rounded=1;fillColor=#0050ef;fontColor=#ffffff;strokeColor=#001DBC;fontStyle=1;glass=0;sketch=0;fontSize=12;points=[[0,0.5,0,0,0],[0.5,0,0,0,0],[0.5,1,0,0,0],[1,0.5,0,0,0]];shadow=1;fontFamily=Helvetica;" parent="1buoqAQooCMRWTLwz8os-1" vertex="1">
          <mxGeometry x="620" y="160" width="40" height="40" as="geometry" />
        </mxCell>
        <mxCell id="1buoqAQooCMRWTLwz8os-13" value="&#39;null.js&#39;" style="rounded=1;whiteSpace=wrap;html=1;sketch=0;container=1;recursiveResize=0;verticalAlign=middle;arcSize=6;fontStyle=1;autosize=0;points=[];absoluteArcSize=1;shadow=0;strokeColor=#6c8ebf;fillColor=#dae8fc;fontFamily=Helvetica;fontSize=11;gradientColor=#E6E6E6;fontColor=default;" parent="1buoqAQooCMRWTLwz8os-1" vertex="1">
          <mxGeometry x="180" y="160" width="110" height="20" as="geometry">
            <mxRectangle x="-98" y="-1230" width="99" height="26" as="alternateBounds" />
          </mxGeometry>
        </mxCell>
        <mxCell id="1buoqAQooCMRWTLwz8os-14" value="⍺" style="rounded=1;whiteSpace=wrap;html=1;sketch=0;points=[[0,0.5,0,0,0],[1,0.5,0,0,0]];arcSize=50;fontFamily=Helvetica;fontSize=11;fontColor=default;" parent="1buoqAQooCMRWTLwz8os-13" vertex="1">
          <mxGeometry x="100" y="3.75" width="20" height="12.5" as="geometry" />
        </mxCell>
        <mxCell id="1buoqAQooCMRWTLwz8os-15" value="⍺" style="rounded=1;whiteSpace=wrap;html=1;sketch=0;points=[[0,0.5,0,0,0],[1,0.5,0,0,0]];arcSize=50;fontFamily=Helvetica;fontSize=11;fontColor=default;" parent="1buoqAQooCMRWTLwz8os-13" vertex="1">
          <mxGeometry x="-10" y="3.75" width="20" height="12.5" as="geometry" />
        </mxCell>
        <mxCell id="1buoqAQooCMRWTLwz8os-16" value="&#39;delconn.rwr&#39;" style="rounded=1;whiteSpace=wrap;html=1;sketch=0;container=1;recursiveResize=0;verticalAlign=middle;arcSize=6;fontStyle=0;autosize=0;points=[];absoluteArcSize=1;shadow=0;strokeColor=#6c8ebf;fillColor=#dae8fc;fontFamily=Helvetica;fontSize=11;gradientColor=#E6E6E6;fontColor=default;" parent="1buoqAQooCMRWTLwz8os-1" vertex="1">
          <mxGeometry x="165" y="120" width="155" height="20" as="geometry">
            <mxRectangle x="-98" y="-1230" width="99" height="26" as="alternateBounds" />
          </mxGeometry>
        </mxCell>
        <mxCell id="1buoqAQooCMRWTLwz8os-17" value="⍺" style="rounded=1;whiteSpace=wrap;html=1;sketch=0;points=[[0,0.5,0,0,0],[1,0.5,0,0,0]];arcSize=50;fontFamily=Helvetica;fontSize=11;fontColor=default;" parent="1buoqAQooCMRWTLwz8os-16" vertex="1">
          <mxGeometry x="145" y="3.75" width="20" height="12.5" as="geometry" />
        </mxCell>
        <mxCell id="1buoqAQooCMRWTLwz8os-18" value="⍺" style="rounded=1;whiteSpace=wrap;html=1;sketch=0;points=[[0,0.5,0,0,0],[1,0.5,0,0,0]];arcSize=50;fontFamily=Helvetica;fontSize=11;fontColor=default;" parent="1buoqAQooCMRWTLwz8os-16" vertex="1">
          <mxGeometry x="-10" y="3.75" width="20" height="12.5" as="geometry" />
        </mxCell>
        <mxCell id="1buoqAQooCMRWTLwz8os-19" value="&#39;delconn.ohm&#39;" style="rounded=1;whiteSpace=wrap;html=1;sketch=0;container=1;recursiveResize=0;verticalAlign=middle;arcSize=6;fontStyle=0;autosize=0;points=[];absoluteArcSize=1;shadow=0;strokeColor=#6c8ebf;fillColor=#dae8fc;fontFamily=Helvetica;fontSize=11;gradientColor=#E6E6E6;fontColor=default;" parent="1buoqAQooCMRWTLwz8os-1" vertex="1">
          <mxGeometry x="165" y="80" width="155" height="20" as="geometry">
            <mxRectangle x="-98" y="-1230" width="99" height="26" as="alternateBounds" />
          </mxGeometry>
        </mxCell>
        <mxCell id="1buoqAQooCMRWTLwz8os-20" value="⍺" style="rounded=1;whiteSpace=wrap;html=1;sketch=0;points=[[0,0.5,0,0,0],[1,0.5,0,0,0]];arcSize=50;fontFamily=Helvetica;fontSize=11;fontColor=default;" parent="1buoqAQooCMRWTLwz8os-19" vertex="1">
          <mxGeometry x="145" y="3.75" width="20" height="12.5" as="geometry" />
        </mxCell>
        <mxCell id="1buoqAQooCMRWTLwz8os-21" value="⍺" style="rounded=1;whiteSpace=wrap;html=1;sketch=0;points=[[0,0.5,0,0,0],[1,0.5,0,0,0]];arcSize=50;fontFamily=Helvetica;fontSize=11;fontColor=default;" parent="1buoqAQooCMRWTLwz8os-19" vertex="1">
          <mxGeometry x="-10" y="3.75" width="20" height="12.5" as="geometry" />
        </mxCell>
        <mxCell id="1buoqAQooCMRWTLwz8os-22" value="&#39;delconn&#39;" style="rounded=1;whiteSpace=wrap;html=1;sketch=0;container=1;recursiveResize=0;verticalAlign=middle;arcSize=6;fontStyle=0;autosize=0;points=[];absoluteArcSize=1;shadow=0;strokeColor=#6c8ebf;fillColor=#dae8fc;fontFamily=Helvetica;fontSize=11;gradientColor=#E6E6E6;fontColor=default;" parent="1buoqAQooCMRWTLwz8os-1" vertex="1">
          <mxGeometry x="165" y="40" width="155" height="20" as="geometry">
            <mxRectangle x="-98" y="-1230" width="99" height="26" as="alternateBounds" />
          </mxGeometry>
        </mxCell>
        <mxCell id="1buoqAQooCMRWTLwz8os-23" value="⍺" style="rounded=1;whiteSpace=wrap;html=1;sketch=0;points=[[0,0.5,0,0,0],[1,0.5,0,0,0]];arcSize=50;fontFamily=Helvetica;fontSize=11;fontColor=default;" parent="1buoqAQooCMRWTLwz8os-22" vertex="1">
          <mxGeometry x="145" y="3.75" width="20" height="12.5" as="geometry" />
        </mxCell>
        <mxCell id="1buoqAQooCMRWTLwz8os-24" value="⍺" style="rounded=1;whiteSpace=wrap;html=1;sketch=0;points=[[0,0.5,0,0,0],[1,0.5,0,0,0]];arcSize=50;fontFamily=Helvetica;fontSize=11;fontColor=default;" parent="1buoqAQooCMRWTLwz8os-22" vertex="1">
          <mxGeometry x="-10" y="3.75" width="20" height="12.5" as="geometry" />
        </mxCell>
        <mxCell id="1buoqAQooCMRWTLwz8os-25" style="edgeStyle=orthogonalEdgeStyle;rounded=1;orthogonalLoop=1;jettySize=auto;html=1;exitX=1;exitY=0.5;exitDx=0;exitDy=0;exitPerimeter=0;entryX=0;entryY=0.5;entryDx=0;entryDy=0;entryPerimeter=0;strokeWidth=2;curved=0;" parent="1buoqAQooCMRWTLwz8os-1" source="1buoqAQooCMRWTLwz8os-14" target="1buoqAQooCMRWTLwz8os-11" edge="1">
          <mxGeometry relative="1" as="geometry" />
        </mxCell>
        <mxCell id="1buoqAQooCMRWTLwz8os-26" style="edgeStyle=orthogonalEdgeStyle;rounded=1;orthogonalLoop=1;jettySize=auto;html=1;exitX=1;exitY=0.5;exitDx=0;exitDy=0;exitPerimeter=0;entryX=0;entryY=0.5;entryDx=0;entryDy=0;entryPerimeter=0;strokeWidth=2;curved=0;" parent="1buoqAQooCMRWTLwz8os-1" source="1buoqAQooCMRWTLwz8os-17" target="1buoqAQooCMRWTLwz8os-8" edge="1">
          <mxGeometry relative="1" as="geometry" />
        </mxCell>
        <mxCell id="1buoqAQooCMRWTLwz8os-27" style="edgeStyle=orthogonalEdgeStyle;rounded=1;orthogonalLoop=1;jettySize=auto;html=1;exitX=1;exitY=0.5;exitDx=0;exitDy=0;exitPerimeter=0;entryX=0;entryY=0.5;entryDx=0;entryDy=0;entryPerimeter=0;strokeWidth=2;curved=0;" parent="1buoqAQooCMRWTLwz8os-1" source="1buoqAQooCMRWTLwz8os-20" target="1buoqAQooCMRWTLwz8os-5" edge="1">
          <mxGeometry relative="1" as="geometry" />
        </mxCell>
        <mxCell id="1buoqAQooCMRWTLwz8os-28" style="edgeStyle=orthogonalEdgeStyle;rounded=1;orthogonalLoop=1;jettySize=auto;html=1;exitX=1;exitY=0.5;exitDx=0;exitDy=0;exitPerimeter=0;entryX=0;entryY=0.5;entryDx=0;entryDy=0;entryPerimeter=0;strokeWidth=2;curved=0;" parent="1buoqAQooCMRWTLwz8os-1" source="1buoqAQooCMRWTLwz8os-23" target="1buoqAQooCMRWTLwz8os-10" edge="1">
          <mxGeometry relative="1" as="geometry" />
        </mxCell>
        <mxCell id="1buoqAQooCMRWTLwz8os-29" style="edgeStyle=orthogonalEdgeStyle;rounded=1;orthogonalLoop=1;jettySize=auto;html=1;exitX=1;exitY=0.5;exitDx=0;exitDy=0;exitPerimeter=0;entryX=0;entryY=0.5;entryDx=0;entryDy=0;entryPerimeter=0;curved=0;opacity=30;" parent="1buoqAQooCMRWTLwz8os-1" source="1buoqAQooCMRWTLwz8os-3" target="1buoqAQooCMRWTLwz8os-15" edge="1">
          <mxGeometry relative="1" as="geometry">
            <Array as="points">
              <mxPoint x="130" y="220" />
              <mxPoint x="130" y="170" />
            </Array>
          </mxGeometry>
        </mxCell>
        <mxCell id="1buoqAQooCMRWTLwz8os-30" style="edgeStyle=orthogonalEdgeStyle;rounded=1;orthogonalLoop=1;jettySize=auto;html=1;entryX=0;entryY=0.5;entryDx=0;entryDy=0;entryPerimeter=0;curved=0;opacity=30;" parent="1buoqAQooCMRWTLwz8os-1" source="1buoqAQooCMRWTLwz8os-3" target="1buoqAQooCMRWTLwz8os-18" edge="1">
          <mxGeometry relative="1" as="geometry">
            <Array as="points">
              <mxPoint x="130" y="220" />
              <mxPoint x="130" y="130" />
            </Array>
          </mxGeometry>
        </mxCell>
        <mxCell id="1buoqAQooCMRWTLwz8os-31" style="edgeStyle=orthogonalEdgeStyle;rounded=1;orthogonalLoop=1;jettySize=auto;html=1;exitX=1;exitY=0.5;exitDx=0;exitDy=0;exitPerimeter=0;entryX=0;entryY=0.5;entryDx=0;entryDy=0;entryPerimeter=0;curved=0;opacity=30;" parent="1buoqAQooCMRWTLwz8os-1" source="1buoqAQooCMRWTLwz8os-3" target="1buoqAQooCMRWTLwz8os-21" edge="1">
          <mxGeometry relative="1" as="geometry" />
        </mxCell>
        <mxCell id="1buoqAQooCMRWTLwz8os-32" style="edgeStyle=orthogonalEdgeStyle;rounded=1;orthogonalLoop=1;jettySize=auto;html=1;entryX=0;entryY=0.5;entryDx=0;entryDy=0;entryPerimeter=0;curved=0;opacity=30;" parent="1buoqAQooCMRWTLwz8os-1" source="1buoqAQooCMRWTLwz8os-3" target="1buoqAQooCMRWTLwz8os-24" edge="1">
          <mxGeometry relative="1" as="geometry" />
        </mxCell>
        <mxCell id="1buoqAQooCMRWTLwz8os-33" style="edgeStyle=orthogonalEdgeStyle;rounded=1;orthogonalLoop=1;jettySize=auto;html=1;entryX=0;entryY=0.5;entryDx=0;entryDy=0;entryPerimeter=0;strokeWidth=2;curved=0;" parent="1buoqAQooCMRWTLwz8os-1" source="1buoqAQooCMRWTLwz8os-6" target="1buoqAQooCMRWTLwz8os-34" edge="1">
          <mxGeometry relative="1" as="geometry">
            <mxPoint x="633.25" y="2.5" as="targetPoint" />
          </mxGeometry>
        </mxCell>
        <mxCell id="1buoqAQooCMRWTLwz8os-34" value="" style="rhombus;whiteSpace=wrap;html=1;rounded=1;fontStyle=1;glass=0;sketch=0;fontSize=12;points=[[0,0.5,0,0,0],[0.5,0,0,0,0],[0.5,1,0,0,0],[1,0.5,0,0,0]];shadow=1;fillColor=#0050ef;fontColor=#ffffff;strokeColor=#001DBC;fontFamily=Helvetica;" parent="1buoqAQooCMRWTLwz8os-1" vertex="1">
          <mxGeometry x="620" y="60" width="40" height="40" as="geometry" />
        </mxCell>
        <mxCell id="1buoqAQooCMRWTLwz8os-35" style="edgeStyle=orthogonalEdgeStyle;shape=connector;curved=0;rounded=1;orthogonalLoop=1;jettySize=auto;html=1;exitX=1;exitY=0.5;exitDx=0;exitDy=0;exitPerimeter=0;entryX=0;entryY=0.5;entryDx=0;entryDy=0;entryPerimeter=0;labelBackgroundColor=default;strokeColor=default;align=center;verticalAlign=middle;fontFamily=Helvetica;fontSize=11;fontColor=default;endArrow=classic;" parent="1buoqAQooCMRWTLwz8os-1" source="1buoqAQooCMRWTLwz8os-7" target="1buoqAQooCMRWTLwz8os-12" edge="1">
          <mxGeometry relative="1" as="geometry" />
        </mxCell>
      </root>
    </mxGraphModel>
  </diagram>
  <diagram name="Extract Name Strings" id="DLXTpavL0Dw5XhkllCMH">
    <mxGraphModel dx="1147" dy="578" grid="1" gridSize="10" guides="1" tooltips="1" connect="1" arrows="1" fold="1" page="1" pageScale="1" pageWidth="850" pageHeight="1100" math="0" shadow="0">
      <root>
        <mxCell id="jdBLkHqz-Q28XZTDVhMX-0" />
        <mxCell id="jdBLkHqz-Q28XZTDVhMX-1" parent="jdBLkHqz-Q28XZTDVhMX-0" />
        <mxCell id="jdBLkHqz-Q28XZTDVhMX-2" style="edgeStyle=orthogonalEdgeStyle;rounded=1;orthogonalLoop=1;jettySize=auto;html=1;exitX=1;exitY=0.5;exitDx=0;exitDy=0;exitPerimeter=0;strokeWidth=2;curved=0;" parent="jdBLkHqz-Q28XZTDVhMX-1" source="jdBLkHqz-Q28XZTDVhMX-3" target="jdBLkHqz-Q28XZTDVhMX-9" edge="1">
          <mxGeometry relative="1" as="geometry" />
        </mxCell>
        <mxCell id="jdBLkHqz-Q28XZTDVhMX-3" value="" style="rhombus;whiteSpace=wrap;html=1;rounded=1;fontStyle=1;glass=0;sketch=0;fontSize=12;points=[[0,0.5,0,0,0],[0.5,0,0,0,0],[0.5,1,0,0,0],[1,0.5,0,0,0]];shadow=1;fontFamily=Helvetica;fontColor=default;" parent="jdBLkHqz-Q28XZTDVhMX-1" vertex="1">
          <mxGeometry x="40" y="200" width="40" height="40" as="geometry" />
        </mxCell>
        <mxCell id="jdBLkHqz-Q28XZTDVhMX-4" value="Transpile" style="rounded=1;whiteSpace=wrap;html=1;sketch=0;container=1;recursiveResize=0;verticalAlign=top;arcSize=6;fontStyle=1;autosize=0;points=[];absoluteArcSize=1;shadow=1;strokeColor=#001DBC;fillColor=#0050ef;fontColor=#ffffff;fontFamily=Helvetica;fontSize=11;" parent="jdBLkHqz-Q28XZTDVhMX-1" vertex="1">
          <mxGeometry x="420" y="40" width="130" height="210" as="geometry">
            <mxRectangle x="-98" y="-1230" width="99" height="26" as="alternateBounds" />
          </mxGeometry>
        </mxCell>
        <mxCell id="jdBLkHqz-Q28XZTDVhMX-5" value="ohmfn" style="rounded=1;whiteSpace=wrap;html=1;sketch=0;points=[[0,0.5,0,0,0],[1,0.5,0,0,0]];arcSize=50;fontFamily=Helvetica;fontSize=11;fontColor=default;fontStyle=0" parent="jdBLkHqz-Q28XZTDVhMX-4" vertex="1">
          <mxGeometry x="-17" y="57.5" width="66" height="25" as="geometry" />
        </mxCell>
        <mxCell id="jdBLkHqz-Q28XZTDVhMX-6" value="" style="rounded=1;whiteSpace=wrap;html=1;sketch=0;points=[[0,0.5,0,0,0],[1,0.5,0,0,0]];fillColor=#1ba1e2;fontColor=#ffffff;strokeColor=#006EAF;arcSize=50;fontFamily=Helvetica;fontSize=11;" parent="jdBLkHqz-Q28XZTDVhMX-4" vertex="1">
          <mxGeometry x="110" y="27.5" width="35.25" height="25" as="geometry" />
        </mxCell>
        <mxCell id="jdBLkHqz-Q28XZTDVhMX-7" value="✗" style="rounded=1;whiteSpace=wrap;html=1;sketch=0;points=[[0,0.5,0,0,0],[1,0.5,0,0,0]];fillColor=#1ba1e2;fontColor=#ffffff;strokeColor=#006EAF;arcSize=50;fontFamily=Helvetica;fontSize=11;" parent="jdBLkHqz-Q28XZTDVhMX-4" vertex="1">
          <mxGeometry x="110" y="70" width="35.25" height="25" as="geometry" />
        </mxCell>
        <mxCell id="jdBLkHqz-Q28XZTDVhMX-8" value="rwrfn" style="rounded=1;whiteSpace=wrap;html=1;sketch=0;points=[[0,0.5,0,0,0],[1,0.5,0,0,0]];arcSize=50;fontFamily=Helvetica;fontSize=11;fontColor=default;" parent="jdBLkHqz-Q28XZTDVhMX-4" vertex="1">
          <mxGeometry x="-17" y="90" width="66" height="25" as="geometry" />
        </mxCell>
        <mxCell id="jdBLkHqz-Q28XZTDVhMX-9" value="input" style="rounded=1;whiteSpace=wrap;html=1;sketch=0;points=[[0,0.5,0,0,0],[1,0.5,0,0,0]];arcSize=50;fontFamily=Helvetica;fontSize=11;fontColor=default;" parent="jdBLkHqz-Q28XZTDVhMX-4" vertex="1">
          <mxGeometry x="-17" y="165" width="66" height="25" as="geometry" />
        </mxCell>
        <mxCell id="jdBLkHqz-Q28XZTDVhMX-10" value="grammar name" style="rounded=1;whiteSpace=wrap;html=1;sketch=0;points=[[0,0.5,0,0,0],[1,0.5,0,0,0]];arcSize=50;fontFamily=Helvetica;fontSize=11;fontColor=default;" parent="jdBLkHqz-Q28XZTDVhMX-4" vertex="1">
          <mxGeometry x="-16" y="27.5" width="66" height="25" as="geometry" />
        </mxCell>
        <mxCell id="jdBLkHqz-Q28XZTDVhMX-11" value="rwrsupportfn" style="rounded=1;whiteSpace=wrap;html=1;sketch=0;points=[[0,0.5,0,0,0],[1,0.5,0,0,0]];arcSize=50;fontFamily=Helvetica;fontSize=11;fontColor=default;" parent="jdBLkHqz-Q28XZTDVhMX-4" vertex="1">
          <mxGeometry x="-17" y="120" width="66" height="25" as="geometry" />
        </mxCell>
        <mxCell id="jdBLkHqz-Q28XZTDVhMX-12" value="✗" style="rhombus;whiteSpace=wrap;html=1;rounded=1;fillColor=#0050ef;fontColor=#ffffff;strokeColor=#001DBC;fontStyle=1;glass=0;sketch=0;fontSize=12;points=[[0,0.5,0,0,0],[0.5,0,0,0,0],[0.5,1,0,0,0],[1,0.5,0,0,0]];shadow=1;fontFamily=Helvetica;" parent="jdBLkHqz-Q28XZTDVhMX-1" vertex="1">
          <mxGeometry x="620" y="200" width="40" height="40" as="geometry" />
        </mxCell>
        <mxCell id="jdBLkHqz-Q28XZTDVhMX-13" style="edgeStyle=orthogonalEdgeStyle;rounded=1;orthogonalLoop=1;jettySize=auto;html=1;exitX=1;exitY=0.5;exitDx=0;exitDy=0;exitPerimeter=0;entryX=0;entryY=0.5;entryDx=0;entryDy=0;entryPerimeter=0;curved=0;opacity=30;" parent="jdBLkHqz-Q28XZTDVhMX-1" source="jdBLkHqz-Q28XZTDVhMX-7" target="jdBLkHqz-Q28XZTDVhMX-12" edge="1">
          <mxGeometry relative="1" as="geometry">
            <Array as="points">
              <mxPoint x="590" y="123" />
              <mxPoint x="590" y="220" />
            </Array>
          </mxGeometry>
        </mxCell>
        <mxCell id="jdBLkHqz-Q28XZTDVhMX-14" value="&#39;extractnames.rwr&#39;" style="rounded=1;whiteSpace=wrap;html=1;sketch=0;container=1;recursiveResize=0;verticalAlign=middle;arcSize=6;fontStyle=0;autosize=0;points=[];absoluteArcSize=1;shadow=0;strokeColor=#6c8ebf;fillColor=#dae8fc;fontFamily=Helvetica;fontSize=11;gradientColor=#E6E6E6;fontColor=default;" parent="jdBLkHqz-Q28XZTDVhMX-1" vertex="1">
          <mxGeometry x="165" y="120" width="155" height="20" as="geometry">
            <mxRectangle x="-98" y="-1230" width="99" height="26" as="alternateBounds" />
          </mxGeometry>
        </mxCell>
        <mxCell id="jdBLkHqz-Q28XZTDVhMX-15" value="⍺" style="rounded=1;whiteSpace=wrap;html=1;sketch=0;points=[[0,0.5,0,0,0],[1,0.5,0,0,0]];arcSize=50;fontFamily=Helvetica;fontSize=11;fontColor=default;" parent="jdBLkHqz-Q28XZTDVhMX-14" vertex="1">
          <mxGeometry x="145" y="3.75" width="20" height="12.5" as="geometry" />
        </mxCell>
        <mxCell id="jdBLkHqz-Q28XZTDVhMX-16" value="⍺" style="rounded=1;whiteSpace=wrap;html=1;sketch=0;points=[[0,0.5,0,0,0],[1,0.5,0,0,0]];arcSize=50;fontFamily=Helvetica;fontSize=11;fontColor=default;" parent="jdBLkHqz-Q28XZTDVhMX-14" vertex="1">
          <mxGeometry x="-10" y="3.75" width="20" height="12.5" as="geometry" />
        </mxCell>
        <mxCell id="jdBLkHqz-Q28XZTDVhMX-17" value="&#39;extractnames.ohm&#39;" style="rounded=1;whiteSpace=wrap;html=1;sketch=0;container=1;recursiveResize=0;verticalAlign=middle;arcSize=6;fontStyle=0;autosize=0;points=[];absoluteArcSize=1;shadow=0;strokeColor=#6c8ebf;fillColor=#dae8fc;fontFamily=Helvetica;fontSize=11;gradientColor=#E6E6E6;fontColor=default;" parent="jdBLkHqz-Q28XZTDVhMX-1" vertex="1">
          <mxGeometry x="165" y="80" width="155" height="20" as="geometry">
            <mxRectangle x="-98" y="-1230" width="99" height="26" as="alternateBounds" />
          </mxGeometry>
        </mxCell>
        <mxCell id="jdBLkHqz-Q28XZTDVhMX-18" value="⍺" style="rounded=1;whiteSpace=wrap;html=1;sketch=0;points=[[0,0.5,0,0,0],[1,0.5,0,0,0]];arcSize=50;fontFamily=Helvetica;fontSize=11;fontColor=default;" parent="jdBLkHqz-Q28XZTDVhMX-17" vertex="1">
          <mxGeometry x="145" y="3.75" width="20" height="12.5" as="geometry" />
        </mxCell>
        <mxCell id="jdBLkHqz-Q28XZTDVhMX-19" value="⍺" style="rounded=1;whiteSpace=wrap;html=1;sketch=0;points=[[0,0.5,0,0,0],[1,0.5,0,0,0]];arcSize=50;fontFamily=Helvetica;fontSize=11;fontColor=default;" parent="jdBLkHqz-Q28XZTDVhMX-17" vertex="1">
          <mxGeometry x="-10" y="3.75" width="20" height="12.5" as="geometry" />
        </mxCell>
        <mxCell id="jdBLkHqz-Q28XZTDVhMX-20" value="&#39;extractnames&#39;" style="rounded=1;whiteSpace=wrap;html=1;sketch=0;container=1;recursiveResize=0;verticalAlign=middle;arcSize=6;fontStyle=0;autosize=0;points=[];absoluteArcSize=1;shadow=0;strokeColor=#6c8ebf;fillColor=#dae8fc;fontFamily=Helvetica;fontSize=11;gradientColor=#E6E6E6;fontColor=default;" parent="jdBLkHqz-Q28XZTDVhMX-1" vertex="1">
          <mxGeometry x="165" y="40" width="155" height="20" as="geometry">
            <mxRectangle x="-98" y="-1230" width="99" height="26" as="alternateBounds" />
          </mxGeometry>
        </mxCell>
        <mxCell id="jdBLkHqz-Q28XZTDVhMX-21" value="⍺" style="rounded=1;whiteSpace=wrap;html=1;sketch=0;points=[[0,0.5,0,0,0],[1,0.5,0,0,0]];arcSize=50;fontFamily=Helvetica;fontSize=11;fontColor=default;" parent="jdBLkHqz-Q28XZTDVhMX-20" vertex="1">
          <mxGeometry x="145" y="3.75" width="20" height="12.5" as="geometry" />
        </mxCell>
        <mxCell id="jdBLkHqz-Q28XZTDVhMX-22" value="⍺" style="rounded=1;whiteSpace=wrap;html=1;sketch=0;points=[[0,0.5,0,0,0],[1,0.5,0,0,0]];arcSize=50;fontFamily=Helvetica;fontSize=11;fontColor=default;" parent="jdBLkHqz-Q28XZTDVhMX-20" vertex="1">
          <mxGeometry x="-10" y="3.75" width="20" height="12.5" as="geometry" />
        </mxCell>
        <mxCell id="jdBLkHqz-Q28XZTDVhMX-23" style="edgeStyle=orthogonalEdgeStyle;rounded=1;orthogonalLoop=1;jettySize=auto;html=1;exitX=1;exitY=0.5;exitDx=0;exitDy=0;exitPerimeter=0;entryX=0;entryY=0.5;entryDx=0;entryDy=0;entryPerimeter=0;strokeWidth=2;curved=0;" parent="jdBLkHqz-Q28XZTDVhMX-1" source="jdBLkHqz-Q28XZTDVhMX-34" target="jdBLkHqz-Q28XZTDVhMX-11" edge="1">
          <mxGeometry relative="1" as="geometry" />
        </mxCell>
        <mxCell id="jdBLkHqz-Q28XZTDVhMX-24" style="edgeStyle=orthogonalEdgeStyle;rounded=1;orthogonalLoop=1;jettySize=auto;html=1;exitX=1;exitY=0.5;exitDx=0;exitDy=0;exitPerimeter=0;entryX=0;entryY=0.5;entryDx=0;entryDy=0;entryPerimeter=0;strokeWidth=2;curved=0;" parent="jdBLkHqz-Q28XZTDVhMX-1" source="jdBLkHqz-Q28XZTDVhMX-15" target="jdBLkHqz-Q28XZTDVhMX-8" edge="1">
          <mxGeometry relative="1" as="geometry" />
        </mxCell>
        <mxCell id="jdBLkHqz-Q28XZTDVhMX-25" style="edgeStyle=orthogonalEdgeStyle;rounded=1;orthogonalLoop=1;jettySize=auto;html=1;exitX=1;exitY=0.5;exitDx=0;exitDy=0;exitPerimeter=0;entryX=0;entryY=0.5;entryDx=0;entryDy=0;entryPerimeter=0;strokeWidth=2;curved=0;" parent="jdBLkHqz-Q28XZTDVhMX-1" source="jdBLkHqz-Q28XZTDVhMX-18" target="jdBLkHqz-Q28XZTDVhMX-5" edge="1">
          <mxGeometry relative="1" as="geometry" />
        </mxCell>
        <mxCell id="jdBLkHqz-Q28XZTDVhMX-26" style="edgeStyle=orthogonalEdgeStyle;rounded=1;orthogonalLoop=1;jettySize=auto;html=1;exitX=1;exitY=0.5;exitDx=0;exitDy=0;exitPerimeter=0;entryX=0;entryY=0.5;entryDx=0;entryDy=0;entryPerimeter=0;strokeWidth=2;curved=0;" parent="jdBLkHqz-Q28XZTDVhMX-1" source="jdBLkHqz-Q28XZTDVhMX-21" target="jdBLkHqz-Q28XZTDVhMX-10" edge="1">
          <mxGeometry relative="1" as="geometry" />
        </mxCell>
        <mxCell id="jdBLkHqz-Q28XZTDVhMX-27" style="edgeStyle=orthogonalEdgeStyle;rounded=1;orthogonalLoop=1;jettySize=auto;html=1;exitX=1;exitY=0.5;exitDx=0;exitDy=0;exitPerimeter=0;entryX=0;entryY=0.5;entryDx=0;entryDy=0;entryPerimeter=0;curved=0;opacity=30;" parent="jdBLkHqz-Q28XZTDVhMX-1" source="jdBLkHqz-Q28XZTDVhMX-3" target="jdBLkHqz-Q28XZTDVhMX-35" edge="1">
          <mxGeometry relative="1" as="geometry">
            <Array as="points">
              <mxPoint x="130" y="220" />
              <mxPoint x="130" y="170" />
              <mxPoint x="155" y="170" />
            </Array>
          </mxGeometry>
        </mxCell>
        <mxCell id="jdBLkHqz-Q28XZTDVhMX-28" style="edgeStyle=orthogonalEdgeStyle;rounded=1;orthogonalLoop=1;jettySize=auto;html=1;entryX=0;entryY=0.5;entryDx=0;entryDy=0;entryPerimeter=0;curved=0;opacity=30;" parent="jdBLkHqz-Q28XZTDVhMX-1" source="jdBLkHqz-Q28XZTDVhMX-3" target="jdBLkHqz-Q28XZTDVhMX-16" edge="1">
          <mxGeometry relative="1" as="geometry">
            <Array as="points">
              <mxPoint x="130" y="220" />
              <mxPoint x="130" y="130" />
            </Array>
          </mxGeometry>
        </mxCell>
        <mxCell id="jdBLkHqz-Q28XZTDVhMX-29" style="edgeStyle=orthogonalEdgeStyle;rounded=1;orthogonalLoop=1;jettySize=auto;html=1;exitX=1;exitY=0.5;exitDx=0;exitDy=0;exitPerimeter=0;entryX=0;entryY=0.5;entryDx=0;entryDy=0;entryPerimeter=0;curved=0;opacity=30;" parent="jdBLkHqz-Q28XZTDVhMX-1" source="jdBLkHqz-Q28XZTDVhMX-3" target="jdBLkHqz-Q28XZTDVhMX-19" edge="1">
          <mxGeometry relative="1" as="geometry" />
        </mxCell>
        <mxCell id="jdBLkHqz-Q28XZTDVhMX-30" style="edgeStyle=orthogonalEdgeStyle;rounded=1;orthogonalLoop=1;jettySize=auto;html=1;entryX=0;entryY=0.5;entryDx=0;entryDy=0;entryPerimeter=0;curved=0;opacity=30;" parent="jdBLkHqz-Q28XZTDVhMX-1" source="jdBLkHqz-Q28XZTDVhMX-3" target="jdBLkHqz-Q28XZTDVhMX-22" edge="1">
          <mxGeometry relative="1" as="geometry" />
        </mxCell>
        <mxCell id="jdBLkHqz-Q28XZTDVhMX-31" style="edgeStyle=orthogonalEdgeStyle;rounded=1;orthogonalLoop=1;jettySize=auto;html=1;entryX=0;entryY=0.5;entryDx=0;entryDy=0;entryPerimeter=0;strokeWidth=2;curved=0;" parent="jdBLkHqz-Q28XZTDVhMX-1" source="jdBLkHqz-Q28XZTDVhMX-6" target="jdBLkHqz-Q28XZTDVhMX-32" edge="1">
          <mxGeometry relative="1" as="geometry">
            <mxPoint x="633.25" y="2.5" as="targetPoint" />
          </mxGeometry>
        </mxCell>
        <mxCell id="jdBLkHqz-Q28XZTDVhMX-32" value="" style="rhombus;whiteSpace=wrap;html=1;rounded=1;fontStyle=1;glass=0;sketch=0;fontSize=12;points=[[0,0.5,0,0,0],[0.5,0,0,0,0],[0.5,1,0,0,0],[1,0.5,0,0,0]];shadow=1;fillColor=#0050ef;fontColor=#ffffff;strokeColor=#001DBC;fontFamily=Helvetica;" parent="jdBLkHqz-Q28XZTDVhMX-1" vertex="1">
          <mxGeometry x="620" y="60" width="40" height="40" as="geometry" />
        </mxCell>
        <mxCell id="jdBLkHqz-Q28XZTDVhMX-33" value="&#39;null.js&#39;" style="rounded=1;whiteSpace=wrap;html=1;sketch=0;container=1;recursiveResize=0;verticalAlign=middle;arcSize=6;fontStyle=0;autosize=0;points=[];absoluteArcSize=1;shadow=0;strokeColor=#6c8ebf;fillColor=#dae8fc;fontFamily=Helvetica;fontSize=11;gradientColor=#E6E6E6;fontColor=default;" parent="jdBLkHqz-Q28XZTDVhMX-1" vertex="1">
          <mxGeometry x="165" y="160" width="155" height="20" as="geometry">
            <mxRectangle x="-98" y="-1230" width="99" height="26" as="alternateBounds" />
          </mxGeometry>
        </mxCell>
        <mxCell id="jdBLkHqz-Q28XZTDVhMX-34" value="⍺" style="rounded=1;whiteSpace=wrap;html=1;sketch=0;points=[[0,0.5,0,0,0],[1,0.5,0,0,0]];arcSize=50;fontFamily=Helvetica;fontSize=11;fontColor=default;" parent="jdBLkHqz-Q28XZTDVhMX-33" vertex="1">
          <mxGeometry x="145" y="3.75" width="20" height="12.5" as="geometry" />
        </mxCell>
        <mxCell id="jdBLkHqz-Q28XZTDVhMX-35" value="⍺" style="rounded=1;whiteSpace=wrap;html=1;sketch=0;points=[[0,0.5,0,0,0],[1,0.5,0,0,0]];arcSize=50;fontFamily=Helvetica;fontSize=11;fontColor=default;" parent="jdBLkHqz-Q28XZTDVhMX-33" vertex="1">
          <mxGeometry x="-10" y="3.75" width="20" height="12.5" as="geometry" />
        </mxCell>
      </root>
    </mxGraphModel>
  </diagram>
  <diagram id="vNwMMHfzGb0rBUBEZbI2" name="Generate Code">
    <mxGraphModel dx="297" dy="578" grid="1" gridSize="10" guides="1" tooltips="1" connect="1" arrows="1" fold="1" page="1" pageScale="1" pageWidth="850" pageHeight="1100" math="0" shadow="0">
      <root>
        <mxCell id="0" />
        <mxCell id="1" parent="0" />
        <mxCell id="jW7bjlhYtynF4CxCE2A7-1" value="Generate Odin Code" style="rounded=1;whiteSpace=wrap;html=1;sketch=0;container=1;recursiveResize=0;verticalAlign=top;arcSize=6;fontStyle=0;autosize=0;points=[];absoluteArcSize=1;shadow=1;strokeColor=#001DBC;fillColor=#0050ef;fontColor=#ffffff;fontFamily=Helvetica;fontSize=11;" parent="1" vertex="1">
          <mxGeometry x="1040" y="50" width="130" height="125" as="geometry">
            <mxRectangle x="-98" y="-1230" width="99" height="26" as="alternateBounds" />
          </mxGeometry>
        </mxCell>
        <mxCell id="jW7bjlhYtynF4CxCE2A7-2" value="" style="rounded=1;whiteSpace=wrap;html=1;sketch=0;points=[[0,0.5,0,0,0],[1,0.5,0,0,0]];arcSize=50;fontFamily=Helvetica;fontSize=11;fontColor=default;" parent="jW7bjlhYtynF4CxCE2A7-1" vertex="1">
          <mxGeometry x="-10" y="40" width="37.25" height="25" as="geometry" />
        </mxCell>
        <mxCell id="jW7bjlhYtynF4CxCE2A7-3" value="" style="rounded=1;whiteSpace=wrap;html=1;sketch=0;points=[[0,0.5,0,0,0],[1,0.5,0,0,0]];fillColor=#1ba1e2;fontColor=#ffffff;strokeColor=#006EAF;arcSize=50;fontFamily=Helvetica;fontSize=11;" parent="jW7bjlhYtynF4CxCE2A7-1" vertex="1">
          <mxGeometry x="100" y="40" width="37.25" height="25" as="geometry" />
        </mxCell>
        <mxCell id="jW7bjlhYtynF4CxCE2A7-4" value="✗" style="rounded=1;whiteSpace=wrap;sketch=0;points=[[0,0.5,0,0,0],[1,0.5,0,0,0]];fillColor=#1ba1e2;fontColor=#ffffff;strokeColor=#006EAF;arcSize=50;fontFamily=Helvetica;fontSize=11;opacity=30;textOpacity=30;" parent="jW7bjlhYtynF4CxCE2A7-1" vertex="1">
          <mxGeometry x="100" y="82.5" width="37.25" height="25" as="geometry" />
        </mxCell>
        <mxCell id="jW7bjlhYtynF4CxCE2A7-5" value="" style="rhombus;whiteSpace=wrap;html=1;rounded=1;fontStyle=1;glass=0;sketch=0;fontSize=12;points=[[0,0.5,0,0,0],[0.5,0,0,0,0],[0.5,1,0,0,0],[1,0.5,0,0,0]];shadow=1;fontFamily=Helvetica;fontColor=default;labelBackgroundColor=default;" parent="1" vertex="1">
          <mxGeometry x="880" y="80" width="40" height="40" as="geometry" />
        </mxCell>
        <mxCell id="jW7bjlhYtynF4CxCE2A7-6" value="" style="rhombus;whiteSpace=wrap;html=1;rounded=1;fontStyle=1;glass=0;sketch=0;fontSize=12;points=[[0,0.5,0,0,0],[0.5,0,0,0,0],[0.5,1,0,0,0],[1,0.5,0,0,0]];shadow=1;fillColor=#0050ef;fontColor=#ffffff;strokeColor=#001DBC;fontFamily=Helvetica;labelBackgroundColor=default;" parent="1" vertex="1">
          <mxGeometry x="1280" y="80" width="40" height="40" as="geometry" />
        </mxCell>
        <mxCell id="jW7bjlhYtynF4CxCE2A7-7" value="✗" style="rhombus;whiteSpace=wrap;html=1;rounded=1;fillColor=#0050ef;fontColor=#ffffff;strokeColor=#001DBC;fontStyle=1;glass=0;sketch=0;fontSize=12;points=[[0,0.5,0,0,0],[0.5,0,0,0,0],[0.5,1,0,0,0],[1,0.5,0,0,0]];shadow=1;opacity=30;textOpacity=30;fontFamily=Helvetica;labelBackgroundColor=default;" parent="1" vertex="1">
          <mxGeometry x="1280" y="160" width="40" height="40" as="geometry" />
        </mxCell>
        <mxCell id="jW7bjlhYtynF4CxCE2A7-8" style="edgeStyle=orthogonalEdgeStyle;rounded=1;orthogonalLoop=1;jettySize=auto;html=1;exitX=1;exitY=0.5;exitDx=0;exitDy=0;exitPerimeter=0;entryX=0;entryY=0.5;entryDx=0;entryDy=0;entryPerimeter=0;strokeColor=default;strokeWidth=2;align=center;verticalAlign=middle;fontFamily=Helvetica;fontSize=11;fontColor=default;labelBackgroundColor=default;endArrow=classic;" parent="1" source="jW7bjlhYtynF4CxCE2A7-5" target="jW7bjlhYtynF4CxCE2A7-2" edge="1">
          <mxGeometry relative="1" as="geometry" />
        </mxCell>
        <mxCell id="jW7bjlhYtynF4CxCE2A7-10" style="edgeStyle=orthogonalEdgeStyle;rounded=1;orthogonalLoop=1;jettySize=auto;html=1;exitX=1;exitY=0.5;exitDx=0;exitDy=0;exitPerimeter=0;entryX=0;entryY=0.5;entryDx=0;entryDy=0;entryPerimeter=0;strokeColor=default;strokeWidth=2;align=center;verticalAlign=middle;fontFamily=Helvetica;fontSize=11;fontColor=default;labelBackgroundColor=default;endArrow=classic;" parent="1" source="jW7bjlhYtynF4CxCE2A7-3" target="jW7bjlhYtynF4CxCE2A7-6" edge="1">
          <mxGeometry relative="1" as="geometry" />
        </mxCell>
        <mxCell id="jW7bjlhYtynF4CxCE2A7-11" style="edgeStyle=orthogonalEdgeStyle;rounded=1;orthogonalLoop=1;jettySize=auto;html=1;exitX=1;exitY=0.5;exitDx=0;exitDy=0;exitPerimeter=0;entryX=0;entryY=0.5;entryDx=0;entryDy=0;entryPerimeter=0;strokeColor=default;strokeWidth=2;align=center;verticalAlign=middle;fontFamily=Helvetica;fontSize=11;fontColor=default;labelBackgroundColor=default;endArrow=classic;" parent="1" source="jW7bjlhYtynF4CxCE2A7-4" target="jW7bjlhYtynF4CxCE2A7-7" edge="1">
          <mxGeometry relative="1" as="geometry" />
        </mxCell>
      </root>
    </mxGraphModel>
  </diagram>
  <diagram id="tdX2_95LEIDNDVLNdQ2E" name="...">
    <mxGraphModel dx="1114" dy="687" grid="1" gridSize="10" guides="1" tooltips="1" connect="1" arrows="1" fold="1" page="1" pageScale="1" pageWidth="850" pageHeight="1100" math="0" shadow="0">
      <root>
        <mxCell id="0" />
        <mxCell id="1" parent="0" />
      </root>
    </mxGraphModel>
  </diagram>
  <diagram id="O--p2l5ZX4FUECZhowa7" name="Combine Generated Code">
    <mxGraphModel dx="1147" dy="578" grid="1" gridSize="10" guides="1" tooltips="1" connect="1" arrows="1" fold="1" page="1" pageScale="1" pageWidth="850" pageHeight="1100" math="0" shadow="0">
      <root>
        <mxCell id="0" />
        <mxCell id="1" parent="0" />
        <mxCell id="Z8LVXzGpIUC9BkBGrHhE-1" style="edgeStyle=orthogonalEdgeStyle;rounded=1;orthogonalLoop=1;jettySize=auto;html=1;exitX=1;exitY=0.5;exitDx=0;exitDy=0;exitPerimeter=0;entryX=0;entryY=0.5;entryDx=0;entryDy=0;entryPerimeter=0;strokeWidth=2;curved=0;" parent="1" source="Z8LVXzGpIUC9BkBGrHhE-8" target="XeL9qDQoxCB4vZtcyahX-1" edge="1">
          <mxGeometry relative="1" as="geometry">
            <mxPoint x="786" y="62.5" as="sourcePoint" />
            <mxPoint x="880" y="69" as="targetPoint" />
          </mxGeometry>
        </mxCell>
        <mxCell id="Z8LVXzGpIUC9BkBGrHhE-2" value="&#39;&lt;br&gt;package ___&lt;br&gt;import &quot;core:fmt&quot;&lt;br&gt;import zd &quot;0d/odin&quot;&lt;br&gt;&lt;br&gt;&#39;" style="rounded=1;whiteSpace=wrap;html=1;sketch=0;container=1;recursiveResize=0;verticalAlign=middle;arcSize=34;fontStyle=0;autosize=0;points=[];absoluteArcSize=1;shadow=0;strokeColor=#6c8ebf;fillColor=#dae8fc;fontFamily=Helvetica;fontSize=11;gradientColor=#E6E6E6;fontColor=default;" parent="1" vertex="1">
          <mxGeometry x="145" y="20" width="155" height="80" as="geometry">
            <mxRectangle x="-98" y="-1230" width="99" height="26" as="alternateBounds" />
          </mxGeometry>
        </mxCell>
        <mxCell id="Z8LVXzGpIUC9BkBGrHhE-3" value="⍺" style="rounded=1;whiteSpace=wrap;html=1;sketch=0;points=[[0,0.5,0,0,0],[1,0.5,0,0,0]];arcSize=50;fontFamily=Helvetica;fontSize=11;fontColor=default;" parent="Z8LVXzGpIUC9BkBGrHhE-2" vertex="1">
          <mxGeometry x="-10" y="33.75" width="20" height="12.5" as="geometry" />
        </mxCell>
        <mxCell id="Z8LVXzGpIUC9BkBGrHhE-4" value="⍺" style="rounded=1;whiteSpace=wrap;html=1;sketch=0;points=[[0,0.5,0,0,0],[1,0.5,0,0,0]];arcSize=50;fontFamily=Helvetica;fontSize=11;fontColor=default;" parent="Z8LVXzGpIUC9BkBGrHhE-2" vertex="1">
          <mxGeometry x="145" y="36.25" width="20" height="12.5" as="geometry" />
        </mxCell>
        <mxCell id="Z8LVXzGpIUC9BkBGrHhE-5" style="edgeStyle=orthogonalEdgeStyle;rounded=1;orthogonalLoop=1;jettySize=auto;html=1;exitX=1;exitY=0.5;exitDx=0;exitDy=0;exitPerimeter=0;entryX=0;entryY=0.5;entryDx=0;entryDy=0;entryPerimeter=0;strokeWidth=2;curved=0;" parent="1" source="Z8LVXzGpIUC9BkBGrHhE-4" target="Z8LVXzGpIUC9BkBGrHhE-7" edge="1">
          <mxGeometry relative="1" as="geometry">
            <mxPoint x="610" y="62.5" as="targetPoint" />
          </mxGeometry>
        </mxCell>
        <mxCell id="Z8LVXzGpIUC9BkBGrHhE-6" value="String Concatenate" style="rounded=1;whiteSpace=wrap;html=1;sketch=0;container=1;recursiveResize=0;verticalAlign=top;arcSize=6;fontStyle=1;autosize=0;points=[];absoluteArcSize=1;shadow=1;strokeColor=#001DBC;fillColor=#0050ef;fontColor=#ffffff;fontFamily=Helvetica;fontSize=11;" parent="1" vertex="1">
          <mxGeometry x="400" y="30" width="130" height="100" as="geometry">
            <mxRectangle x="-98" y="-1230" width="99" height="26" as="alternateBounds" />
          </mxGeometry>
        </mxCell>
        <mxCell id="Z8LVXzGpIUC9BkBGrHhE-7" value="1" style="rounded=1;whiteSpace=wrap;html=1;sketch=0;points=[[0,0.5,0,0,0],[1,0.5,0,0,0]];arcSize=50;fontFamily=Helvetica;fontSize=11;fontColor=default;" parent="Z8LVXzGpIUC9BkBGrHhE-6" vertex="1">
          <mxGeometry x="-16.75" y="27.5" width="66" height="25" as="geometry" />
        </mxCell>
        <mxCell id="Z8LVXzGpIUC9BkBGrHhE-8" value="" style="rounded=1;whiteSpace=wrap;html=1;sketch=0;points=[[0,0.5,0,0,0],[1,0.5,0,0,0]];fillColor=#1ba1e2;fontColor=#ffffff;strokeColor=#006EAF;arcSize=50;fontFamily=Helvetica;fontSize=11;" parent="Z8LVXzGpIUC9BkBGrHhE-6" vertex="1">
          <mxGeometry x="110" y="27.5" width="35.25" height="22.5" as="geometry" />
        </mxCell>
        <mxCell id="Z8LVXzGpIUC9BkBGrHhE-9" value="✗" style="rounded=1;whiteSpace=wrap;html=1;sketch=0;points=[[0,0.5,0,0,0],[1,0.5,0,0,0]];fillColor=#1ba1e2;fontColor=#ffffff;strokeColor=#006EAF;arcSize=50;fontFamily=Helvetica;fontSize=11;textOpacity=30;opacity=30;" parent="Z8LVXzGpIUC9BkBGrHhE-6" vertex="1">
          <mxGeometry x="110" y="60" width="35.25" height="25" as="geometry" />
        </mxCell>
        <mxCell id="Z8LVXzGpIUC9BkBGrHhE-10" value="2" style="rounded=1;whiteSpace=wrap;html=1;sketch=0;points=[[0,0.5,0,0,0],[1,0.5,0,0,0]];arcSize=50;fontFamily=Helvetica;fontSize=11;fontColor=default;" parent="Z8LVXzGpIUC9BkBGrHhE-6" vertex="1">
          <mxGeometry x="-16.75" y="60" width="66" height="25" as="geometry" />
        </mxCell>
        <mxCell id="Z8LVXzGpIUC9BkBGrHhE-11" value="proc" style="rhombus;whiteSpace=wrap;html=1;rounded=1;fontStyle=1;glass=0;sketch=0;fontSize=12;points=[[0,0.5,0,0,0],[0.5,0,0,0,0],[0.5,1,0,0,0],[1,0.5,0,0,0]];shadow=1;fontFamily=Helvetica;fontColor=default;" parent="1" vertex="1">
          <mxGeometry y="160" width="40" height="40" as="geometry" />
        </mxCell>
        <mxCell id="Z8LVXzGpIUC9BkBGrHhE-12" style="edgeStyle=orthogonalEdgeStyle;rounded=1;orthogonalLoop=1;jettySize=auto;html=1;entryX=0;entryY=0.5;entryDx=0;entryDy=0;entryPerimeter=0;curved=0;strokeWidth=1;opacity=30;" parent="1" source="Z8LVXzGpIUC9BkBGrHhE-11" target="Z8LVXzGpIUC9BkBGrHhE-3" edge="1">
          <mxGeometry relative="1" as="geometry" />
        </mxCell>
        <mxCell id="XeL9qDQoxCB4vZtcyahX-1" value="" style="rhombus;whiteSpace=wrap;html=1;rounded=1;fontStyle=1;glass=0;sketch=0;fontSize=12;points=[[0,0.5,0,0,0],[0.5,0,0,0,0],[0.5,1,0,0,0],[1,0.5,0,0,0]];shadow=1;fillColor=#0050ef;fontColor=#ffffff;strokeColor=#001DBC;fontFamily=Helvetica;" parent="1" vertex="1">
          <mxGeometry x="600" y="48.75" width="40" height="40" as="geometry" />
        </mxCell>
        <mxCell id="XeL9qDQoxCB4vZtcyahX-2" value="✗" style="rhombus;whiteSpace=wrap;html=1;rounded=1;fillColor=#0050ef;fontColor=#ffffff;strokeColor=#001DBC;fontStyle=1;glass=0;sketch=0;fontSize=12;points=[[0,0.5,0,0,0],[0.5,0,0,0,0],[0.5,1,0,0,0],[1,0.5,0,0,0]];shadow=1;opacity=30;textOpacity=30;fontFamily=Helvetica;" parent="1" vertex="1">
          <mxGeometry x="600" y="120" width="40" height="40" as="geometry" />
        </mxCell>
        <mxCell id="XeL9qDQoxCB4vZtcyahX-3" style="edgeStyle=orthogonalEdgeStyle;shape=connector;curved=0;rounded=1;orthogonalLoop=1;jettySize=auto;html=1;exitX=1;exitY=0.5;exitDx=0;exitDy=0;exitPerimeter=0;entryX=0;entryY=0.5;entryDx=0;entryDy=0;entryPerimeter=0;labelBackgroundColor=default;strokeColor=default;strokeWidth=2;align=center;verticalAlign=middle;fontFamily=Helvetica;fontSize=11;fontColor=default;endArrow=classic;" parent="1" source="Z8LVXzGpIUC9BkBGrHhE-9" target="XeL9qDQoxCB4vZtcyahX-2" edge="1">
          <mxGeometry relative="1" as="geometry" />
        </mxCell>
        <mxCell id="KGMFBMJrSq8-dXZWWyca-1" value="inc" style="rhombus;whiteSpace=wrap;html=1;rounded=1;fontStyle=1;glass=0;sketch=0;fontSize=12;points=[[0,0.5,0,0,0],[0.5,0,0,0,0],[0.5,1,0,0,0],[1,0.5,0,0,0]];shadow=1;fontFamily=Helvetica;fontColor=default;" parent="1" vertex="1">
          <mxGeometry y="240" width="40" height="40" as="geometry" />
        </mxCell>
        <mxCell id="qvAazxdRADpn_TZ0CEvd-1" value="String Concatenate" style="rounded=1;whiteSpace=wrap;html=1;sketch=0;container=1;recursiveResize=0;verticalAlign=top;arcSize=6;fontStyle=1;autosize=0;points=[];absoluteArcSize=1;shadow=1;strokeColor=#001DBC;fillColor=#0050ef;fontColor=#ffffff;fontFamily=Helvetica;fontSize=11;" parent="1" vertex="1">
          <mxGeometry x="145" y="140" width="130" height="100" as="geometry">
            <mxRectangle x="-98" y="-1230" width="99" height="26" as="alternateBounds" />
          </mxGeometry>
        </mxCell>
        <mxCell id="qvAazxdRADpn_TZ0CEvd-2" value="1" style="rounded=1;whiteSpace=wrap;html=1;sketch=0;points=[[0,0.5,0,0,0],[1,0.5,0,0,0]];arcSize=50;fontFamily=Helvetica;fontSize=11;fontColor=default;" parent="qvAazxdRADpn_TZ0CEvd-1" vertex="1">
          <mxGeometry x="-16.75" y="27.5" width="66" height="25" as="geometry" />
        </mxCell>
        <mxCell id="qvAazxdRADpn_TZ0CEvd-3" value="" style="rounded=1;whiteSpace=wrap;html=1;sketch=0;points=[[0,0.5,0,0,0],[1,0.5,0,0,0]];fillColor=#1ba1e2;fontColor=#ffffff;strokeColor=#006EAF;arcSize=50;fontFamily=Helvetica;fontSize=11;" parent="qvAazxdRADpn_TZ0CEvd-1" vertex="1">
          <mxGeometry x="110" y="27.5" width="35.25" height="22.5" as="geometry" />
        </mxCell>
        <mxCell id="qvAazxdRADpn_TZ0CEvd-4" value="✗" style="rounded=1;whiteSpace=wrap;html=1;sketch=0;points=[[0,0.5,0,0,0],[1,0.5,0,0,0]];fillColor=#1ba1e2;fontColor=#ffffff;strokeColor=#006EAF;arcSize=50;fontFamily=Helvetica;fontSize=11;textOpacity=30;opacity=30;" parent="qvAazxdRADpn_TZ0CEvd-1" vertex="1">
          <mxGeometry x="110" y="60" width="35.25" height="25" as="geometry" />
        </mxCell>
        <mxCell id="qvAazxdRADpn_TZ0CEvd-5" value="2" style="rounded=1;whiteSpace=wrap;html=1;sketch=0;points=[[0,0.5,0,0,0],[1,0.5,0,0,0]];arcSize=50;fontFamily=Helvetica;fontSize=11;fontColor=default;" parent="qvAazxdRADpn_TZ0CEvd-1" vertex="1">
          <mxGeometry x="-16.75" y="60" width="66" height="25" as="geometry" />
        </mxCell>
        <mxCell id="qvAazxdRADpn_TZ0CEvd-6" style="edgeStyle=orthogonalEdgeStyle;shape=connector;curved=0;rounded=1;orthogonalLoop=1;jettySize=auto;html=1;exitX=1;exitY=0.5;exitDx=0;exitDy=0;exitPerimeter=0;entryX=0;entryY=0.5;entryDx=0;entryDy=0;entryPerimeter=0;labelBackgroundColor=default;strokeColor=default;strokeWidth=2;align=center;verticalAlign=middle;fontFamily=Helvetica;fontSize=11;fontColor=default;endArrow=classic;" parent="1" source="Z8LVXzGpIUC9BkBGrHhE-11" target="qvAazxdRADpn_TZ0CEvd-2" edge="1">
          <mxGeometry relative="1" as="geometry" />
        </mxCell>
        <mxCell id="qvAazxdRADpn_TZ0CEvd-7" style="edgeStyle=orthogonalEdgeStyle;shape=connector;curved=0;rounded=1;orthogonalLoop=1;jettySize=auto;html=1;exitX=1;exitY=0.5;exitDx=0;exitDy=0;exitPerimeter=0;entryX=0;entryY=0.5;entryDx=0;entryDy=0;entryPerimeter=0;labelBackgroundColor=default;strokeColor=default;strokeWidth=2;align=center;verticalAlign=middle;fontFamily=Helvetica;fontSize=11;fontColor=default;endArrow=classic;" parent="1" source="KGMFBMJrSq8-dXZWWyca-1" target="qvAazxdRADpn_TZ0CEvd-5" edge="1">
          <mxGeometry relative="1" as="geometry" />
        </mxCell>
        <mxCell id="qvAazxdRADpn_TZ0CEvd-8" style="edgeStyle=orthogonalEdgeStyle;shape=connector;curved=0;rounded=1;orthogonalLoop=1;jettySize=auto;html=1;exitX=1;exitY=0.5;exitDx=0;exitDy=0;exitPerimeter=0;entryX=0;entryY=0.5;entryDx=0;entryDy=0;entryPerimeter=0;labelBackgroundColor=default;strokeColor=default;strokeWidth=2;align=center;verticalAlign=middle;fontFamily=Helvetica;fontSize=11;fontColor=default;endArrow=classic;" parent="1" source="qvAazxdRADpn_TZ0CEvd-3" target="Z8LVXzGpIUC9BkBGrHhE-10" edge="1">
          <mxGeometry relative="1" as="geometry" />
        </mxCell>
        <mxCell id="qvAazxdRADpn_TZ0CEvd-9" style="edgeStyle=orthogonalEdgeStyle;shape=connector;curved=0;rounded=1;orthogonalLoop=1;jettySize=auto;html=1;exitX=1;exitY=0.5;exitDx=0;exitDy=0;exitPerimeter=0;entryX=0;entryY=0.5;entryDx=0;entryDy=0;entryPerimeter=0;labelBackgroundColor=default;strokeColor=default;strokeWidth=1;align=center;verticalAlign=middle;fontFamily=Helvetica;fontSize=11;fontColor=default;endArrow=classic;opacity=30;" parent="1" source="qvAazxdRADpn_TZ0CEvd-4" target="XeL9qDQoxCB4vZtcyahX-2" edge="1">
          <mxGeometry relative="1" as="geometry">
            <Array as="points">
              <mxPoint x="560" y="213" />
              <mxPoint x="560" y="140" />
            </Array>
          </mxGeometry>
        </mxCell>
      </root>
    </mxGraphModel>
  </diagram>
  <diagram name="Generate Procs" id="frgiwkXevmPCbozs3tsT">
    <mxGraphModel dx="1147" dy="578" grid="1" gridSize="10" guides="1" tooltips="1" connect="1" arrows="1" fold="1" page="1" pageScale="1" pageWidth="850" pageHeight="1100" math="0" shadow="0">
      <root>
        <mxCell id="mLqDMv6sqJuY5Jmg05aT-0" />
        <mxCell id="mLqDMv6sqJuY5Jmg05aT-1" parent="mLqDMv6sqJuY5Jmg05aT-0" />
        <mxCell id="mLqDMv6sqJuY5Jmg05aT-2" style="edgeStyle=orthogonalEdgeStyle;rounded=1;orthogonalLoop=1;jettySize=auto;html=1;exitX=1;exitY=0.5;exitDx=0;exitDy=0;exitPerimeter=0;strokeWidth=2;curved=0;" parent="mLqDMv6sqJuY5Jmg05aT-1" source="mLqDMv6sqJuY5Jmg05aT-3" target="mLqDMv6sqJuY5Jmg05aT-9" edge="1">
          <mxGeometry relative="1" as="geometry" />
        </mxCell>
        <mxCell id="mLqDMv6sqJuY5Jmg05aT-3" value="" style="rhombus;whiteSpace=wrap;html=1;rounded=1;fontStyle=1;glass=0;sketch=0;fontSize=12;points=[[0,0.5,0,0,0],[0.5,0,0,0,0],[0.5,1,0,0,0],[1,0.5,0,0,0]];shadow=1;fontFamily=Helvetica;fontColor=default;" parent="mLqDMv6sqJuY5Jmg05aT-1" vertex="1">
          <mxGeometry x="40" y="200" width="40" height="40" as="geometry" />
        </mxCell>
        <mxCell id="mLqDMv6sqJuY5Jmg05aT-4" value="Transpile" style="rounded=1;whiteSpace=wrap;html=1;sketch=0;container=1;recursiveResize=0;verticalAlign=top;arcSize=6;fontStyle=1;autosize=0;points=[];absoluteArcSize=1;shadow=1;strokeColor=#001DBC;fillColor=#0050ef;fontColor=#ffffff;fontFamily=Helvetica;fontSize=11;" parent="mLqDMv6sqJuY5Jmg05aT-1" vertex="1">
          <mxGeometry x="420" y="40" width="130" height="210" as="geometry">
            <mxRectangle x="-98" y="-1230" width="99" height="26" as="alternateBounds" />
          </mxGeometry>
        </mxCell>
        <mxCell id="mLqDMv6sqJuY5Jmg05aT-5" value="ohmfn" style="rounded=1;whiteSpace=wrap;html=1;sketch=0;points=[[0,0.5,0,0,0],[1,0.5,0,0,0]];arcSize=50;fontFamily=Helvetica;fontSize=11;fontColor=default;fontStyle=0" parent="mLqDMv6sqJuY5Jmg05aT-4" vertex="1">
          <mxGeometry x="-17" y="57.5" width="66" height="25" as="geometry" />
        </mxCell>
        <mxCell id="mLqDMv6sqJuY5Jmg05aT-6" value="" style="rounded=1;whiteSpace=wrap;html=1;sketch=0;points=[[0,0.5,0,0,0],[1,0.5,0,0,0]];fillColor=#1ba1e2;fontColor=#ffffff;strokeColor=#006EAF;arcSize=50;fontFamily=Helvetica;fontSize=11;" parent="mLqDMv6sqJuY5Jmg05aT-4" vertex="1">
          <mxGeometry x="110" y="27.5" width="35.25" height="25" as="geometry" />
        </mxCell>
        <mxCell id="mLqDMv6sqJuY5Jmg05aT-7" value="✗" style="rounded=1;whiteSpace=wrap;html=1;sketch=0;points=[[0,0.5,0,0,0],[1,0.5,0,0,0]];fillColor=#1ba1e2;fontColor=#ffffff;strokeColor=#006EAF;arcSize=50;fontFamily=Helvetica;fontSize=11;" parent="mLqDMv6sqJuY5Jmg05aT-4" vertex="1">
          <mxGeometry x="110" y="70" width="35.25" height="25" as="geometry" />
        </mxCell>
        <mxCell id="mLqDMv6sqJuY5Jmg05aT-8" value="rwrfn" style="rounded=1;whiteSpace=wrap;html=1;sketch=0;points=[[0,0.5,0,0,0],[1,0.5,0,0,0]];arcSize=50;fontFamily=Helvetica;fontSize=11;fontColor=default;" parent="mLqDMv6sqJuY5Jmg05aT-4" vertex="1">
          <mxGeometry x="-17" y="90" width="66" height="25" as="geometry" />
        </mxCell>
        <mxCell id="mLqDMv6sqJuY5Jmg05aT-9" value="input" style="rounded=1;whiteSpace=wrap;html=1;sketch=0;points=[[0,0.5,0,0,0],[1,0.5,0,0,0]];arcSize=50;fontFamily=Helvetica;fontSize=11;fontColor=default;" parent="mLqDMv6sqJuY5Jmg05aT-4" vertex="1">
          <mxGeometry x="-17" y="165" width="66" height="25" as="geometry" />
        </mxCell>
        <mxCell id="mLqDMv6sqJuY5Jmg05aT-10" value="grammar name" style="rounded=1;whiteSpace=wrap;html=1;sketch=0;points=[[0,0.5,0,0,0],[1,0.5,0,0,0]];arcSize=50;fontFamily=Helvetica;fontSize=11;fontColor=default;" parent="mLqDMv6sqJuY5Jmg05aT-4" vertex="1">
          <mxGeometry x="-16" y="27.5" width="66" height="25" as="geometry" />
        </mxCell>
        <mxCell id="mLqDMv6sqJuY5Jmg05aT-11" value="rwrsupportfn" style="rounded=1;whiteSpace=wrap;html=1;sketch=0;points=[[0,0.5,0,0,0],[1,0.5,0,0,0]];arcSize=50;fontFamily=Helvetica;fontSize=11;fontColor=default;" parent="mLqDMv6sqJuY5Jmg05aT-4" vertex="1">
          <mxGeometry x="-17" y="120" width="66" height="25" as="geometry" />
        </mxCell>
        <mxCell id="mLqDMv6sqJuY5Jmg05aT-12" value="✗" style="rhombus;whiteSpace=wrap;html=1;rounded=1;fillColor=#0050ef;fontColor=#ffffff;strokeColor=#001DBC;fontStyle=1;glass=0;sketch=0;fontSize=12;points=[[0,0.5,0,0,0],[0.5,0,0,0,0],[0.5,1,0,0,0],[1,0.5,0,0,0]];shadow=1;fontFamily=Helvetica;" parent="mLqDMv6sqJuY5Jmg05aT-1" vertex="1">
          <mxGeometry x="620" y="200" width="40" height="40" as="geometry" />
        </mxCell>
        <mxCell id="mLqDMv6sqJuY5Jmg05aT-13" style="edgeStyle=orthogonalEdgeStyle;rounded=1;orthogonalLoop=1;jettySize=auto;html=1;exitX=1;exitY=0.5;exitDx=0;exitDy=0;exitPerimeter=0;entryX=0;entryY=0.5;entryDx=0;entryDy=0;entryPerimeter=0;curved=0;opacity=30;" parent="mLqDMv6sqJuY5Jmg05aT-1" source="mLqDMv6sqJuY5Jmg05aT-7" target="mLqDMv6sqJuY5Jmg05aT-12" edge="1">
          <mxGeometry relative="1" as="geometry">
            <Array as="points">
              <mxPoint x="590" y="123" />
              <mxPoint x="590" y="220" />
            </Array>
          </mxGeometry>
        </mxCell>
        <mxCell id="mLqDMv6sqJuY5Jmg05aT-14" value="&#39;genprocs.rwr&#39;" style="rounded=1;whiteSpace=wrap;html=1;sketch=0;container=1;recursiveResize=0;verticalAlign=middle;arcSize=6;fontStyle=0;autosize=0;points=[];absoluteArcSize=1;shadow=0;strokeColor=#6c8ebf;fillColor=#dae8fc;fontFamily=Helvetica;fontSize=11;gradientColor=#E6E6E6;fontColor=default;" parent="mLqDMv6sqJuY5Jmg05aT-1" vertex="1">
          <mxGeometry x="165" y="120" width="155" height="20" as="geometry">
            <mxRectangle x="-98" y="-1230" width="99" height="26" as="alternateBounds" />
          </mxGeometry>
        </mxCell>
        <mxCell id="mLqDMv6sqJuY5Jmg05aT-15" value="⍺" style="rounded=1;whiteSpace=wrap;html=1;sketch=0;points=[[0,0.5,0,0,0],[1,0.5,0,0,0]];arcSize=50;fontFamily=Helvetica;fontSize=11;fontColor=default;" parent="mLqDMv6sqJuY5Jmg05aT-14" vertex="1">
          <mxGeometry x="145" y="3.75" width="20" height="12.5" as="geometry" />
        </mxCell>
        <mxCell id="mLqDMv6sqJuY5Jmg05aT-16" value="⍺" style="rounded=1;whiteSpace=wrap;html=1;sketch=0;points=[[0,0.5,0,0,0],[1,0.5,0,0,0]];arcSize=50;fontFamily=Helvetica;fontSize=11;fontColor=default;" parent="mLqDMv6sqJuY5Jmg05aT-14" vertex="1">
          <mxGeometry x="-10" y="3.75" width="20" height="12.5" as="geometry" />
        </mxCell>
        <mxCell id="mLqDMv6sqJuY5Jmg05aT-17" value="&#39;codesnippets.ohm&#39;" style="rounded=1;whiteSpace=wrap;html=1;sketch=0;container=1;recursiveResize=0;verticalAlign=middle;arcSize=6;fontStyle=0;autosize=0;points=[];absoluteArcSize=1;shadow=0;strokeColor=#6c8ebf;fillColor=#dae8fc;fontFamily=Helvetica;fontSize=11;gradientColor=#E6E6E6;fontColor=default;" parent="mLqDMv6sqJuY5Jmg05aT-1" vertex="1">
          <mxGeometry x="165" y="80" width="155" height="20" as="geometry">
            <mxRectangle x="-98" y="-1230" width="99" height="26" as="alternateBounds" />
          </mxGeometry>
        </mxCell>
        <mxCell id="mLqDMv6sqJuY5Jmg05aT-18" value="⍺" style="rounded=1;whiteSpace=wrap;html=1;sketch=0;points=[[0,0.5,0,0,0],[1,0.5,0,0,0]];arcSize=50;fontFamily=Helvetica;fontSize=11;fontColor=default;" parent="mLqDMv6sqJuY5Jmg05aT-17" vertex="1">
          <mxGeometry x="145" y="3.75" width="20" height="12.5" as="geometry" />
        </mxCell>
        <mxCell id="mLqDMv6sqJuY5Jmg05aT-19" value="⍺" style="rounded=1;whiteSpace=wrap;html=1;sketch=0;points=[[0,0.5,0,0,0],[1,0.5,0,0,0]];arcSize=50;fontFamily=Helvetica;fontSize=11;fontColor=default;" parent="mLqDMv6sqJuY5Jmg05aT-17" vertex="1">
          <mxGeometry x="-10" y="3.75" width="20" height="12.5" as="geometry" />
        </mxCell>
        <mxCell id="mLqDMv6sqJuY5Jmg05aT-20" value="&#39;codesnippets&#39;" style="rounded=1;whiteSpace=wrap;html=1;sketch=0;container=1;recursiveResize=0;verticalAlign=middle;arcSize=6;fontStyle=0;autosize=0;points=[];absoluteArcSize=1;shadow=0;strokeColor=#6c8ebf;fillColor=#dae8fc;fontFamily=Helvetica;fontSize=11;gradientColor=#E6E6E6;fontColor=default;" parent="mLqDMv6sqJuY5Jmg05aT-1" vertex="1">
          <mxGeometry x="165" y="40" width="155" height="20" as="geometry">
            <mxRectangle x="-98" y="-1230" width="99" height="26" as="alternateBounds" />
          </mxGeometry>
        </mxCell>
        <mxCell id="mLqDMv6sqJuY5Jmg05aT-21" value="⍺" style="rounded=1;whiteSpace=wrap;html=1;sketch=0;points=[[0,0.5,0,0,0],[1,0.5,0,0,0]];arcSize=50;fontFamily=Helvetica;fontSize=11;fontColor=default;" parent="mLqDMv6sqJuY5Jmg05aT-20" vertex="1">
          <mxGeometry x="145" y="3.75" width="20" height="12.5" as="geometry" />
        </mxCell>
        <mxCell id="mLqDMv6sqJuY5Jmg05aT-22" value="⍺" style="rounded=1;whiteSpace=wrap;html=1;sketch=0;points=[[0,0.5,0,0,0],[1,0.5,0,0,0]];arcSize=50;fontFamily=Helvetica;fontSize=11;fontColor=default;" parent="mLqDMv6sqJuY5Jmg05aT-20" vertex="1">
          <mxGeometry x="-10" y="3.75" width="20" height="12.5" as="geometry" />
        </mxCell>
        <mxCell id="mLqDMv6sqJuY5Jmg05aT-23" style="edgeStyle=orthogonalEdgeStyle;rounded=1;orthogonalLoop=1;jettySize=auto;html=1;exitX=1;exitY=0.5;exitDx=0;exitDy=0;exitPerimeter=0;entryX=0;entryY=0.5;entryDx=0;entryDy=0;entryPerimeter=0;strokeWidth=2;curved=0;" parent="mLqDMv6sqJuY5Jmg05aT-1" source="mLqDMv6sqJuY5Jmg05aT-34" target="mLqDMv6sqJuY5Jmg05aT-11" edge="1">
          <mxGeometry relative="1" as="geometry" />
        </mxCell>
        <mxCell id="mLqDMv6sqJuY5Jmg05aT-24" style="edgeStyle=orthogonalEdgeStyle;rounded=1;orthogonalLoop=1;jettySize=auto;html=1;exitX=1;exitY=0.5;exitDx=0;exitDy=0;exitPerimeter=0;entryX=0;entryY=0.5;entryDx=0;entryDy=0;entryPerimeter=0;strokeWidth=2;curved=0;" parent="mLqDMv6sqJuY5Jmg05aT-1" source="mLqDMv6sqJuY5Jmg05aT-15" target="mLqDMv6sqJuY5Jmg05aT-8" edge="1">
          <mxGeometry relative="1" as="geometry" />
        </mxCell>
        <mxCell id="mLqDMv6sqJuY5Jmg05aT-25" style="edgeStyle=orthogonalEdgeStyle;rounded=1;orthogonalLoop=1;jettySize=auto;html=1;exitX=1;exitY=0.5;exitDx=0;exitDy=0;exitPerimeter=0;entryX=0;entryY=0.5;entryDx=0;entryDy=0;entryPerimeter=0;strokeWidth=2;curved=0;" parent="mLqDMv6sqJuY5Jmg05aT-1" source="mLqDMv6sqJuY5Jmg05aT-18" target="mLqDMv6sqJuY5Jmg05aT-5" edge="1">
          <mxGeometry relative="1" as="geometry" />
        </mxCell>
        <mxCell id="mLqDMv6sqJuY5Jmg05aT-26" style="edgeStyle=orthogonalEdgeStyle;rounded=1;orthogonalLoop=1;jettySize=auto;html=1;exitX=1;exitY=0.5;exitDx=0;exitDy=0;exitPerimeter=0;entryX=0;entryY=0.5;entryDx=0;entryDy=0;entryPerimeter=0;strokeWidth=2;curved=0;" parent="mLqDMv6sqJuY5Jmg05aT-1" source="mLqDMv6sqJuY5Jmg05aT-21" target="mLqDMv6sqJuY5Jmg05aT-10" edge="1">
          <mxGeometry relative="1" as="geometry" />
        </mxCell>
        <mxCell id="mLqDMv6sqJuY5Jmg05aT-27" style="edgeStyle=orthogonalEdgeStyle;rounded=1;orthogonalLoop=1;jettySize=auto;html=1;exitX=1;exitY=0.5;exitDx=0;exitDy=0;exitPerimeter=0;entryX=0;entryY=0.5;entryDx=0;entryDy=0;entryPerimeter=0;curved=0;opacity=30;" parent="mLqDMv6sqJuY5Jmg05aT-1" source="mLqDMv6sqJuY5Jmg05aT-3" target="mLqDMv6sqJuY5Jmg05aT-35" edge="1">
          <mxGeometry relative="1" as="geometry">
            <Array as="points">
              <mxPoint x="130" y="220" />
              <mxPoint x="130" y="170" />
              <mxPoint x="155" y="170" />
            </Array>
          </mxGeometry>
        </mxCell>
        <mxCell id="mLqDMv6sqJuY5Jmg05aT-28" style="edgeStyle=orthogonalEdgeStyle;rounded=1;orthogonalLoop=1;jettySize=auto;html=1;entryX=0;entryY=0.5;entryDx=0;entryDy=0;entryPerimeter=0;curved=0;opacity=30;" parent="mLqDMv6sqJuY5Jmg05aT-1" source="mLqDMv6sqJuY5Jmg05aT-3" target="mLqDMv6sqJuY5Jmg05aT-16" edge="1">
          <mxGeometry relative="1" as="geometry">
            <Array as="points">
              <mxPoint x="130" y="220" />
              <mxPoint x="130" y="130" />
            </Array>
          </mxGeometry>
        </mxCell>
        <mxCell id="mLqDMv6sqJuY5Jmg05aT-29" style="edgeStyle=orthogonalEdgeStyle;rounded=1;orthogonalLoop=1;jettySize=auto;html=1;exitX=1;exitY=0.5;exitDx=0;exitDy=0;exitPerimeter=0;entryX=0;entryY=0.5;entryDx=0;entryDy=0;entryPerimeter=0;curved=0;opacity=30;" parent="mLqDMv6sqJuY5Jmg05aT-1" source="mLqDMv6sqJuY5Jmg05aT-3" target="mLqDMv6sqJuY5Jmg05aT-19" edge="1">
          <mxGeometry relative="1" as="geometry" />
        </mxCell>
        <mxCell id="mLqDMv6sqJuY5Jmg05aT-30" style="edgeStyle=orthogonalEdgeStyle;rounded=1;orthogonalLoop=1;jettySize=auto;html=1;entryX=0;entryY=0.5;entryDx=0;entryDy=0;entryPerimeter=0;curved=0;opacity=30;" parent="mLqDMv6sqJuY5Jmg05aT-1" source="mLqDMv6sqJuY5Jmg05aT-3" target="mLqDMv6sqJuY5Jmg05aT-22" edge="1">
          <mxGeometry relative="1" as="geometry" />
        </mxCell>
        <mxCell id="mLqDMv6sqJuY5Jmg05aT-31" style="edgeStyle=orthogonalEdgeStyle;rounded=1;orthogonalLoop=1;jettySize=auto;html=1;entryX=0;entryY=0.5;entryDx=0;entryDy=0;entryPerimeter=0;strokeWidth=2;curved=0;" parent="mLqDMv6sqJuY5Jmg05aT-1" source="mLqDMv6sqJuY5Jmg05aT-6" target="mLqDMv6sqJuY5Jmg05aT-32" edge="1">
          <mxGeometry relative="1" as="geometry">
            <mxPoint x="633.25" y="2.5" as="targetPoint" />
          </mxGeometry>
        </mxCell>
        <mxCell id="mLqDMv6sqJuY5Jmg05aT-32" value="" style="rhombus;whiteSpace=wrap;html=1;rounded=1;fontStyle=1;glass=0;sketch=0;fontSize=12;points=[[0,0.5,0,0,0],[0.5,0,0,0,0],[0.5,1,0,0,0],[1,0.5,0,0,0]];shadow=1;fillColor=#0050ef;fontColor=#ffffff;strokeColor=#001DBC;fontFamily=Helvetica;" parent="mLqDMv6sqJuY5Jmg05aT-1" vertex="1">
          <mxGeometry x="620" y="60" width="40" height="40" as="geometry" />
        </mxCell>
        <mxCell id="mLqDMv6sqJuY5Jmg05aT-33" value="&#39;odinsupport.js&#39;" style="rounded=1;whiteSpace=wrap;html=1;sketch=0;container=1;recursiveResize=0;verticalAlign=middle;arcSize=6;fontStyle=0;autosize=0;points=[];absoluteArcSize=1;shadow=0;strokeColor=#6c8ebf;fillColor=#dae8fc;fontFamily=Helvetica;fontSize=11;gradientColor=#E6E6E6;fontColor=default;" parent="mLqDMv6sqJuY5Jmg05aT-1" vertex="1">
          <mxGeometry x="165" y="160" width="155" height="20" as="geometry">
            <mxRectangle x="-98" y="-1230" width="99" height="26" as="alternateBounds" />
          </mxGeometry>
        </mxCell>
        <mxCell id="mLqDMv6sqJuY5Jmg05aT-34" value="⍺" style="rounded=1;whiteSpace=wrap;html=1;sketch=0;points=[[0,0.5,0,0,0],[1,0.5,0,0,0]];arcSize=50;fontFamily=Helvetica;fontSize=11;fontColor=default;" parent="mLqDMv6sqJuY5Jmg05aT-33" vertex="1">
          <mxGeometry x="145" y="3.75" width="20" height="12.5" as="geometry" />
        </mxCell>
        <mxCell id="mLqDMv6sqJuY5Jmg05aT-35" value="⍺" style="rounded=1;whiteSpace=wrap;html=1;sketch=0;points=[[0,0.5,0,0,0],[1,0.5,0,0,0]];arcSize=50;fontFamily=Helvetica;fontSize=11;fontColor=default;" parent="mLqDMv6sqJuY5Jmg05aT-33" vertex="1">
          <mxGeometry x="-10" y="3.75" width="20" height="12.5" as="geometry" />
        </mxCell>
      </root>
    </mxGraphModel>
  </diagram>
  <diagram name="Generate Includes" id="nXb3XiH8_uRemHv5hyi1">
    <mxGraphModel dx="1147" dy="1678" grid="1" gridSize="10" guides="1" tooltips="1" connect="1" arrows="1" fold="1" page="1" pageScale="1" pageWidth="850" pageHeight="1100" math="0" shadow="0">
      <root>
        <mxCell id="9XiRh7M0ay5x89FJPMIx-0" />
        <mxCell id="9XiRh7M0ay5x89FJPMIx-1" parent="9XiRh7M0ay5x89FJPMIx-0" />
        <mxCell id="9XiRh7M0ay5x89FJPMIx-2" style="edgeStyle=orthogonalEdgeStyle;rounded=1;orthogonalLoop=1;jettySize=auto;html=1;exitX=1;exitY=0.5;exitDx=0;exitDy=0;exitPerimeter=0;strokeWidth=2;curved=0;" parent="9XiRh7M0ay5x89FJPMIx-1" source="9XiRh7M0ay5x89FJPMIx-3" target="9XiRh7M0ay5x89FJPMIx-9" edge="1">
          <mxGeometry relative="1" as="geometry" />
        </mxCell>
        <mxCell id="9XiRh7M0ay5x89FJPMIx-3" value="" style="rhombus;whiteSpace=wrap;html=1;rounded=1;fontStyle=1;glass=0;sketch=0;fontSize=12;points=[[0,0.5,0,0,0],[0.5,0,0,0,0],[0.5,1,0,0,0],[1,0.5,0,0,0]];shadow=1;fontFamily=Helvetica;fontColor=default;" parent="9XiRh7M0ay5x89FJPMIx-1" vertex="1">
          <mxGeometry x="40" y="200" width="40" height="40" as="geometry" />
        </mxCell>
        <mxCell id="9XiRh7M0ay5x89FJPMIx-4" value="Transpile" style="rounded=1;whiteSpace=wrap;html=1;sketch=0;container=1;recursiveResize=0;verticalAlign=top;arcSize=6;fontStyle=1;autosize=0;points=[];absoluteArcSize=1;shadow=1;strokeColor=#001DBC;fillColor=#0050ef;fontColor=#ffffff;fontFamily=Helvetica;fontSize=11;" parent="9XiRh7M0ay5x89FJPMIx-1" vertex="1">
          <mxGeometry x="420" y="40" width="130" height="210" as="geometry">
            <mxRectangle x="-98" y="-1230" width="99" height="26" as="alternateBounds" />
          </mxGeometry>
        </mxCell>
        <mxCell id="9XiRh7M0ay5x89FJPMIx-5" value="ohmfn" style="rounded=1;whiteSpace=wrap;html=1;sketch=0;points=[[0,0.5,0,0,0],[1,0.5,0,0,0]];arcSize=50;fontFamily=Helvetica;fontSize=11;fontColor=default;fontStyle=0" parent="9XiRh7M0ay5x89FJPMIx-4" vertex="1">
          <mxGeometry x="-17" y="57.5" width="66" height="25" as="geometry" />
        </mxCell>
        <mxCell id="9XiRh7M0ay5x89FJPMIx-6" value="" style="rounded=1;whiteSpace=wrap;html=1;sketch=0;points=[[0,0.5,0,0,0],[1,0.5,0,0,0]];fillColor=#1ba1e2;fontColor=#ffffff;strokeColor=#006EAF;arcSize=50;fontFamily=Helvetica;fontSize=11;" parent="9XiRh7M0ay5x89FJPMIx-4" vertex="1">
          <mxGeometry x="110" y="27.5" width="35.25" height="25" as="geometry" />
        </mxCell>
        <mxCell id="9XiRh7M0ay5x89FJPMIx-7" value="✗" style="rounded=1;whiteSpace=wrap;html=1;sketch=0;points=[[0,0.5,0,0,0],[1,0.5,0,0,0]];fillColor=#1ba1e2;fontColor=#ffffff;strokeColor=#006EAF;arcSize=50;fontFamily=Helvetica;fontSize=11;" parent="9XiRh7M0ay5x89FJPMIx-4" vertex="1">
          <mxGeometry x="110" y="70" width="35.25" height="25" as="geometry" />
        </mxCell>
        <mxCell id="9XiRh7M0ay5x89FJPMIx-8" value="rwrfn" style="rounded=1;whiteSpace=wrap;html=1;sketch=0;points=[[0,0.5,0,0,0],[1,0.5,0,0,0]];arcSize=50;fontFamily=Helvetica;fontSize=11;fontColor=default;" parent="9XiRh7M0ay5x89FJPMIx-4" vertex="1">
          <mxGeometry x="-17" y="90" width="66" height="25" as="geometry" />
        </mxCell>
        <mxCell id="9XiRh7M0ay5x89FJPMIx-9" value="input" style="rounded=1;whiteSpace=wrap;html=1;sketch=0;points=[[0,0.5,0,0,0],[1,0.5,0,0,0]];arcSize=50;fontFamily=Helvetica;fontSize=11;fontColor=default;" parent="9XiRh7M0ay5x89FJPMIx-4" vertex="1">
          <mxGeometry x="-17" y="165" width="66" height="25" as="geometry" />
        </mxCell>
        <mxCell id="9XiRh7M0ay5x89FJPMIx-10" value="grammar name" style="rounded=1;whiteSpace=wrap;html=1;sketch=0;points=[[0,0.5,0,0,0],[1,0.5,0,0,0]];arcSize=50;fontFamily=Helvetica;fontSize=11;fontColor=default;" parent="9XiRh7M0ay5x89FJPMIx-4" vertex="1">
          <mxGeometry x="-16" y="27.5" width="66" height="25" as="geometry" />
        </mxCell>
        <mxCell id="9XiRh7M0ay5x89FJPMIx-11" value="rwrsupportfn" style="rounded=1;whiteSpace=wrap;html=1;sketch=0;points=[[0,0.5,0,0,0],[1,0.5,0,0,0]];arcSize=50;fontFamily=Helvetica;fontSize=11;fontColor=default;" parent="9XiRh7M0ay5x89FJPMIx-4" vertex="1">
          <mxGeometry x="-17" y="120" width="66" height="25" as="geometry" />
        </mxCell>
        <mxCell id="9XiRh7M0ay5x89FJPMIx-12" value="✗" style="rhombus;whiteSpace=wrap;html=1;rounded=1;fillColor=#0050ef;fontColor=#ffffff;strokeColor=#001DBC;fontStyle=1;glass=0;sketch=0;fontSize=12;points=[[0,0.5,0,0,0],[0.5,0,0,0,0],[0.5,1,0,0,0],[1,0.5,0,0,0]];shadow=1;fontFamily=Helvetica;" parent="9XiRh7M0ay5x89FJPMIx-1" vertex="1">
          <mxGeometry x="1200" y="200" width="40" height="40" as="geometry" />
        </mxCell>
        <mxCell id="9XiRh7M0ay5x89FJPMIx-13" style="edgeStyle=orthogonalEdgeStyle;rounded=1;orthogonalLoop=1;jettySize=auto;html=1;exitX=1;exitY=0.5;exitDx=0;exitDy=0;exitPerimeter=0;entryX=0;entryY=0.5;entryDx=0;entryDy=0;entryPerimeter=0;curved=0;opacity=30;" parent="9XiRh7M0ay5x89FJPMIx-1" source="9XiRh7M0ay5x89FJPMIx-7" target="9XiRh7M0ay5x89FJPMIx-12" edge="1">
          <mxGeometry relative="1" as="geometry">
            <Array as="points">
              <mxPoint x="590" y="123" />
              <mxPoint x="590" y="220" />
            </Array>
          </mxGeometry>
        </mxCell>
        <mxCell id="9XiRh7M0ay5x89FJPMIx-14" value="&#39;genincs.rwr&#39;" style="rounded=1;whiteSpace=wrap;html=1;sketch=0;container=1;recursiveResize=0;verticalAlign=middle;arcSize=6;fontStyle=0;autosize=0;points=[];absoluteArcSize=1;shadow=0;strokeColor=#6c8ebf;fillColor=#dae8fc;fontFamily=Helvetica;fontSize=11;gradientColor=#E6E6E6;fontColor=default;" parent="9XiRh7M0ay5x89FJPMIx-1" vertex="1">
          <mxGeometry x="165" y="120" width="155" height="20" as="geometry">
            <mxRectangle x="-98" y="-1230" width="99" height="26" as="alternateBounds" />
          </mxGeometry>
        </mxCell>
        <mxCell id="9XiRh7M0ay5x89FJPMIx-15" value="⍺" style="rounded=1;whiteSpace=wrap;html=1;sketch=0;points=[[0,0.5,0,0,0],[1,0.5,0,0,0]];arcSize=50;fontFamily=Helvetica;fontSize=11;fontColor=default;" parent="9XiRh7M0ay5x89FJPMIx-14" vertex="1">
          <mxGeometry x="145" y="3.75" width="20" height="12.5" as="geometry" />
        </mxCell>
        <mxCell id="9XiRh7M0ay5x89FJPMIx-16" value="⍺" style="rounded=1;whiteSpace=wrap;html=1;sketch=0;points=[[0,0.5,0,0,0],[1,0.5,0,0,0]];arcSize=50;fontFamily=Helvetica;fontSize=11;fontColor=default;" parent="9XiRh7M0ay5x89FJPMIx-14" vertex="1">
          <mxGeometry x="-10" y="3.75" width="20" height="12.5" as="geometry" />
        </mxCell>
        <mxCell id="9XiRh7M0ay5x89FJPMIx-17" value="&#39;codesnippets.ohm&#39;" style="rounded=1;whiteSpace=wrap;html=1;sketch=0;container=1;recursiveResize=0;verticalAlign=middle;arcSize=6;fontStyle=0;autosize=0;points=[];absoluteArcSize=1;shadow=0;strokeColor=#6c8ebf;fillColor=#dae8fc;fontFamily=Helvetica;fontSize=11;gradientColor=#E6E6E6;fontColor=default;" parent="9XiRh7M0ay5x89FJPMIx-1" vertex="1">
          <mxGeometry x="165" y="80" width="155" height="20" as="geometry">
            <mxRectangle x="-98" y="-1230" width="99" height="26" as="alternateBounds" />
          </mxGeometry>
        </mxCell>
        <mxCell id="9XiRh7M0ay5x89FJPMIx-18" value="⍺" style="rounded=1;whiteSpace=wrap;html=1;sketch=0;points=[[0,0.5,0,0,0],[1,0.5,0,0,0]];arcSize=50;fontFamily=Helvetica;fontSize=11;fontColor=default;" parent="9XiRh7M0ay5x89FJPMIx-17" vertex="1">
          <mxGeometry x="145" y="3.75" width="20" height="12.5" as="geometry" />
        </mxCell>
        <mxCell id="9XiRh7M0ay5x89FJPMIx-19" value="⍺" style="rounded=1;whiteSpace=wrap;html=1;sketch=0;points=[[0,0.5,0,0,0],[1,0.5,0,0,0]];arcSize=50;fontFamily=Helvetica;fontSize=11;fontColor=default;" parent="9XiRh7M0ay5x89FJPMIx-17" vertex="1">
          <mxGeometry x="-10" y="3.75" width="20" height="12.5" as="geometry" />
        </mxCell>
        <mxCell id="9XiRh7M0ay5x89FJPMIx-20" value="&#39;codesnippets&#39;" style="rounded=1;whiteSpace=wrap;html=1;sketch=0;container=1;recursiveResize=0;verticalAlign=middle;arcSize=6;fontStyle=0;autosize=0;points=[];absoluteArcSize=1;shadow=0;strokeColor=#6c8ebf;fillColor=#dae8fc;fontFamily=Helvetica;fontSize=11;gradientColor=#E6E6E6;fontColor=default;" parent="9XiRh7M0ay5x89FJPMIx-1" vertex="1">
          <mxGeometry x="165" y="40" width="155" height="20" as="geometry">
            <mxRectangle x="-98" y="-1230" width="99" height="26" as="alternateBounds" />
          </mxGeometry>
        </mxCell>
        <mxCell id="9XiRh7M0ay5x89FJPMIx-21" value="⍺" style="rounded=1;whiteSpace=wrap;html=1;sketch=0;points=[[0,0.5,0,0,0],[1,0.5,0,0,0]];arcSize=50;fontFamily=Helvetica;fontSize=11;fontColor=default;" parent="9XiRh7M0ay5x89FJPMIx-20" vertex="1">
          <mxGeometry x="145" y="3.75" width="20" height="12.5" as="geometry" />
        </mxCell>
        <mxCell id="9XiRh7M0ay5x89FJPMIx-22" value="⍺" style="rounded=1;whiteSpace=wrap;html=1;sketch=0;points=[[0,0.5,0,0,0],[1,0.5,0,0,0]];arcSize=50;fontFamily=Helvetica;fontSize=11;fontColor=default;" parent="9XiRh7M0ay5x89FJPMIx-20" vertex="1">
          <mxGeometry x="-10" y="3.75" width="20" height="12.5" as="geometry" />
        </mxCell>
        <mxCell id="9XiRh7M0ay5x89FJPMIx-23" style="edgeStyle=orthogonalEdgeStyle;rounded=1;orthogonalLoop=1;jettySize=auto;html=1;exitX=1;exitY=0.5;exitDx=0;exitDy=0;exitPerimeter=0;entryX=0;entryY=0.5;entryDx=0;entryDy=0;entryPerimeter=0;strokeWidth=2;curved=0;" parent="9XiRh7M0ay5x89FJPMIx-1" source="9XiRh7M0ay5x89FJPMIx-34" target="9XiRh7M0ay5x89FJPMIx-11" edge="1">
          <mxGeometry relative="1" as="geometry" />
        </mxCell>
        <mxCell id="9XiRh7M0ay5x89FJPMIx-24" style="edgeStyle=orthogonalEdgeStyle;rounded=1;orthogonalLoop=1;jettySize=auto;html=1;exitX=1;exitY=0.5;exitDx=0;exitDy=0;exitPerimeter=0;entryX=0;entryY=0.5;entryDx=0;entryDy=0;entryPerimeter=0;strokeWidth=2;curved=0;" parent="9XiRh7M0ay5x89FJPMIx-1" source="9XiRh7M0ay5x89FJPMIx-15" target="9XiRh7M0ay5x89FJPMIx-8" edge="1">
          <mxGeometry relative="1" as="geometry" />
        </mxCell>
        <mxCell id="9XiRh7M0ay5x89FJPMIx-25" style="edgeStyle=orthogonalEdgeStyle;rounded=1;orthogonalLoop=1;jettySize=auto;html=1;exitX=1;exitY=0.5;exitDx=0;exitDy=0;exitPerimeter=0;entryX=0;entryY=0.5;entryDx=0;entryDy=0;entryPerimeter=0;strokeWidth=2;curved=0;" parent="9XiRh7M0ay5x89FJPMIx-1" source="9XiRh7M0ay5x89FJPMIx-18" target="9XiRh7M0ay5x89FJPMIx-5" edge="1">
          <mxGeometry relative="1" as="geometry" />
        </mxCell>
        <mxCell id="9XiRh7M0ay5x89FJPMIx-26" style="edgeStyle=orthogonalEdgeStyle;rounded=1;orthogonalLoop=1;jettySize=auto;html=1;exitX=1;exitY=0.5;exitDx=0;exitDy=0;exitPerimeter=0;entryX=0;entryY=0.5;entryDx=0;entryDy=0;entryPerimeter=0;strokeWidth=2;curved=0;" parent="9XiRh7M0ay5x89FJPMIx-1" source="9XiRh7M0ay5x89FJPMIx-21" target="9XiRh7M0ay5x89FJPMIx-10" edge="1">
          <mxGeometry relative="1" as="geometry" />
        </mxCell>
        <mxCell id="9XiRh7M0ay5x89FJPMIx-27" style="edgeStyle=orthogonalEdgeStyle;rounded=1;orthogonalLoop=1;jettySize=auto;html=1;exitX=1;exitY=0.5;exitDx=0;exitDy=0;exitPerimeter=0;entryX=0;entryY=0.5;entryDx=0;entryDy=0;entryPerimeter=0;curved=0;opacity=30;" parent="9XiRh7M0ay5x89FJPMIx-1" source="9XiRh7M0ay5x89FJPMIx-3" target="9XiRh7M0ay5x89FJPMIx-35" edge="1">
          <mxGeometry relative="1" as="geometry">
            <Array as="points">
              <mxPoint x="130" y="220" />
              <mxPoint x="130" y="170" />
              <mxPoint x="155" y="170" />
            </Array>
          </mxGeometry>
        </mxCell>
        <mxCell id="9XiRh7M0ay5x89FJPMIx-28" style="edgeStyle=orthogonalEdgeStyle;rounded=1;orthogonalLoop=1;jettySize=auto;html=1;entryX=0;entryY=0.5;entryDx=0;entryDy=0;entryPerimeter=0;curved=0;opacity=30;" parent="9XiRh7M0ay5x89FJPMIx-1" source="9XiRh7M0ay5x89FJPMIx-3" target="9XiRh7M0ay5x89FJPMIx-16" edge="1">
          <mxGeometry relative="1" as="geometry">
            <Array as="points">
              <mxPoint x="130" y="220" />
              <mxPoint x="130" y="130" />
            </Array>
          </mxGeometry>
        </mxCell>
        <mxCell id="9XiRh7M0ay5x89FJPMIx-29" style="edgeStyle=orthogonalEdgeStyle;rounded=1;orthogonalLoop=1;jettySize=auto;html=1;exitX=1;exitY=0.5;exitDx=0;exitDy=0;exitPerimeter=0;entryX=0;entryY=0.5;entryDx=0;entryDy=0;entryPerimeter=0;curved=0;opacity=30;" parent="9XiRh7M0ay5x89FJPMIx-1" source="9XiRh7M0ay5x89FJPMIx-3" target="9XiRh7M0ay5x89FJPMIx-19" edge="1">
          <mxGeometry relative="1" as="geometry" />
        </mxCell>
        <mxCell id="9XiRh7M0ay5x89FJPMIx-30" style="edgeStyle=orthogonalEdgeStyle;rounded=1;orthogonalLoop=1;jettySize=auto;html=1;entryX=0;entryY=0.5;entryDx=0;entryDy=0;entryPerimeter=0;curved=0;opacity=30;" parent="9XiRh7M0ay5x89FJPMIx-1" source="9XiRh7M0ay5x89FJPMIx-3" target="9XiRh7M0ay5x89FJPMIx-22" edge="1">
          <mxGeometry relative="1" as="geometry" />
        </mxCell>
        <mxCell id="9XiRh7M0ay5x89FJPMIx-31" style="edgeStyle=orthogonalEdgeStyle;rounded=1;orthogonalLoop=1;jettySize=auto;html=1;entryX=0;entryY=0.5;entryDx=0;entryDy=0;entryPerimeter=0;strokeWidth=2;curved=0;" parent="9XiRh7M0ay5x89FJPMIx-1" source="9XiRh7M0ay5x89FJPMIx-6" target="-2SRgvuup4rs0Tb0VmDg-4" edge="1">
          <mxGeometry relative="1" as="geometry">
            <mxPoint x="633.25" y="2.5" as="targetPoint" />
          </mxGeometry>
        </mxCell>
        <mxCell id="9XiRh7M0ay5x89FJPMIx-32" value="" style="rhombus;whiteSpace=wrap;html=1;rounded=1;fontStyle=1;glass=0;sketch=0;fontSize=12;points=[[0,0.5,0,0,0],[0.5,0,0,0,0],[0.5,1,0,0,0],[1,0.5,0,0,0]];shadow=1;fillColor=#0050ef;fontColor=#ffffff;strokeColor=#001DBC;fontFamily=Helvetica;" parent="9XiRh7M0ay5x89FJPMIx-1" vertex="1">
          <mxGeometry x="1210" y="-81.25" width="40" height="40" as="geometry" />
        </mxCell>
        <mxCell id="9XiRh7M0ay5x89FJPMIx-33" value="&#39;odinsupport.js&#39;" style="rounded=1;whiteSpace=wrap;html=1;sketch=0;container=1;recursiveResize=0;verticalAlign=middle;arcSize=6;fontStyle=0;autosize=0;points=[];absoluteArcSize=1;shadow=0;strokeColor=#6c8ebf;fillColor=#dae8fc;fontFamily=Helvetica;fontSize=11;gradientColor=#E6E6E6;fontColor=default;" parent="9XiRh7M0ay5x89FJPMIx-1" vertex="1">
          <mxGeometry x="165" y="160" width="155" height="20" as="geometry">
            <mxRectangle x="-98" y="-1230" width="99" height="26" as="alternateBounds" />
          </mxGeometry>
        </mxCell>
        <mxCell id="9XiRh7M0ay5x89FJPMIx-34" value="⍺" style="rounded=1;whiteSpace=wrap;html=1;sketch=0;points=[[0,0.5,0,0,0],[1,0.5,0,0,0]];arcSize=50;fontFamily=Helvetica;fontSize=11;fontColor=default;" parent="9XiRh7M0ay5x89FJPMIx-33" vertex="1">
          <mxGeometry x="145" y="3.75" width="20" height="12.5" as="geometry" />
        </mxCell>
        <mxCell id="9XiRh7M0ay5x89FJPMIx-35" value="⍺" style="rounded=1;whiteSpace=wrap;html=1;sketch=0;points=[[0,0.5,0,0,0],[1,0.5,0,0,0]];arcSize=50;fontFamily=Helvetica;fontSize=11;fontColor=default;" parent="9XiRh7M0ay5x89FJPMIx-33" vertex="1">
          <mxGeometry x="-10" y="3.75" width="20" height="12.5" as="geometry" />
        </mxCell>
        <mxCell id="-2SRgvuup4rs0Tb0VmDg-0" value="String Concatenate" style="rounded=1;whiteSpace=wrap;html=1;sketch=0;container=1;recursiveResize=0;verticalAlign=top;arcSize=6;fontStyle=1;autosize=0;points=[];absoluteArcSize=1;shadow=1;strokeColor=#001DBC;fillColor=#0050ef;fontColor=#ffffff;fontFamily=Helvetica;fontSize=11;" parent="9XiRh7M0ay5x89FJPMIx-1" vertex="1">
          <mxGeometry x="722.5" y="-70" width="130" height="100" as="geometry">
            <mxRectangle x="-98" y="-1230" width="99" height="26" as="alternateBounds" />
          </mxGeometry>
        </mxCell>
        <mxCell id="-2SRgvuup4rs0Tb0VmDg-1" value="1" style="rounded=1;whiteSpace=wrap;html=1;sketch=0;points=[[0,0.5,0,0,0],[1,0.5,0,0,0]];arcSize=50;fontFamily=Helvetica;fontSize=11;fontColor=default;" parent="-2SRgvuup4rs0Tb0VmDg-0" vertex="1">
          <mxGeometry x="-16.75" y="27.5" width="66" height="25" as="geometry" />
        </mxCell>
        <mxCell id="-2SRgvuup4rs0Tb0VmDg-2" value="" style="rounded=1;whiteSpace=wrap;html=1;sketch=0;points=[[0,0.5,0,0,0],[1,0.5,0,0,0]];fillColor=#1ba1e2;fontColor=#ffffff;strokeColor=#006EAF;arcSize=50;fontFamily=Helvetica;fontSize=11;" parent="-2SRgvuup4rs0Tb0VmDg-0" vertex="1">
          <mxGeometry x="110" y="27.5" width="35.25" height="22.5" as="geometry" />
        </mxCell>
        <mxCell id="-2SRgvuup4rs0Tb0VmDg-3" value="✗" style="rounded=1;whiteSpace=wrap;html=1;sketch=0;points=[[0,0.5,0,0,0],[1,0.5,0,0,0]];fillColor=#1ba1e2;fontColor=#ffffff;strokeColor=#006EAF;arcSize=50;fontFamily=Helvetica;fontSize=11;textOpacity=30;opacity=30;" parent="-2SRgvuup4rs0Tb0VmDg-0" vertex="1">
          <mxGeometry x="110" y="60" width="35.25" height="25" as="geometry" />
        </mxCell>
        <mxCell id="-2SRgvuup4rs0Tb0VmDg-4" value="2" style="rounded=1;whiteSpace=wrap;html=1;sketch=0;points=[[0,0.5,0,0,0],[1,0.5,0,0,0]];arcSize=50;fontFamily=Helvetica;fontSize=11;fontColor=default;" parent="-2SRgvuup4rs0Tb0VmDg-0" vertex="1">
          <mxGeometry x="-16.75" y="60" width="66" height="25" as="geometry" />
        </mxCell>
        <mxCell id="-2SRgvuup4rs0Tb0VmDg-5" style="edgeStyle=orthogonalEdgeStyle;shape=connector;curved=0;rounded=1;orthogonalLoop=1;jettySize=auto;html=1;exitX=1;exitY=0.5;exitDx=0;exitDy=0;exitPerimeter=0;entryX=0;entryY=0.5;entryDx=0;entryDy=0;entryPerimeter=0;labelBackgroundColor=default;strokeColor=default;strokeWidth=2;align=center;verticalAlign=middle;fontFamily=Helvetica;fontSize=11;fontColor=default;endArrow=classic;" parent="9XiRh7M0ay5x89FJPMIx-1" source="-2SRgvuup4rs0Tb0VmDg-8" target="-2SRgvuup4rs0Tb0VmDg-1" edge="1">
          <mxGeometry relative="1" as="geometry">
            <mxPoint x="462.5" y="-90" as="targetPoint" />
          </mxGeometry>
        </mxCell>
        <mxCell id="-2SRgvuup4rs0Tb0VmDg-6" value="&#39;&lt;br&gt;generated_components_to_include_in_project :: proc (leaves: ^[dynamic]zd.Leaf_Template) {&lt;br&gt;&#39;" style="rounded=1;whiteSpace=wrap;html=1;sketch=0;container=1;recursiveResize=0;verticalAlign=middle;arcSize=6;fontStyle=0;autosize=0;points=[];absoluteArcSize=1;shadow=0;strokeColor=#6c8ebf;fillColor=#dae8fc;fontFamily=Helvetica;fontSize=11;gradientColor=#E6E6E6;fontColor=default;" parent="9XiRh7M0ay5x89FJPMIx-1" vertex="1">
          <mxGeometry x="220" y="-100" width="262.5" height="70" as="geometry">
            <mxRectangle x="-98" y="-1230" width="99" height="26" as="alternateBounds" />
          </mxGeometry>
        </mxCell>
        <mxCell id="-2SRgvuup4rs0Tb0VmDg-7" value="⍺" style="rounded=1;whiteSpace=wrap;html=1;sketch=0;points=[[0,0.5,0,0,0],[1,0.5,0,0,0]];arcSize=50;fontFamily=Helvetica;fontSize=11;fontColor=default;" parent="-2SRgvuup4rs0Tb0VmDg-6" vertex="1">
          <mxGeometry x="-10" y="3.75" width="20" height="12.5" as="geometry" />
        </mxCell>
        <mxCell id="-2SRgvuup4rs0Tb0VmDg-8" value="⍺" style="rounded=1;whiteSpace=wrap;html=1;sketch=0;points=[[0,0.5,0,0,0],[1,0.5,0,0,0]];arcSize=50;fontFamily=Helvetica;fontSize=11;fontColor=default;" parent="-2SRgvuup4rs0Tb0VmDg-6" vertex="1">
          <mxGeometry x="252.5" y="3.75" width="20" height="12.5" as="geometry" />
        </mxCell>
        <mxCell id="-2SRgvuup4rs0Tb0VmDg-9" value="String Concatenate" style="rounded=1;whiteSpace=wrap;html=1;sketch=0;container=1;recursiveResize=0;verticalAlign=top;arcSize=6;fontStyle=1;autosize=0;points=[];absoluteArcSize=1;shadow=1;strokeColor=#001DBC;fillColor=#0050ef;fontColor=#ffffff;fontFamily=Helvetica;fontSize=11;" parent="9XiRh7M0ay5x89FJPMIx-1" vertex="1">
          <mxGeometry x="952.5" y="-100" width="130" height="100" as="geometry">
            <mxRectangle x="-98" y="-1230" width="99" height="26" as="alternateBounds" />
          </mxGeometry>
        </mxCell>
        <mxCell id="-2SRgvuup4rs0Tb0VmDg-10" value="2" style="rounded=1;whiteSpace=wrap;html=1;sketch=0;points=[[0,0.5,0,0,0],[1,0.5,0,0,0]];arcSize=50;fontFamily=Helvetica;fontSize=11;fontColor=default;" parent="-2SRgvuup4rs0Tb0VmDg-9" vertex="1">
          <mxGeometry x="-16.75" y="27.5" width="66" height="25" as="geometry" />
        </mxCell>
        <mxCell id="-2SRgvuup4rs0Tb0VmDg-11" value="" style="rounded=1;whiteSpace=wrap;html=1;sketch=0;points=[[0,0.5,0,0,0],[1,0.5,0,0,0]];fillColor=#1ba1e2;fontColor=#ffffff;strokeColor=#006EAF;arcSize=50;fontFamily=Helvetica;fontSize=11;" parent="-2SRgvuup4rs0Tb0VmDg-9" vertex="1">
          <mxGeometry x="110" y="27.5" width="35.25" height="22.5" as="geometry" />
        </mxCell>
        <mxCell id="-2SRgvuup4rs0Tb0VmDg-12" value="✗" style="rounded=1;whiteSpace=wrap;html=1;sketch=0;points=[[0,0.5,0,0,0],[1,0.5,0,0,0]];fillColor=#1ba1e2;fontColor=#ffffff;strokeColor=#006EAF;arcSize=50;fontFamily=Helvetica;fontSize=11;textOpacity=30;opacity=30;" parent="-2SRgvuup4rs0Tb0VmDg-9" vertex="1">
          <mxGeometry x="110" y="60" width="35.25" height="25" as="geometry" />
        </mxCell>
        <mxCell id="-2SRgvuup4rs0Tb0VmDg-13" value="1" style="rounded=1;whiteSpace=wrap;html=1;sketch=0;points=[[0,0.5,0,0,0],[1,0.5,0,0,0]];arcSize=50;fontFamily=Helvetica;fontSize=11;fontColor=default;" parent="-2SRgvuup4rs0Tb0VmDg-9" vertex="1">
          <mxGeometry x="-16.75" y="60" width="66" height="25" as="geometry" />
        </mxCell>
        <mxCell id="-2SRgvuup4rs0Tb0VmDg-14" style="edgeStyle=orthogonalEdgeStyle;shape=connector;curved=0;rounded=1;orthogonalLoop=1;jettySize=auto;html=1;exitX=1;exitY=0.5;exitDx=0;exitDy=0;exitPerimeter=0;labelBackgroundColor=default;strokeColor=default;strokeWidth=2;align=center;verticalAlign=middle;fontFamily=Helvetica;fontSize=11;fontColor=default;endArrow=classic;" parent="9XiRh7M0ay5x89FJPMIx-1" source="-2SRgvuup4rs0Tb0VmDg-2" target="-2SRgvuup4rs0Tb0VmDg-13" edge="1">
          <mxGeometry relative="1" as="geometry" />
        </mxCell>
        <mxCell id="-2SRgvuup4rs0Tb0VmDg-16" value="&#39;&lt;br&gt;}&lt;br&gt;&#39;" style="rounded=1;whiteSpace=wrap;html=1;sketch=0;container=1;recursiveResize=0;verticalAlign=middle;arcSize=6;fontStyle=0;autosize=0;points=[];absoluteArcSize=1;shadow=0;strokeColor=#6c8ebf;fillColor=#dae8fc;fontFamily=Helvetica;fontSize=11;gradientColor=#E6E6E6;fontColor=default;" parent="9XiRh7M0ay5x89FJPMIx-1" vertex="1">
          <mxGeometry x="710" y="-160" width="155" height="40" as="geometry">
            <mxRectangle x="-98" y="-1230" width="99" height="26" as="alternateBounds" />
          </mxGeometry>
        </mxCell>
        <mxCell id="-2SRgvuup4rs0Tb0VmDg-17" value="⍺" style="rounded=1;whiteSpace=wrap;html=1;sketch=0;points=[[0,0.5,0,0,0],[1,0.5,0,0,0]];arcSize=50;fontFamily=Helvetica;fontSize=11;fontColor=default;" parent="-2SRgvuup4rs0Tb0VmDg-16" vertex="1">
          <mxGeometry x="145" y="3.75" width="20" height="12.5" as="geometry" />
        </mxCell>
        <mxCell id="-2SRgvuup4rs0Tb0VmDg-18" value="⍺" style="rounded=1;whiteSpace=wrap;html=1;sketch=0;points=[[0,0.5,0,0,0],[1,0.5,0,0,0]];arcSize=50;fontFamily=Helvetica;fontSize=11;fontColor=default;" parent="-2SRgvuup4rs0Tb0VmDg-16" vertex="1">
          <mxGeometry x="-10" y="3.75" width="20" height="12.5" as="geometry" />
        </mxCell>
        <mxCell id="-2SRgvuup4rs0Tb0VmDg-19" style="edgeStyle=orthogonalEdgeStyle;shape=connector;curved=0;rounded=1;orthogonalLoop=1;jettySize=auto;html=1;exitX=1;exitY=0.5;exitDx=0;exitDy=0;exitPerimeter=0;entryX=0;entryY=0.5;entryDx=0;entryDy=0;entryPerimeter=0;labelBackgroundColor=default;strokeColor=default;strokeWidth=2;align=center;verticalAlign=middle;fontFamily=Helvetica;fontSize=11;fontColor=default;endArrow=classic;" parent="9XiRh7M0ay5x89FJPMIx-1" source="-2SRgvuup4rs0Tb0VmDg-17" target="-2SRgvuup4rs0Tb0VmDg-10" edge="1">
          <mxGeometry relative="1" as="geometry" />
        </mxCell>
        <mxCell id="-2SRgvuup4rs0Tb0VmDg-20" style="edgeStyle=orthogonalEdgeStyle;rounded=1;orthogonalLoop=1;jettySize=auto;html=1;exitX=1;exitY=0.5;exitDx=0;exitDy=0;exitPerimeter=0;entryX=0;entryY=0.5;entryDx=0;entryDy=0;entryPerimeter=0;strokeWidth=2;curved=0;" parent="9XiRh7M0ay5x89FJPMIx-1" source="-2SRgvuup4rs0Tb0VmDg-11" target="9XiRh7M0ay5x89FJPMIx-32" edge="1">
          <mxGeometry relative="1" as="geometry" />
        </mxCell>
        <mxCell id="-2SRgvuup4rs0Tb0VmDg-21" style="edgeStyle=orthogonalEdgeStyle;rounded=1;orthogonalLoop=1;jettySize=auto;html=1;exitX=1;exitY=0.5;exitDx=0;exitDy=0;exitPerimeter=0;entryX=0;entryY=0.5;entryDx=0;entryDy=0;entryPerimeter=0;strokeWidth=1;curved=0;opacity=30;" parent="9XiRh7M0ay5x89FJPMIx-1" source="-2SRgvuup4rs0Tb0VmDg-12" target="9XiRh7M0ay5x89FJPMIx-12" edge="1">
          <mxGeometry relative="1" as="geometry" />
        </mxCell>
        <mxCell id="-2SRgvuup4rs0Tb0VmDg-22" style="edgeStyle=orthogonalEdgeStyle;rounded=1;orthogonalLoop=1;jettySize=auto;html=1;exitX=1;exitY=0.5;exitDx=0;exitDy=0;exitPerimeter=0;opacity=30;strokeColor=default;strokeWidth=1;align=center;verticalAlign=middle;fontFamily=Helvetica;fontSize=11;fontColor=default;labelBackgroundColor=default;endArrow=classic;entryX=0;entryY=0.5;entryDx=0;entryDy=0;entryPerimeter=0;" parent="9XiRh7M0ay5x89FJPMIx-1" source="-2SRgvuup4rs0Tb0VmDg-3" target="9XiRh7M0ay5x89FJPMIx-12" edge="1">
          <mxGeometry relative="1" as="geometry">
            <Array as="points">
              <mxPoint x="900" y="3" />
              <mxPoint x="900" y="220" />
            </Array>
          </mxGeometry>
        </mxCell>
        <mxCell id="-2SRgvuup4rs0Tb0VmDg-23" style="edgeStyle=orthogonalEdgeStyle;rounded=1;orthogonalLoop=1;jettySize=auto;html=1;exitX=1;exitY=0.5;exitDx=0;exitDy=0;exitPerimeter=0;entryX=0;entryY=0.5;entryDx=0;entryDy=0;entryPerimeter=0;opacity=30;strokeColor=default;strokeWidth=1;align=center;verticalAlign=middle;fontFamily=Helvetica;fontSize=11;fontColor=default;labelBackgroundColor=default;endArrow=classic;" parent="9XiRh7M0ay5x89FJPMIx-1" source="9XiRh7M0ay5x89FJPMIx-3" target="-2SRgvuup4rs0Tb0VmDg-7" edge="1">
          <mxGeometry relative="1" as="geometry">
            <Array as="points">
              <mxPoint x="120" y="220" />
              <mxPoint x="120" y="-90" />
            </Array>
          </mxGeometry>
        </mxCell>
        <mxCell id="-2SRgvuup4rs0Tb0VmDg-24" style="edgeStyle=orthogonalEdgeStyle;rounded=1;orthogonalLoop=1;jettySize=auto;html=1;exitX=1;exitY=0.5;exitDx=0;exitDy=0;exitPerimeter=0;entryX=0;entryY=0.5;entryDx=0;entryDy=0;entryPerimeter=0;opacity=30;strokeColor=default;strokeWidth=1;align=center;verticalAlign=middle;fontFamily=Helvetica;fontSize=11;fontColor=default;labelBackgroundColor=default;endArrow=classic;" parent="9XiRh7M0ay5x89FJPMIx-1" source="9XiRh7M0ay5x89FJPMIx-3" target="-2SRgvuup4rs0Tb0VmDg-18" edge="1">
          <mxGeometry relative="1" as="geometry">
            <Array as="points">
              <mxPoint x="120" y="220" />
              <mxPoint x="120" y="-150" />
            </Array>
          </mxGeometry>
        </mxCell>
      </root>
    </mxGraphModel>
  </diagram>
  <diagram id="VevvFymyQSE6qsCAvpBx" name="Decode">
    <mxGraphModel dx="1147" dy="578" grid="1" gridSize="10" guides="1" tooltips="1" connect="1" arrows="1" fold="1" page="1" pageScale="1" pageWidth="850" pageHeight="1100" math="0" shadow="0">
      <root>
        <mxCell id="0" />
        <mxCell id="1" parent="0" />
        <mxCell id="qU8S8xUgcWMb9iLiis11-1" style="edgeStyle=orthogonalEdgeStyle;rounded=1;orthogonalLoop=1;jettySize=auto;html=1;exitX=1;exitY=0.5;exitDx=0;exitDy=0;exitPerimeter=0;strokeWidth=2;curved=0;" parent="1" source="qU8S8xUgcWMb9iLiis11-2" target="qU8S8xUgcWMb9iLiis11-8" edge="1">
          <mxGeometry relative="1" as="geometry" />
        </mxCell>
        <mxCell id="qU8S8xUgcWMb9iLiis11-2" value="" style="rhombus;whiteSpace=wrap;html=1;rounded=1;fontStyle=1;glass=0;sketch=0;fontSize=12;points=[[0,0.5,0,0,0],[0.5,0,0,0,0],[0.5,1,0,0,0],[1,0.5,0,0,0]];shadow=1;fontFamily=Helvetica;fontColor=default;" parent="1" vertex="1">
          <mxGeometry x="40" y="200" width="40" height="40" as="geometry" />
        </mxCell>
        <mxCell id="qU8S8xUgcWMb9iLiis11-3" value="Transpile" style="rounded=1;whiteSpace=wrap;html=1;sketch=0;container=1;recursiveResize=0;verticalAlign=top;arcSize=6;fontStyle=1;autosize=0;points=[];absoluteArcSize=1;shadow=1;strokeColor=#001DBC;fillColor=#0050ef;fontColor=#ffffff;fontFamily=Helvetica;fontSize=11;" parent="1" vertex="1">
          <mxGeometry x="420" y="40" width="130" height="210" as="geometry">
            <mxRectangle x="-98" y="-1230" width="99" height="26" as="alternateBounds" />
          </mxGeometry>
        </mxCell>
        <mxCell id="qU8S8xUgcWMb9iLiis11-4" value="ohmfn" style="rounded=1;whiteSpace=wrap;html=1;sketch=0;points=[[0,0.5,0,0,0],[1,0.5,0,0,0]];arcSize=50;fontFamily=Helvetica;fontSize=11;fontColor=default;fontStyle=0" parent="qU8S8xUgcWMb9iLiis11-3" vertex="1">
          <mxGeometry x="-17" y="57.5" width="66" height="25" as="geometry" />
        </mxCell>
        <mxCell id="qU8S8xUgcWMb9iLiis11-5" value="" style="rounded=1;whiteSpace=wrap;html=1;sketch=0;points=[[0,0.5,0,0,0],[1,0.5,0,0,0]];fillColor=#1ba1e2;fontColor=#ffffff;strokeColor=#006EAF;arcSize=50;fontFamily=Helvetica;fontSize=11;" parent="qU8S8xUgcWMb9iLiis11-3" vertex="1">
          <mxGeometry x="110" y="27.5" width="35.25" height="25" as="geometry" />
        </mxCell>
        <mxCell id="qU8S8xUgcWMb9iLiis11-6" value="✗" style="rounded=1;whiteSpace=wrap;html=1;sketch=0;points=[[0,0.5,0,0,0],[1,0.5,0,0,0]];fillColor=#1ba1e2;fontColor=#ffffff;strokeColor=#006EAF;arcSize=50;fontFamily=Helvetica;fontSize=11;" parent="qU8S8xUgcWMb9iLiis11-3" vertex="1">
          <mxGeometry x="110" y="70" width="35.25" height="25" as="geometry" />
        </mxCell>
        <mxCell id="qU8S8xUgcWMb9iLiis11-7" value="rwrfn" style="rounded=1;whiteSpace=wrap;html=1;sketch=0;points=[[0,0.5,0,0,0],[1,0.5,0,0,0]];arcSize=50;fontFamily=Helvetica;fontSize=11;fontColor=default;" parent="qU8S8xUgcWMb9iLiis11-3" vertex="1">
          <mxGeometry x="-17" y="90" width="66" height="25" as="geometry" />
        </mxCell>
        <mxCell id="qU8S8xUgcWMb9iLiis11-8" value="input" style="rounded=1;whiteSpace=wrap;html=1;sketch=0;points=[[0,0.5,0,0,0],[1,0.5,0,0,0]];arcSize=50;fontFamily=Helvetica;fontSize=11;fontColor=default;" parent="qU8S8xUgcWMb9iLiis11-3" vertex="1">
          <mxGeometry x="-17" y="165" width="66" height="25" as="geometry" />
        </mxCell>
        <mxCell id="qU8S8xUgcWMb9iLiis11-9" value="grammar name" style="rounded=1;whiteSpace=wrap;html=1;sketch=0;points=[[0,0.5,0,0,0],[1,0.5,0,0,0]];arcSize=50;fontFamily=Helvetica;fontSize=11;fontColor=default;" parent="qU8S8xUgcWMb9iLiis11-3" vertex="1">
          <mxGeometry x="-16" y="27.5" width="66" height="25" as="geometry" />
        </mxCell>
        <mxCell id="qU8S8xUgcWMb9iLiis11-10" value="rwrsupportfn" style="rounded=1;whiteSpace=wrap;html=1;sketch=0;points=[[0,0.5,0,0,0],[1,0.5,0,0,0]];arcSize=50;fontFamily=Helvetica;fontSize=11;fontColor=default;" parent="qU8S8xUgcWMb9iLiis11-3" vertex="1">
          <mxGeometry x="-17" y="120" width="66" height="25" as="geometry" />
        </mxCell>
        <mxCell id="qU8S8xUgcWMb9iLiis11-11" value="✗" style="rhombus;whiteSpace=wrap;html=1;rounded=1;fillColor=#0050ef;fontColor=#ffffff;strokeColor=#001DBC;fontStyle=1;glass=0;sketch=0;fontSize=12;points=[[0,0.5,0,0,0],[0.5,0,0,0,0],[0.5,1,0,0,0],[1,0.5,0,0,0]];shadow=1;fontFamily=Helvetica;" parent="1" vertex="1">
          <mxGeometry x="620" y="160" width="40" height="40" as="geometry" />
        </mxCell>
        <mxCell id="qU8S8xUgcWMb9iLiis11-15" value="&#39;decode.rwr&#39;" style="rounded=1;whiteSpace=wrap;html=1;sketch=0;container=1;recursiveResize=0;verticalAlign=middle;arcSize=6;fontStyle=0;autosize=0;points=[];absoluteArcSize=1;shadow=0;strokeColor=#6c8ebf;fillColor=#dae8fc;fontFamily=Helvetica;fontSize=11;gradientColor=#E6E6E6;fontColor=default;" parent="1" vertex="1">
          <mxGeometry x="165" y="120" width="155" height="20" as="geometry">
            <mxRectangle x="-98" y="-1230" width="99" height="26" as="alternateBounds" />
          </mxGeometry>
        </mxCell>
        <mxCell id="qU8S8xUgcWMb9iLiis11-16" value="⍺" style="rounded=1;whiteSpace=wrap;html=1;sketch=0;points=[[0,0.5,0,0,0],[1,0.5,0,0,0]];arcSize=50;fontFamily=Helvetica;fontSize=11;fontColor=default;" parent="qU8S8xUgcWMb9iLiis11-15" vertex="1">
          <mxGeometry x="145" y="3.75" width="20" height="12.5" as="geometry" />
        </mxCell>
        <mxCell id="qU8S8xUgcWMb9iLiis11-17" value="⍺" style="rounded=1;whiteSpace=wrap;html=1;sketch=0;points=[[0,0.5,0,0,0],[1,0.5,0,0,0]];arcSize=50;fontFamily=Helvetica;fontSize=11;fontColor=default;" parent="qU8S8xUgcWMb9iLiis11-15" vertex="1">
          <mxGeometry x="-10" y="3.75" width="20" height="12.5" as="geometry" />
        </mxCell>
        <mxCell id="qU8S8xUgcWMb9iLiis11-18" value="&#39;decode.ohm&#39;" style="rounded=1;whiteSpace=wrap;html=1;sketch=0;container=1;recursiveResize=0;verticalAlign=middle;arcSize=6;fontStyle=0;autosize=0;points=[];absoluteArcSize=1;shadow=0;strokeColor=#6c8ebf;fillColor=#dae8fc;fontFamily=Helvetica;fontSize=11;gradientColor=#E6E6E6;fontColor=default;" parent="1" vertex="1">
          <mxGeometry x="165" y="80" width="155" height="20" as="geometry">
            <mxRectangle x="-98" y="-1230" width="99" height="26" as="alternateBounds" />
          </mxGeometry>
        </mxCell>
        <mxCell id="qU8S8xUgcWMb9iLiis11-19" value="⍺" style="rounded=1;whiteSpace=wrap;html=1;sketch=0;points=[[0,0.5,0,0,0],[1,0.5,0,0,0]];arcSize=50;fontFamily=Helvetica;fontSize=11;fontColor=default;" parent="qU8S8xUgcWMb9iLiis11-18" vertex="1">
          <mxGeometry x="145" y="3.75" width="20" height="12.5" as="geometry" />
        </mxCell>
        <mxCell id="qU8S8xUgcWMb9iLiis11-20" value="⍺" style="rounded=1;whiteSpace=wrap;html=1;sketch=0;points=[[0,0.5,0,0,0],[1,0.5,0,0,0]];arcSize=50;fontFamily=Helvetica;fontSize=11;fontColor=default;" parent="qU8S8xUgcWMb9iLiis11-18" vertex="1">
          <mxGeometry x="-10" y="3.75" width="20" height="12.5" as="geometry" />
        </mxCell>
        <mxCell id="qU8S8xUgcWMb9iLiis11-21" value="&#39;decode&#39;" style="rounded=1;whiteSpace=wrap;html=1;sketch=0;container=1;recursiveResize=0;verticalAlign=middle;arcSize=6;fontStyle=0;autosize=0;points=[];absoluteArcSize=1;shadow=0;strokeColor=#6c8ebf;fillColor=#dae8fc;fontFamily=Helvetica;fontSize=11;gradientColor=#E6E6E6;fontColor=default;" parent="1" vertex="1">
          <mxGeometry x="165" y="40" width="155" height="20" as="geometry">
            <mxRectangle x="-98" y="-1230" width="99" height="26" as="alternateBounds" />
          </mxGeometry>
        </mxCell>
        <mxCell id="qU8S8xUgcWMb9iLiis11-22" value="⍺" style="rounded=1;whiteSpace=wrap;html=1;sketch=0;points=[[0,0.5,0,0,0],[1,0.5,0,0,0]];arcSize=50;fontFamily=Helvetica;fontSize=11;fontColor=default;" parent="qU8S8xUgcWMb9iLiis11-21" vertex="1">
          <mxGeometry x="145" y="3.75" width="20" height="12.5" as="geometry" />
        </mxCell>
        <mxCell id="qU8S8xUgcWMb9iLiis11-23" value="⍺" style="rounded=1;whiteSpace=wrap;html=1;sketch=0;points=[[0,0.5,0,0,0],[1,0.5,0,0,0]];arcSize=50;fontFamily=Helvetica;fontSize=11;fontColor=default;" parent="qU8S8xUgcWMb9iLiis11-21" vertex="1">
          <mxGeometry x="-10" y="3.75" width="20" height="12.5" as="geometry" />
        </mxCell>
        <mxCell id="qU8S8xUgcWMb9iLiis11-25" style="edgeStyle=orthogonalEdgeStyle;rounded=1;orthogonalLoop=1;jettySize=auto;html=1;exitX=1;exitY=0.5;exitDx=0;exitDy=0;exitPerimeter=0;entryX=0;entryY=0.5;entryDx=0;entryDy=0;entryPerimeter=0;strokeWidth=2;curved=0;" parent="1" source="qU8S8xUgcWMb9iLiis11-16" target="qU8S8xUgcWMb9iLiis11-7" edge="1">
          <mxGeometry relative="1" as="geometry" />
        </mxCell>
        <mxCell id="qU8S8xUgcWMb9iLiis11-26" style="edgeStyle=orthogonalEdgeStyle;rounded=1;orthogonalLoop=1;jettySize=auto;html=1;exitX=1;exitY=0.5;exitDx=0;exitDy=0;exitPerimeter=0;entryX=0;entryY=0.5;entryDx=0;entryDy=0;entryPerimeter=0;strokeWidth=2;curved=0;" parent="1" source="qU8S8xUgcWMb9iLiis11-19" target="qU8S8xUgcWMb9iLiis11-4" edge="1">
          <mxGeometry relative="1" as="geometry" />
        </mxCell>
        <mxCell id="qU8S8xUgcWMb9iLiis11-27" style="edgeStyle=orthogonalEdgeStyle;rounded=1;orthogonalLoop=1;jettySize=auto;html=1;exitX=1;exitY=0.5;exitDx=0;exitDy=0;exitPerimeter=0;entryX=0;entryY=0.5;entryDx=0;entryDy=0;entryPerimeter=0;strokeWidth=2;curved=0;" parent="1" source="qU8S8xUgcWMb9iLiis11-22" target="qU8S8xUgcWMb9iLiis11-9" edge="1">
          <mxGeometry relative="1" as="geometry" />
        </mxCell>
        <mxCell id="qU8S8xUgcWMb9iLiis11-28" style="edgeStyle=orthogonalEdgeStyle;rounded=1;orthogonalLoop=1;jettySize=auto;html=1;exitX=1;exitY=0.5;exitDx=0;exitDy=0;exitPerimeter=0;entryX=0;entryY=0.5;entryDx=0;entryDy=0;entryPerimeter=0;curved=0;opacity=30;" parent="1" source="qU8S8xUgcWMb9iLiis11-2" target="jHVcmEdPX91lC3BsUti0-3" edge="1">
          <mxGeometry relative="1" as="geometry">
            <Array as="points">
              <mxPoint x="130" y="220" />
              <mxPoint x="130" y="170" />
            </Array>
            <mxPoint x="170" y="170" as="targetPoint" />
          </mxGeometry>
        </mxCell>
        <mxCell id="qU8S8xUgcWMb9iLiis11-29" style="edgeStyle=orthogonalEdgeStyle;rounded=1;orthogonalLoop=1;jettySize=auto;html=1;entryX=0;entryY=0.5;entryDx=0;entryDy=0;entryPerimeter=0;curved=0;opacity=30;" parent="1" source="qU8S8xUgcWMb9iLiis11-2" target="qU8S8xUgcWMb9iLiis11-17" edge="1">
          <mxGeometry relative="1" as="geometry">
            <Array as="points">
              <mxPoint x="130" y="220" />
              <mxPoint x="130" y="130" />
            </Array>
          </mxGeometry>
        </mxCell>
        <mxCell id="qU8S8xUgcWMb9iLiis11-30" style="edgeStyle=orthogonalEdgeStyle;rounded=1;orthogonalLoop=1;jettySize=auto;html=1;exitX=1;exitY=0.5;exitDx=0;exitDy=0;exitPerimeter=0;entryX=0;entryY=0.5;entryDx=0;entryDy=0;entryPerimeter=0;curved=0;opacity=30;" parent="1" source="qU8S8xUgcWMb9iLiis11-2" target="qU8S8xUgcWMb9iLiis11-20" edge="1">
          <mxGeometry relative="1" as="geometry" />
        </mxCell>
        <mxCell id="qU8S8xUgcWMb9iLiis11-31" style="edgeStyle=orthogonalEdgeStyle;rounded=1;orthogonalLoop=1;jettySize=auto;html=1;entryX=0;entryY=0.5;entryDx=0;entryDy=0;entryPerimeter=0;curved=0;opacity=30;" parent="1" source="qU8S8xUgcWMb9iLiis11-2" target="qU8S8xUgcWMb9iLiis11-23" edge="1">
          <mxGeometry relative="1" as="geometry" />
        </mxCell>
        <mxCell id="qU8S8xUgcWMb9iLiis11-32" style="edgeStyle=orthogonalEdgeStyle;rounded=1;orthogonalLoop=1;jettySize=auto;html=1;entryX=0;entryY=0.5;entryDx=0;entryDy=0;entryPerimeter=0;strokeWidth=2;curved=0;" parent="1" source="qU8S8xUgcWMb9iLiis11-5" target="qU8S8xUgcWMb9iLiis11-33" edge="1">
          <mxGeometry relative="1" as="geometry">
            <mxPoint x="633.25" y="2.5" as="targetPoint" />
          </mxGeometry>
        </mxCell>
        <mxCell id="qU8S8xUgcWMb9iLiis11-33" value="" style="rhombus;whiteSpace=wrap;html=1;rounded=1;fontStyle=1;glass=0;sketch=0;fontSize=12;points=[[0,0.5,0,0,0],[0.5,0,0,0,0],[0.5,1,0,0,0],[1,0.5,0,0,0]];shadow=1;fillColor=#0050ef;fontColor=#ffffff;strokeColor=#001DBC;fontFamily=Helvetica;" parent="1" vertex="1">
          <mxGeometry x="620" y="60" width="40" height="40" as="geometry" />
        </mxCell>
        <mxCell id="qU8S8xUgcWMb9iLiis11-34" style="edgeStyle=orthogonalEdgeStyle;shape=connector;curved=0;rounded=1;orthogonalLoop=1;jettySize=auto;html=1;exitX=1;exitY=0.5;exitDx=0;exitDy=0;exitPerimeter=0;entryX=0;entryY=0.5;entryDx=0;entryDy=0;entryPerimeter=0;labelBackgroundColor=default;strokeColor=default;align=center;verticalAlign=middle;fontFamily=Helvetica;fontSize=11;fontColor=default;endArrow=classic;" parent="1" source="qU8S8xUgcWMb9iLiis11-6" target="qU8S8xUgcWMb9iLiis11-11" edge="1">
          <mxGeometry relative="1" as="geometry" />
        </mxCell>
        <mxCell id="jHVcmEdPX91lC3BsUti0-1" value="&#39;encodesupport.js&#39;" style="rounded=1;whiteSpace=wrap;html=1;sketch=0;container=1;recursiveResize=0;verticalAlign=middle;arcSize=6;fontStyle=0;autosize=0;points=[];absoluteArcSize=1;shadow=0;strokeColor=#6c8ebf;fillColor=#dae8fc;fontFamily=Helvetica;fontSize=11;gradientColor=#E6E6E6;fontColor=default;" parent="1" vertex="1">
          <mxGeometry x="165" y="160" width="155" height="20" as="geometry">
            <mxRectangle x="-98" y="-1230" width="99" height="26" as="alternateBounds" />
          </mxGeometry>
        </mxCell>
        <mxCell id="jHVcmEdPX91lC3BsUti0-2" value="⍺" style="rounded=1;whiteSpace=wrap;html=1;sketch=0;points=[[0,0.5,0,0,0],[1,0.5,0,0,0]];arcSize=50;fontFamily=Helvetica;fontSize=11;fontColor=default;" parent="jHVcmEdPX91lC3BsUti0-1" vertex="1">
          <mxGeometry x="145" y="3.75" width="20" height="12.5" as="geometry" />
        </mxCell>
        <mxCell id="jHVcmEdPX91lC3BsUti0-3" value="⍺" style="rounded=1;whiteSpace=wrap;html=1;sketch=0;points=[[0,0.5,0,0,0],[1,0.5,0,0,0]];arcSize=50;fontFamily=Helvetica;fontSize=11;fontColor=default;" parent="jHVcmEdPX91lC3BsUti0-1" vertex="1">
          <mxGeometry x="-10" y="3.75" width="20" height="12.5" as="geometry" />
        </mxCell>
        <mxCell id="jHVcmEdPX91lC3BsUti0-4" style="edgeStyle=orthogonalEdgeStyle;rounded=1;orthogonalLoop=1;jettySize=auto;html=1;exitX=1;exitY=0.5;exitDx=0;exitDy=0;exitPerimeter=0;entryX=0;entryY=0.5;entryDx=0;entryDy=0;entryPerimeter=0;strokeWidth=2;curved=0;" parent="1" source="jHVcmEdPX91lC3BsUti0-2" target="qU8S8xUgcWMb9iLiis11-10" edge="1">
          <mxGeometry relative="1" as="geometry" />
        </mxCell>
      </root>
    </mxGraphModel>
  </diagram>
  <diagram id="AHkhDcTSBxRMIB2C6aui" name="Finalize">
    <mxGraphModel dx="1147" dy="578" grid="1" gridSize="10" guides="1" tooltips="1" connect="1" arrows="1" fold="1" page="1" pageScale="1" pageWidth="850" pageHeight="1100" math="0" shadow="0">
      <root>
        <mxCell id="0" />
        <mxCell id="1" parent="0" />
        <mxCell id="EEoqWw8_Zko9RS8nzWnT-1" value="Decode" style="rounded=1;whiteSpace=wrap;html=1;sketch=0;container=1;recursiveResize=0;verticalAlign=top;arcSize=6;fontStyle=1;autosize=0;points=[];absoluteArcSize=1;shadow=1;strokeColor=#001DBC;fillColor=#0050ef;fontColor=#ffffff;fontFamily=Helvetica;fontSize=11;" parent="1" vertex="1">
          <mxGeometry x="160" y="80" width="130" height="110" as="geometry">
            <mxRectangle x="-98" y="-1230" width="99" height="26" as="alternateBounds" />
          </mxGeometry>
        </mxCell>
        <mxCell id="EEoqWw8_Zko9RS8nzWnT-2" value="" style="rounded=1;whiteSpace=wrap;html=1;sketch=0;points=[[0,0.5,0,0,0],[1,0.5,0,0,0]];arcSize=50;fontFamily=Helvetica;fontSize=11;fontColor=default;" parent="EEoqWw8_Zko9RS8nzWnT-1" vertex="1">
          <mxGeometry x="-10" y="27.5" width="39.25" height="25" as="geometry" />
        </mxCell>
        <mxCell id="EEoqWw8_Zko9RS8nzWnT-3" value="" style="rounded=1;whiteSpace=wrap;html=1;sketch=0;points=[[0,0.5,0,0,0],[1,0.5,0,0,0]];fillColor=#1ba1e2;fontColor=#ffffff;strokeColor=#006EAF;arcSize=50;fontFamily=Helvetica;fontSize=11;" parent="EEoqWw8_Zko9RS8nzWnT-1" vertex="1">
          <mxGeometry x="110" y="27.5" width="35.25" height="25" as="geometry" />
        </mxCell>
        <mxCell id="EEoqWw8_Zko9RS8nzWnT-4" value="✗" style="rounded=1;whiteSpace=wrap;html=1;sketch=0;points=[[0,0.5,0,0,0],[1,0.5,0,0,0]];fillColor=#1ba1e2;fontColor=#ffffff;strokeColor=#006EAF;arcSize=50;fontFamily=Helvetica;fontSize=11;textOpacity=30;opacity=30;" parent="EEoqWw8_Zko9RS8nzWnT-1" vertex="1">
          <mxGeometry x="110" y="67.5" width="35.25" height="25" as="geometry" />
        </mxCell>
        <mxCell id="EEoqWw8_Zko9RS8nzWnT-5" value="" style="rhombus;whiteSpace=wrap;html=1;rounded=1;fontStyle=1;glass=0;sketch=0;fontSize=12;points=[[0,0.5,0,0,0],[0.5,0,0,0,0],[0.5,1,0,0,0],[1,0.5,0,0,0]];shadow=1;fontFamily=Helvetica;fontColor=default;" parent="1" vertex="1">
          <mxGeometry x="40" y="100" width="40" height="40" as="geometry" />
        </mxCell>
        <mxCell id="EEoqWw8_Zko9RS8nzWnT-10" style="edgeStyle=orthogonalEdgeStyle;rounded=1;orthogonalLoop=1;jettySize=auto;html=1;exitX=1;exitY=0.5;exitDx=0;exitDy=0;exitPerimeter=0;entryX=0;entryY=0.5;entryDx=0;entryDy=0;entryPerimeter=0;strokeColor=default;strokeWidth=2;align=center;verticalAlign=middle;fontFamily=Helvetica;fontSize=11;fontColor=default;labelBackgroundColor=default;endArrow=classic;" parent="1" source="EEoqWw8_Zko9RS8nzWnT-5" target="EEoqWw8_Zko9RS8nzWnT-2" edge="1">
          <mxGeometry relative="1" as="geometry" />
        </mxCell>
        <mxCell id="EEoqWw8_Zko9RS8nzWnT-11" value="br2nl" style="rounded=1;whiteSpace=wrap;html=1;sketch=0;container=1;recursiveResize=0;verticalAlign=top;arcSize=6;fontStyle=1;autosize=0;points=[];absoluteArcSize=1;shadow=1;strokeColor=#6c8ebf;fillColor=#dae8fc;fontFamily=Helvetica;fontSize=11;gradientColor=#0050EF;fontColor=default;" parent="1" vertex="1">
          <mxGeometry x="600" y="80" width="140" height="100" as="geometry">
            <mxRectangle x="-98" y="-1230" width="99" height="26" as="alternateBounds" />
          </mxGeometry>
        </mxCell>
        <mxCell id="EEoqWw8_Zko9RS8nzWnT-12" value="" style="rounded=1;whiteSpace=wrap;html=1;sketch=0;points=[[0,0.5,0,0,0],[1,0.5,0,0,0]];arcSize=50;fontFamily=Helvetica;fontSize=11;fontColor=default;" parent="EEoqWw8_Zko9RS8nzWnT-11" vertex="1">
          <mxGeometry x="-10" y="27.5" width="39.25" height="25" as="geometry" />
        </mxCell>
        <mxCell id="EEoqWw8_Zko9RS8nzWnT-13" value="" style="rounded=1;whiteSpace=wrap;html=1;sketch=0;points=[[0,0.5,0,0,0],[1,0.5,0,0,0]];fillColor=#1ba1e2;fontColor=#ffffff;strokeColor=#006EAF;arcSize=50;fontFamily=Helvetica;fontSize=11;" parent="EEoqWw8_Zko9RS8nzWnT-11" vertex="1">
          <mxGeometry x="110" y="27.5" width="40" height="25" as="geometry" />
        </mxCell>
        <mxCell id="EEoqWw8_Zko9RS8nzWnT-14" value="✗" style="rounded=1;whiteSpace=wrap;html=1;sketch=0;points=[[0,0.5,0,0,0],[1,0.5,0,0,0]];fillColor=#1ba1e2;fontColor=#ffffff;strokeColor=#006EAF;arcSize=50;opacity=30;textOpacity=30;fontFamily=Helvetica;fontSize=11;" parent="EEoqWw8_Zko9RS8nzWnT-11" vertex="1">
          <mxGeometry x="110" y="60" width="40" height="25" as="geometry" />
        </mxCell>
        <mxCell id="EEoqWw8_Zko9RS8nzWnT-16" style="edgeStyle=orthogonalEdgeStyle;rounded=1;orthogonalLoop=1;jettySize=auto;html=1;exitX=1;exitY=0.5;exitDx=0;exitDy=0;exitPerimeter=0;entryX=0;entryY=0.5;entryDx=0;entryDy=0;entryPerimeter=0;curved=0;opacity=30;" parent="1" source="EEoqWw8_Zko9RS8nzWnT-14" target="EEoqWw8_Zko9RS8nzWnT-17" edge="1">
          <mxGeometry relative="1" as="geometry">
            <Array as="points">
              <mxPoint x="780" y="153" />
              <mxPoint x="780" y="220" />
            </Array>
          </mxGeometry>
        </mxCell>
        <mxCell id="EEoqWw8_Zko9RS8nzWnT-17" value="✗" style="rhombus;whiteSpace=wrap;html=1;rounded=1;fillColor=#0050ef;fontColor=#ffffff;strokeColor=#001DBC;fontStyle=1;glass=0;sketch=0;fontSize=12;points=[[0,0.5,0,0,0],[0.5,0,0,0,0],[0.5,1,0,0,0],[1,0.5,0,0,0]];shadow=1;opacity=30;textOpacity=30;fontFamily=Helvetica;" parent="1" vertex="1">
          <mxGeometry x="1070" y="200" width="40" height="40" as="geometry" />
        </mxCell>
        <mxCell id="EEoqWw8_Zko9RS8nzWnT-18" value="" style="rhombus;whiteSpace=wrap;html=1;rounded=1;fontStyle=1;glass=0;sketch=0;fontSize=12;points=[[0,0.5,0,0,0],[0.5,0,0,0,0],[0.5,1,0,0,0],[1,0.5,0,0,0]];shadow=1;fillColor=#0050ef;fontColor=#ffffff;strokeColor=#001DBC;fontFamily=Helvetica;" parent="1" vertex="1">
          <mxGeometry x="1070" y="100" width="40" height="40" as="geometry" />
        </mxCell>
        <mxCell id="EEoqWw8_Zko9RS8nzWnT-20" value="Cleanout HTML" style="rounded=1;whiteSpace=wrap;html=1;sketch=0;container=1;recursiveResize=0;verticalAlign=top;arcSize=6;fontStyle=1;autosize=0;points=[];absoluteArcSize=1;shadow=1;strokeColor=#001DBC;fillColor=#0050ef;fontColor=#ffffff;fontFamily=Helvetica;fontSize=11;" parent="1" vertex="1">
          <mxGeometry x="380" y="80" width="130" height="110" as="geometry">
            <mxRectangle x="-98" y="-1230" width="99" height="26" as="alternateBounds" />
          </mxGeometry>
        </mxCell>
        <mxCell id="EEoqWw8_Zko9RS8nzWnT-21" value="" style="rounded=1;whiteSpace=wrap;html=1;sketch=0;points=[[0,0.5,0,0,0],[1,0.5,0,0,0]];arcSize=50;fontFamily=Helvetica;fontSize=11;fontColor=default;" parent="EEoqWw8_Zko9RS8nzWnT-20" vertex="1">
          <mxGeometry x="-10" y="27.5" width="39.25" height="25" as="geometry" />
        </mxCell>
        <mxCell id="EEoqWw8_Zko9RS8nzWnT-22" value="" style="rounded=1;whiteSpace=wrap;html=1;sketch=0;points=[[0,0.5,0,0,0],[1,0.5,0,0,0]];fillColor=#1ba1e2;fontColor=#ffffff;strokeColor=#006EAF;arcSize=50;fontFamily=Helvetica;fontSize=11;" parent="EEoqWw8_Zko9RS8nzWnT-20" vertex="1">
          <mxGeometry x="110" y="27.5" width="35.25" height="25" as="geometry" />
        </mxCell>
        <mxCell id="EEoqWw8_Zko9RS8nzWnT-23" value="✗" style="rounded=1;whiteSpace=wrap;html=1;sketch=0;points=[[0,0.5,0,0,0],[1,0.5,0,0,0]];fillColor=#1ba1e2;fontColor=#ffffff;strokeColor=#006EAF;arcSize=50;fontFamily=Helvetica;fontSize=11;textOpacity=30;opacity=30;" parent="EEoqWw8_Zko9RS8nzWnT-20" vertex="1">
          <mxGeometry x="110" y="67.5" width="35.25" height="25" as="geometry" />
        </mxCell>
        <mxCell id="EEoqWw8_Zko9RS8nzWnT-24" style="edgeStyle=orthogonalEdgeStyle;shape=connector;curved=0;rounded=1;orthogonalLoop=1;jettySize=auto;html=1;exitX=1;exitY=0.5;exitDx=0;exitDy=0;exitPerimeter=0;entryX=0;entryY=0.5;entryDx=0;entryDy=0;entryPerimeter=0;labelBackgroundColor=default;strokeColor=default;align=center;verticalAlign=middle;fontFamily=Helvetica;fontSize=11;fontColor=default;endArrow=classic;strokeWidth=2;" parent="1" source="EEoqWw8_Zko9RS8nzWnT-22" target="EEoqWw8_Zko9RS8nzWnT-12" edge="1">
          <mxGeometry relative="1" as="geometry" />
        </mxCell>
        <mxCell id="EEoqWw8_Zko9RS8nzWnT-26" style="edgeStyle=orthogonalEdgeStyle;shape=connector;curved=0;rounded=1;orthogonalLoop=1;jettySize=auto;html=1;exitX=1;exitY=0.5;exitDx=0;exitDy=0;exitPerimeter=0;entryX=0;entryY=0.5;entryDx=0;entryDy=0;entryPerimeter=0;labelBackgroundColor=default;strokeColor=default;align=center;verticalAlign=middle;fontFamily=Helvetica;fontSize=11;fontColor=default;endArrow=classic;opacity=30;" parent="1" source="EEoqWw8_Zko9RS8nzWnT-23" target="EEoqWw8_Zko9RS8nzWnT-17" edge="1">
          <mxGeometry relative="1" as="geometry">
            <Array as="points">
              <mxPoint x="560" y="160" />
              <mxPoint x="560" y="220" />
            </Array>
          </mxGeometry>
        </mxCell>
        <mxCell id="us76kXIAL3PQ5FjsLoYt-1" style="edgeStyle=orthogonalEdgeStyle;rounded=1;orthogonalLoop=1;jettySize=auto;html=1;exitX=1;exitY=0.5;exitDx=0;exitDy=0;exitPerimeter=0;entryX=0;entryY=0.5;entryDx=0;entryDy=0;entryPerimeter=0;strokeColor=default;strokeWidth=2;align=center;verticalAlign=middle;fontFamily=Helvetica;fontSize=11;fontColor=default;labelBackgroundColor=default;endArrow=classic;" parent="1" source="EEoqWw8_Zko9RS8nzWnT-3" target="EEoqWw8_Zko9RS8nzWnT-21" edge="1">
          <mxGeometry relative="1" as="geometry" />
        </mxCell>
        <mxCell id="us76kXIAL3PQ5FjsLoYt-2" style="edgeStyle=orthogonalEdgeStyle;rounded=1;orthogonalLoop=1;jettySize=auto;html=1;exitX=1;exitY=0.5;exitDx=0;exitDy=0;exitPerimeter=0;entryX=0;entryY=0.5;entryDx=0;entryDy=0;entryPerimeter=0;strokeColor=default;strokeWidth=1;align=center;verticalAlign=middle;fontFamily=Helvetica;fontSize=11;fontColor=default;labelBackgroundColor=default;endArrow=classic;opacity=30;" parent="1" source="EEoqWw8_Zko9RS8nzWnT-4" target="EEoqWw8_Zko9RS8nzWnT-17" edge="1">
          <mxGeometry relative="1" as="geometry">
            <Array as="points">
              <mxPoint x="340" y="160" />
              <mxPoint x="340" y="220" />
            </Array>
          </mxGeometry>
        </mxCell>
        <mxCell id="us76kXIAL3PQ5FjsLoYt-3" value="rmBrackets" style="rounded=1;whiteSpace=wrap;html=1;sketch=0;container=1;recursiveResize=0;verticalAlign=top;arcSize=6;fontStyle=1;autosize=0;points=[];absoluteArcSize=1;shadow=1;strokeColor=#6c8ebf;fillColor=#dae8fc;fontFamily=Helvetica;fontSize=11;gradientColor=#0050EF;fontColor=default;" parent="1" vertex="1">
          <mxGeometry x="830" y="80" width="140" height="100" as="geometry">
            <mxRectangle x="-98" y="-1230" width="99" height="26" as="alternateBounds" />
          </mxGeometry>
        </mxCell>
        <mxCell id="us76kXIAL3PQ5FjsLoYt-4" value="" style="rounded=1;whiteSpace=wrap;html=1;sketch=0;points=[[0,0.5,0,0,0],[1,0.5,0,0,0]];arcSize=50;fontFamily=Helvetica;fontSize=11;fontColor=default;" parent="us76kXIAL3PQ5FjsLoYt-3" vertex="1">
          <mxGeometry x="-10" y="27.5" width="39.25" height="25" as="geometry" />
        </mxCell>
        <mxCell id="us76kXIAL3PQ5FjsLoYt-5" value="" style="rounded=1;whiteSpace=wrap;html=1;sketch=0;points=[[0,0.5,0,0,0],[1,0.5,0,0,0]];fillColor=#1ba1e2;fontColor=#ffffff;strokeColor=#006EAF;arcSize=50;fontFamily=Helvetica;fontSize=11;" parent="us76kXIAL3PQ5FjsLoYt-3" vertex="1">
          <mxGeometry x="110" y="27.5" width="40" height="25" as="geometry" />
        </mxCell>
        <mxCell id="us76kXIAL3PQ5FjsLoYt-6" value="✗" style="rounded=1;whiteSpace=wrap;html=1;sketch=0;points=[[0,0.5,0,0,0],[1,0.5,0,0,0]];fillColor=#1ba1e2;fontColor=#ffffff;strokeColor=#006EAF;arcSize=50;opacity=30;textOpacity=30;fontFamily=Helvetica;fontSize=11;" parent="us76kXIAL3PQ5FjsLoYt-3" vertex="1">
          <mxGeometry x="110" y="60" width="40" height="25" as="geometry" />
        </mxCell>
        <mxCell id="us76kXIAL3PQ5FjsLoYt-7" style="edgeStyle=orthogonalEdgeStyle;rounded=1;orthogonalLoop=1;jettySize=auto;html=1;exitX=1;exitY=0.5;exitDx=0;exitDy=0;exitPerimeter=0;entryX=0;entryY=0.5;entryDx=0;entryDy=0;entryPerimeter=0;strokeColor=default;strokeWidth=2;align=center;verticalAlign=middle;fontFamily=Helvetica;fontSize=11;fontColor=default;labelBackgroundColor=default;endArrow=classic;" parent="1" source="EEoqWw8_Zko9RS8nzWnT-13" target="us76kXIAL3PQ5FjsLoYt-4" edge="1">
          <mxGeometry relative="1" as="geometry" />
        </mxCell>
        <mxCell id="us76kXIAL3PQ5FjsLoYt-8" style="edgeStyle=orthogonalEdgeStyle;rounded=1;orthogonalLoop=1;jettySize=auto;html=1;exitX=1;exitY=0.5;exitDx=0;exitDy=0;exitPerimeter=0;entryX=0;entryY=0.5;entryDx=0;entryDy=0;entryPerimeter=0;strokeColor=default;strokeWidth=2;align=center;verticalAlign=middle;fontFamily=Helvetica;fontSize=11;fontColor=default;labelBackgroundColor=default;endArrow=classic;" parent="1" source="us76kXIAL3PQ5FjsLoYt-5" target="EEoqWw8_Zko9RS8nzWnT-18" edge="1">
          <mxGeometry relative="1" as="geometry" />
        </mxCell>
        <mxCell id="us76kXIAL3PQ5FjsLoYt-9" style="edgeStyle=orthogonalEdgeStyle;rounded=1;orthogonalLoop=1;jettySize=auto;html=1;exitX=1;exitY=0.5;exitDx=0;exitDy=0;exitPerimeter=0;entryX=0;entryY=0.5;entryDx=0;entryDy=0;entryPerimeter=0;strokeColor=default;strokeWidth=1;align=center;verticalAlign=middle;fontFamily=Helvetica;fontSize=11;fontColor=default;labelBackgroundColor=default;endArrow=classic;opacity=30;" parent="1" source="us76kXIAL3PQ5FjsLoYt-6" target="EEoqWw8_Zko9RS8nzWnT-17" edge="1">
          <mxGeometry relative="1" as="geometry" />
        </mxCell>
      </root>
    </mxGraphModel>
  </diagram>
  <diagram id="8wFeH6wjlu91At4bUoCW" name="Generate Odin Code">
    <mxGraphModel dx="297" dy="578" grid="1" gridSize="10" guides="1" tooltips="1" connect="1" arrows="1" fold="1" page="1" pageScale="1" pageWidth="850" pageHeight="1100" math="0" shadow="0">
      <root>
        <mxCell id="0" />
        <mxCell id="1" parent="0" />
        <mxCell id="-YIZaMJZQRNa9tysarBp-1" value="Generate Procs" style="rounded=1;whiteSpace=wrap;html=1;sketch=0;container=1;recursiveResize=0;verticalAlign=top;arcSize=6;fontStyle=0;autosize=0;points=[];absoluteArcSize=1;shadow=1;strokeColor=#001DBC;fillColor=#0050ef;fontColor=#ffffff;fontFamily=Helvetica;fontSize=11;" parent="1" vertex="1">
          <mxGeometry x="1040" y="190" width="130" height="125" as="geometry">
            <mxRectangle x="-98" y="-1230" width="99" height="26" as="alternateBounds" />
          </mxGeometry>
        </mxCell>
        <mxCell id="-YIZaMJZQRNa9tysarBp-2" value="" style="rounded=1;whiteSpace=wrap;html=1;sketch=0;points=[[0,0.5,0,0,0],[1,0.5,0,0,0]];arcSize=50;fontFamily=Helvetica;fontSize=11;fontColor=default;" parent="-YIZaMJZQRNa9tysarBp-1" vertex="1">
          <mxGeometry x="-10" y="40" width="37.25" height="25" as="geometry" />
        </mxCell>
        <mxCell id="-YIZaMJZQRNa9tysarBp-3" value="" style="rounded=1;whiteSpace=wrap;html=1;sketch=0;points=[[0,0.5,0,0,0],[1,0.5,0,0,0]];fillColor=#1ba1e2;fontColor=#ffffff;strokeColor=#006EAF;arcSize=50;fontFamily=Helvetica;fontSize=11;" parent="-YIZaMJZQRNa9tysarBp-1" vertex="1">
          <mxGeometry x="100" y="40" width="37.25" height="25" as="geometry" />
        </mxCell>
        <mxCell id="-YIZaMJZQRNa9tysarBp-4" value="✗" style="rounded=1;whiteSpace=wrap;sketch=0;points=[[0,0.5,0,0,0],[1,0.5,0,0,0]];fillColor=#1ba1e2;fontColor=#ffffff;strokeColor=#006EAF;arcSize=50;fontFamily=Helvetica;fontSize=11;opacity=30;textOpacity=30;" parent="-YIZaMJZQRNa9tysarBp-1" vertex="1">
          <mxGeometry x="100" y="82.5" width="37.25" height="25" as="geometry" />
        </mxCell>
        <mxCell id="-YIZaMJZQRNa9tysarBp-7" value="" style="rhombus;whiteSpace=wrap;html=1;rounded=1;fontStyle=1;glass=0;sketch=0;fontSize=12;points=[[0,0.5,0,0,0],[0.5,0,0,0,0],[0.5,1,0,0,0],[1,0.5,0,0,0]];shadow=1;fillColor=#0050ef;fontColor=#ffffff;strokeColor=#001DBC;fontFamily=Helvetica;labelBackgroundColor=default;" parent="1" vertex="1">
          <mxGeometry x="1580" y="117.5" width="40" height="40" as="geometry" />
        </mxCell>
        <mxCell id="-YIZaMJZQRNa9tysarBp-8" value="✗" style="rhombus;whiteSpace=wrap;html=1;rounded=1;fillColor=#0050ef;fontColor=#ffffff;strokeColor=#001DBC;fontStyle=1;glass=0;sketch=0;fontSize=12;points=[[0,0.5,0,0,0],[0.5,0,0,0,0],[0.5,1,0,0,0],[1,0.5,0,0,0]];shadow=1;opacity=30;textOpacity=30;fontFamily=Helvetica;labelBackgroundColor=default;" parent="1" vertex="1">
          <mxGeometry x="1580" y="265" width="40" height="40" as="geometry" />
        </mxCell>
        <mxCell id="ckhOc568-lihYraGMLed-7" value="Generate Includes" style="rounded=1;whiteSpace=wrap;html=1;sketch=0;container=1;recursiveResize=0;verticalAlign=top;arcSize=6;fontStyle=0;autosize=0;points=[];absoluteArcSize=1;shadow=1;strokeColor=#001DBC;fillColor=#0050ef;fontColor=#ffffff;fontFamily=Helvetica;fontSize=11;" parent="1" vertex="1">
          <mxGeometry x="1040" y="20" width="130" height="125" as="geometry">
            <mxRectangle x="-98" y="-1230" width="99" height="26" as="alternateBounds" />
          </mxGeometry>
        </mxCell>
        <mxCell id="ckhOc568-lihYraGMLed-8" value="" style="rounded=1;whiteSpace=wrap;html=1;sketch=0;points=[[0,0.5,0,0,0],[1,0.5,0,0,0]];arcSize=50;fontFamily=Helvetica;fontSize=11;fontColor=default;" parent="ckhOc568-lihYraGMLed-7" vertex="1">
          <mxGeometry x="-10" y="40" width="37.25" height="25" as="geometry" />
        </mxCell>
        <mxCell id="ckhOc568-lihYraGMLed-9" value="" style="rounded=1;whiteSpace=wrap;html=1;sketch=0;points=[[0,0.5,0,0,0],[1,0.5,0,0,0]];fillColor=#1ba1e2;fontColor=#ffffff;strokeColor=#006EAF;arcSize=50;fontFamily=Helvetica;fontSize=11;" parent="ckhOc568-lihYraGMLed-7" vertex="1">
          <mxGeometry x="100" y="40" width="37.25" height="25" as="geometry" />
        </mxCell>
        <mxCell id="ckhOc568-lihYraGMLed-10" value="✗" style="rounded=1;whiteSpace=wrap;sketch=0;points=[[0,0.5,0,0,0],[1,0.5,0,0,0]];fillColor=#1ba1e2;fontColor=#ffffff;strokeColor=#006EAF;arcSize=50;fontFamily=Helvetica;fontSize=11;opacity=30;textOpacity=30;" parent="ckhOc568-lihYraGMLed-7" vertex="1">
          <mxGeometry x="100" y="82.5" width="37.25" height="25" as="geometry" />
        </mxCell>
        <mxCell id="ckhOc568-lihYraGMLed-13" style="edgeStyle=orthogonalEdgeStyle;rounded=1;orthogonalLoop=1;jettySize=auto;html=1;exitX=1;exitY=0.5;exitDx=0;exitDy=0;exitPerimeter=0;entryX=0;entryY=0.5;entryDx=0;entryDy=0;entryPerimeter=0;strokeColor=default;strokeWidth=1;align=center;verticalAlign=middle;fontFamily=Helvetica;fontSize=11;fontColor=default;labelBackgroundColor=default;endArrow=classic;opacity=30;" parent="1" source="-YIZaMJZQRNa9tysarBp-4" target="-YIZaMJZQRNa9tysarBp-8" edge="1">
          <mxGeometry relative="1" as="geometry" />
        </mxCell>
        <mxCell id="ckhOc568-lihYraGMLed-14" style="edgeStyle=orthogonalEdgeStyle;rounded=1;orthogonalLoop=1;jettySize=auto;html=1;exitX=1;exitY=0.5;exitDx=0;exitDy=0;exitPerimeter=0;strokeColor=default;strokeWidth=1;align=center;verticalAlign=middle;fontFamily=Helvetica;fontSize=11;fontColor=default;labelBackgroundColor=default;endArrow=classic;entryX=0;entryY=0.5;entryDx=0;entryDy=0;entryPerimeter=0;opacity=30;" parent="1" source="ckhOc568-lihYraGMLed-10" target="-YIZaMJZQRNa9tysarBp-8" edge="1">
          <mxGeometry relative="1" as="geometry">
            <Array as="points">
              <mxPoint x="1210" y="115" />
              <mxPoint x="1210" y="285" />
            </Array>
          </mxGeometry>
        </mxCell>
        <mxCell id="DXAHEPOHLkCq31BNTBks-1" value="Combine Generated Code" style="rounded=1;whiteSpace=wrap;html=1;sketch=0;container=1;recursiveResize=0;verticalAlign=top;arcSize=6;fontStyle=1;autosize=0;points=[];absoluteArcSize=1;shadow=1;strokeColor=#001DBC;fillColor=#0050ef;fontColor=#ffffff;fontFamily=Helvetica;fontSize=11;" parent="1" vertex="1">
          <mxGeometry x="1370" y="102.5" width="130" height="100" as="geometry">
            <mxRectangle x="-98" y="-1230" width="99" height="26" as="alternateBounds" />
          </mxGeometry>
        </mxCell>
        <mxCell id="DXAHEPOHLkCq31BNTBks-2" value="inc" style="rounded=1;whiteSpace=wrap;html=1;sketch=0;points=[[0,0.5,0,0,0],[1,0.5,0,0,0]];arcSize=50;fontFamily=Helvetica;fontSize=11;fontColor=default;" parent="DXAHEPOHLkCq31BNTBks-1" vertex="1">
          <mxGeometry x="-16.75" y="27.5" width="66" height="25" as="geometry" />
        </mxCell>
        <mxCell id="DXAHEPOHLkCq31BNTBks-3" value="" style="rounded=1;whiteSpace=wrap;html=1;sketch=0;points=[[0,0.5,0,0,0],[1,0.5,0,0,0]];fillColor=#1ba1e2;fontColor=#ffffff;strokeColor=#006EAF;arcSize=50;fontFamily=Helvetica;fontSize=11;" parent="DXAHEPOHLkCq31BNTBks-1" vertex="1">
          <mxGeometry x="110" y="27.5" width="35.25" height="22.5" as="geometry" />
        </mxCell>
        <mxCell id="DXAHEPOHLkCq31BNTBks-4" value="✗" style="rounded=1;whiteSpace=wrap;html=1;sketch=0;points=[[0,0.5,0,0,0],[1,0.5,0,0,0]];fillColor=#1ba1e2;fontColor=#ffffff;strokeColor=#006EAF;arcSize=50;fontFamily=Helvetica;fontSize=11;textOpacity=30;opacity=30;" parent="DXAHEPOHLkCq31BNTBks-1" vertex="1">
          <mxGeometry x="110" y="60" width="35.25" height="25" as="geometry" />
        </mxCell>
        <mxCell id="DXAHEPOHLkCq31BNTBks-5" value="proc" style="rounded=1;whiteSpace=wrap;html=1;sketch=0;points=[[0,0.5,0,0,0],[1,0.5,0,0,0]];arcSize=50;fontFamily=Helvetica;fontSize=11;fontColor=default;" parent="DXAHEPOHLkCq31BNTBks-1" vertex="1">
          <mxGeometry x="-16.75" y="60" width="66" height="25" as="geometry" />
        </mxCell>
        <mxCell id="DXAHEPOHLkCq31BNTBks-8" style="edgeStyle=orthogonalEdgeStyle;rounded=1;orthogonalLoop=1;jettySize=auto;html=1;exitX=1;exitY=0.5;exitDx=0;exitDy=0;exitPerimeter=0;entryX=0;entryY=0.5;entryDx=0;entryDy=0;entryPerimeter=0;strokeColor=default;strokeWidth=2;align=center;verticalAlign=middle;fontFamily=Helvetica;fontSize=11;fontColor=default;labelBackgroundColor=default;endArrow=classic;" parent="1" source="DXAHEPOHLkCq31BNTBks-3" target="-YIZaMJZQRNa9tysarBp-7" edge="1">
          <mxGeometry relative="1" as="geometry" />
        </mxCell>
        <mxCell id="DXAHEPOHLkCq31BNTBks-9" style="edgeStyle=orthogonalEdgeStyle;rounded=1;orthogonalLoop=1;jettySize=auto;html=1;entryX=0;entryY=0.5;entryDx=0;entryDy=0;entryPerimeter=0;strokeColor=default;strokeWidth=2;align=center;verticalAlign=middle;fontFamily=Helvetica;fontSize=11;fontColor=default;labelBackgroundColor=default;endArrow=classic;" parent="1" source="ckhOc568-lihYraGMLed-9" target="DXAHEPOHLkCq31BNTBks-2" edge="1">
          <mxGeometry relative="1" as="geometry" />
        </mxCell>
        <mxCell id="DXAHEPOHLkCq31BNTBks-10" style="edgeStyle=orthogonalEdgeStyle;rounded=1;orthogonalLoop=1;jettySize=auto;html=1;exitX=1;exitY=0.5;exitDx=0;exitDy=0;exitPerimeter=0;entryX=0;entryY=0.5;entryDx=0;entryDy=0;entryPerimeter=0;strokeColor=default;strokeWidth=2;align=center;verticalAlign=middle;fontFamily=Helvetica;fontSize=11;fontColor=default;labelBackgroundColor=default;endArrow=classic;" parent="1" source="-YIZaMJZQRNa9tysarBp-3" target="DXAHEPOHLkCq31BNTBks-5" edge="1">
          <mxGeometry relative="1" as="geometry" />
        </mxCell>
        <mxCell id="DXAHEPOHLkCq31BNTBks-11" style="edgeStyle=orthogonalEdgeStyle;rounded=1;orthogonalLoop=1;jettySize=auto;html=1;exitX=1;exitY=0.5;exitDx=0;exitDy=0;exitPerimeter=0;entryX=0;entryY=0.5;entryDx=0;entryDy=0;entryPerimeter=0;strokeColor=default;strokeWidth=1;align=center;verticalAlign=middle;fontFamily=Helvetica;fontSize=11;fontColor=default;labelBackgroundColor=default;endArrow=classic;opacity=30;" parent="1" source="DXAHEPOHLkCq31BNTBks-4" target="-YIZaMJZQRNa9tysarBp-8" edge="1">
          <mxGeometry relative="1" as="geometry" />
        </mxCell>
        <mxCell id="lKC8H4FUAapET19zw57E-5" value="" style="rhombus;whiteSpace=wrap;html=1;rounded=1;fontStyle=1;glass=0;sketch=0;fontSize=12;points=[[0,0.5,0,0,0],[0.5,0,0,0,0],[0.5,1,0,0,0],[1,0.5,0,0,0]];shadow=1;fontFamily=Helvetica;fontColor=default;labelBackgroundColor=default;" parent="1" vertex="1">
          <mxGeometry x="860" y="132.5" width="40" height="40" as="geometry" />
        </mxCell>
        <mxCell id="ENFSdFwVXE63K4DWsxQ2-2" style="edgeStyle=orthogonalEdgeStyle;rounded=1;orthogonalLoop=1;jettySize=auto;html=1;exitX=1;exitY=0.5;exitDx=0;exitDy=0;exitPerimeter=0;entryX=0;entryY=0.5;entryDx=0;entryDy=0;entryPerimeter=0;strokeColor=default;strokeWidth=2;align=center;verticalAlign=middle;fontFamily=Helvetica;fontSize=11;fontColor=default;labelBackgroundColor=default;endArrow=classic;" parent="1" source="lKC8H4FUAapET19zw57E-5" target="-YIZaMJZQRNa9tysarBp-2" edge="1">
          <mxGeometry relative="1" as="geometry">
            <Array as="points">
              <mxPoint x="960" y="153" />
              <mxPoint x="960" y="243" />
            </Array>
          </mxGeometry>
        </mxCell>
        <mxCell id="ENFSdFwVXE63K4DWsxQ2-5" style="edgeStyle=orthogonalEdgeStyle;rounded=1;orthogonalLoop=1;jettySize=auto;html=1;exitX=1;exitY=0.5;exitDx=0;exitDy=0;exitPerimeter=0;entryX=0;entryY=0.5;entryDx=0;entryDy=0;entryPerimeter=0;strokeColor=default;strokeWidth=2;align=center;verticalAlign=middle;fontFamily=Helvetica;fontSize=11;fontColor=default;labelBackgroundColor=default;endArrow=classic;" parent="1" source="lKC8H4FUAapET19zw57E-5" target="ckhOc568-lihYraGMLed-8" edge="1">
          <mxGeometry relative="1" as="geometry">
            <Array as="points">
              <mxPoint x="960" y="153" />
              <mxPoint x="960" y="73" />
            </Array>
          </mxGeometry>
        </mxCell>
      </root>
    </mxGraphModel>
  </diagram>
  <diagram id="rx2xlKO0iRY7c5KYQGPr" name="D">
    <mxGraphModel dx="297" dy="578" grid="1" gridSize="10" guides="1" tooltips="1" connect="1" arrows="1" fold="1" page="1" pageScale="1" pageWidth="850" pageHeight="1100" math="0" shadow="0">
      <root>
        <mxCell id="0" />
        <mxCell id="1" parent="0" />
        <mxCell id="KyHQaxOBEgJ24GF2Wb8x-1" value="&#39;* D *&#39;" style="rounded=1;whiteSpace=wrap;html=1;sketch=0;container=1;recursiveResize=0;verticalAlign=middle;arcSize=6;fontStyle=0;autosize=0;points=[];absoluteArcSize=1;shadow=0;strokeColor=#6c8ebf;fillColor=#dae8fc;fontFamily=Helvetica;fontSize=11;gradientColor=#E6E6E6;fontColor=default;" parent="1" vertex="1">
          <mxGeometry x="1090" y="125" width="155" height="20" as="geometry">
            <mxRectangle x="-98" y="-1230" width="99" height="26" as="alternateBounds" />
          </mxGeometry>
        </mxCell>
        <mxCell id="KyHQaxOBEgJ24GF2Wb8x-2" value="⍺" style="rounded=1;whiteSpace=wrap;html=1;sketch=0;points=[[0,0.5,0,0,0],[1,0.5,0,0,0]];arcSize=50;fontFamily=Helvetica;fontSize=11;fontColor=default;" parent="KyHQaxOBEgJ24GF2Wb8x-1" vertex="1">
          <mxGeometry x="145" y="3.75" width="20" height="12.5" as="geometry" />
        </mxCell>
        <mxCell id="KyHQaxOBEgJ24GF2Wb8x-3" value="⍺" style="rounded=1;whiteSpace=wrap;html=1;sketch=0;points=[[0,0.5,0,0,0],[1,0.5,0,0,0]];arcSize=50;fontFamily=Helvetica;fontSize=11;fontColor=default;" parent="KyHQaxOBEgJ24GF2Wb8x-1" vertex="1">
          <mxGeometry x="-10" y="3.75" width="20" height="12.5" as="geometry" />
        </mxCell>
        <mxCell id="KyHQaxOBEgJ24GF2Wb8x-4" value="?" style="rounded=1;whiteSpace=wrap;html=1;sketch=0;container=1;recursiveResize=0;verticalAlign=bottom;arcSize=6;fontStyle=0;autosize=0;points=[];absoluteArcSize=1;shadow=0;strokeColor=#d79b00;fillColor=#FFFFFF;fontFamily=Helvetica;fontSize=11;dashed=1;opacity=30;align=right;textOpacity=30;gradientColor=#EA6B66;fontColor=default;" parent="1" vertex="1">
          <mxGeometry x="1320" y="110" width="40" height="50" as="geometry">
            <mxRectangle x="-98" y="-1230" width="99" height="26" as="alternateBounds" />
          </mxGeometry>
        </mxCell>
        <mxCell id="KyHQaxOBEgJ24GF2Wb8x-5" value="" style="rounded=1;whiteSpace=wrap;html=1;sketch=0;points=[[0,0.5,0,0,0],[1,0.5,0,0,0]];arcSize=50;fontFamily=Helvetica;fontSize=11;fontColor=default;dashed=1;textOpacity=50;opacity=30;fontStyle=0" parent="KyHQaxOBEgJ24GF2Wb8x-4" vertex="1">
          <mxGeometry x="-12" y="12.5" width="39.25" height="25" as="geometry" />
        </mxCell>
        <mxCell id="KyHQaxOBEgJ24GF2Wb8x-6" style="edgeStyle=orthogonalEdgeStyle;rounded=0;orthogonalLoop=1;jettySize=auto;html=1;exitX=1;exitY=0.5;exitDx=0;exitDy=0;exitPerimeter=0;entryX=0;entryY=0.5;entryDx=0;entryDy=0;entryPerimeter=0;" parent="1" source="KyHQaxOBEgJ24GF2Wb8x-2" target="KyHQaxOBEgJ24GF2Wb8x-5" edge="1">
          <mxGeometry relative="1" as="geometry" />
        </mxCell>
        <mxCell id="KyHQaxOBEgJ24GF2Wb8x-7" value="" style="rhombus;whiteSpace=wrap;html=1;rounded=1;fontStyle=1;glass=0;sketch=0;fontSize=12;points=[[0,0.5,0,0,0],[0.5,0,0,0,0],[0.5,1,0,0,0],[1,0.5,0,0,0]];shadow=1;fontFamily=Helvetica;fontColor=default;" parent="1" vertex="1">
          <mxGeometry x="980" y="115" width="40" height="40" as="geometry" />
        </mxCell>
        <mxCell id="KyHQaxOBEgJ24GF2Wb8x-8" style="edgeStyle=orthogonalEdgeStyle;rounded=0;orthogonalLoop=1;jettySize=auto;html=1;exitX=1;exitY=0.5;exitDx=0;exitDy=0;exitPerimeter=0;entryX=0;entryY=0.5;entryDx=0;entryDy=0;entryPerimeter=0;" parent="1" source="KyHQaxOBEgJ24GF2Wb8x-7" target="KyHQaxOBEgJ24GF2Wb8x-3" edge="1">
          <mxGeometry relative="1" as="geometry" />
        </mxCell>
      </root>
    </mxGraphModel>
  </diagram>
  <diagram name="E" id="n3E1Hai61zh1oWS90ItV">
    <mxGraphModel dx="297" dy="578" grid="1" gridSize="10" guides="1" tooltips="1" connect="1" arrows="1" fold="1" page="1" pageScale="1" pageWidth="850" pageHeight="1100" math="0" shadow="0">
      <root>
        <mxCell id="Xt339WZZ_uQO2M1Tdb8o-0" />
        <mxCell id="Xt339WZZ_uQO2M1Tdb8o-1" parent="Xt339WZZ_uQO2M1Tdb8o-0" />
        <mxCell id="Xt339WZZ_uQO2M1Tdb8o-2" value="&#39;* E *&#39;" style="rounded=1;whiteSpace=wrap;html=1;sketch=0;container=1;recursiveResize=0;verticalAlign=middle;arcSize=6;fontStyle=0;autosize=0;points=[];absoluteArcSize=1;shadow=0;strokeColor=#6c8ebf;fillColor=#dae8fc;fontFamily=Helvetica;fontSize=11;gradientColor=#E6E6E6;fontColor=default;" vertex="1" parent="Xt339WZZ_uQO2M1Tdb8o-1">
          <mxGeometry x="1090" y="125" width="155" height="20" as="geometry">
            <mxRectangle x="-98" y="-1230" width="99" height="26" as="alternateBounds" />
          </mxGeometry>
        </mxCell>
        <mxCell id="Xt339WZZ_uQO2M1Tdb8o-3" value="⍺" style="rounded=1;whiteSpace=wrap;html=1;sketch=0;points=[[0,0.5,0,0,0],[1,0.5,0,0,0]];arcSize=50;fontFamily=Helvetica;fontSize=11;fontColor=default;" vertex="1" parent="Xt339WZZ_uQO2M1Tdb8o-2">
          <mxGeometry x="145" y="3.75" width="20" height="12.5" as="geometry" />
        </mxCell>
        <mxCell id="Xt339WZZ_uQO2M1Tdb8o-4" value="⍺" style="rounded=1;whiteSpace=wrap;html=1;sketch=0;points=[[0,0.5,0,0,0],[1,0.5,0,0,0]];arcSize=50;fontFamily=Helvetica;fontSize=11;fontColor=default;" vertex="1" parent="Xt339WZZ_uQO2M1Tdb8o-2">
          <mxGeometry x="-10" y="3.75" width="20" height="12.5" as="geometry" />
        </mxCell>
        <mxCell id="Xt339WZZ_uQO2M1Tdb8o-5" value="?" style="rounded=1;whiteSpace=wrap;html=1;sketch=0;container=1;recursiveResize=0;verticalAlign=bottom;arcSize=6;fontStyle=0;autosize=0;points=[];absoluteArcSize=1;shadow=0;strokeColor=#d79b00;fillColor=#FFFFFF;fontFamily=Helvetica;fontSize=11;dashed=1;opacity=30;align=right;textOpacity=30;gradientColor=#EA6B66;fontColor=default;" vertex="1" parent="Xt339WZZ_uQO2M1Tdb8o-1">
          <mxGeometry x="1320" y="110" width="40" height="50" as="geometry">
            <mxRectangle x="-98" y="-1230" width="99" height="26" as="alternateBounds" />
          </mxGeometry>
        </mxCell>
        <mxCell id="Xt339WZZ_uQO2M1Tdb8o-6" value="" style="rounded=1;whiteSpace=wrap;html=1;sketch=0;points=[[0,0.5,0,0,0],[1,0.5,0,0,0]];arcSize=50;fontFamily=Helvetica;fontSize=11;fontColor=default;dashed=1;textOpacity=50;opacity=30;fontStyle=0" vertex="1" parent="Xt339WZZ_uQO2M1Tdb8o-5">
          <mxGeometry x="-12" y="12.5" width="39.25" height="25" as="geometry" />
        </mxCell>
        <mxCell id="Xt339WZZ_uQO2M1Tdb8o-7" style="edgeStyle=orthogonalEdgeStyle;rounded=0;orthogonalLoop=1;jettySize=auto;html=1;exitX=1;exitY=0.5;exitDx=0;exitDy=0;exitPerimeter=0;entryX=0;entryY=0.5;entryDx=0;entryDy=0;entryPerimeter=0;" edge="1" parent="Xt339WZZ_uQO2M1Tdb8o-1" source="Xt339WZZ_uQO2M1Tdb8o-3" target="Xt339WZZ_uQO2M1Tdb8o-6">
          <mxGeometry relative="1" as="geometry" />
        </mxCell>
        <mxCell id="Xt339WZZ_uQO2M1Tdb8o-8" value="" style="rhombus;whiteSpace=wrap;html=1;rounded=1;fontStyle=1;glass=0;sketch=0;fontSize=12;points=[[0,0.5,0,0,0],[0.5,0,0,0,0],[0.5,1,0,0,0],[1,0.5,0,0,0]];shadow=1;fontFamily=Helvetica;fontColor=default;" vertex="1" parent="Xt339WZZ_uQO2M1Tdb8o-1">
          <mxGeometry x="980" y="115" width="40" height="40" as="geometry" />
        </mxCell>
        <mxCell id="Xt339WZZ_uQO2M1Tdb8o-9" style="edgeStyle=orthogonalEdgeStyle;rounded=0;orthogonalLoop=1;jettySize=auto;html=1;exitX=1;exitY=0.5;exitDx=0;exitDy=0;exitPerimeter=0;entryX=0;entryY=0.5;entryDx=0;entryDy=0;entryPerimeter=0;" edge="1" parent="Xt339WZZ_uQO2M1Tdb8o-1" source="Xt339WZZ_uQO2M1Tdb8o-8" target="Xt339WZZ_uQO2M1Tdb8o-4">
          <mxGeometry relative="1" as="geometry" />
        </mxCell>
      </root>
    </mxGraphModel>
  </diagram>
  <diagram name="F" id="4S50LoPbIDjjCO1bAmiK">
    <mxGraphModel dx="297" dy="578" grid="1" gridSize="10" guides="1" tooltips="1" connect="1" arrows="1" fold="1" page="1" pageScale="1" pageWidth="850" pageHeight="1100" math="0" shadow="0">
      <root>
        <mxCell id="O9NW7VXt2tXOZRc-93we-0" />
        <mxCell id="O9NW7VXt2tXOZRc-93we-1" parent="O9NW7VXt2tXOZRc-93we-0" />
        <mxCell id="O9NW7VXt2tXOZRc-93we-2" value="&#39;* F *&#39;" style="rounded=1;whiteSpace=wrap;html=1;sketch=0;container=1;recursiveResize=0;verticalAlign=middle;arcSize=6;fontStyle=0;autosize=0;points=[];absoluteArcSize=1;shadow=0;strokeColor=#6c8ebf;fillColor=#dae8fc;fontFamily=Helvetica;fontSize=11;gradientColor=#E6E6E6;fontColor=default;" vertex="1" parent="O9NW7VXt2tXOZRc-93we-1">
          <mxGeometry x="1090" y="125" width="155" height="20" as="geometry">
            <mxRectangle x="-98" y="-1230" width="99" height="26" as="alternateBounds" />
          </mxGeometry>
        </mxCell>
        <mxCell id="O9NW7VXt2tXOZRc-93we-3" value="⍺" style="rounded=1;whiteSpace=wrap;html=1;sketch=0;points=[[0,0.5,0,0,0],[1,0.5,0,0,0]];arcSize=50;fontFamily=Helvetica;fontSize=11;fontColor=default;" vertex="1" parent="O9NW7VXt2tXOZRc-93we-2">
          <mxGeometry x="145" y="3.75" width="20" height="12.5" as="geometry" />
        </mxCell>
        <mxCell id="O9NW7VXt2tXOZRc-93we-4" value="⍺" style="rounded=1;whiteSpace=wrap;html=1;sketch=0;points=[[0,0.5,0,0,0],[1,0.5,0,0,0]];arcSize=50;fontFamily=Helvetica;fontSize=11;fontColor=default;" vertex="1" parent="O9NW7VXt2tXOZRc-93we-2">
          <mxGeometry x="-10" y="3.75" width="20" height="12.5" as="geometry" />
        </mxCell>
        <mxCell id="O9NW7VXt2tXOZRc-93we-5" value="?" style="rounded=1;whiteSpace=wrap;html=1;sketch=0;container=1;recursiveResize=0;verticalAlign=bottom;arcSize=6;fontStyle=0;autosize=0;points=[];absoluteArcSize=1;shadow=0;strokeColor=#d79b00;fillColor=#FFFFFF;fontFamily=Helvetica;fontSize=11;dashed=1;opacity=30;align=right;textOpacity=30;gradientColor=#EA6B66;fontColor=default;" vertex="1" parent="O9NW7VXt2tXOZRc-93we-1">
          <mxGeometry x="1320" y="110" width="40" height="50" as="geometry">
            <mxRectangle x="-98" y="-1230" width="99" height="26" as="alternateBounds" />
          </mxGeometry>
        </mxCell>
        <mxCell id="O9NW7VXt2tXOZRc-93we-6" value="" style="rounded=1;whiteSpace=wrap;html=1;sketch=0;points=[[0,0.5,0,0,0],[1,0.5,0,0,0]];arcSize=50;fontFamily=Helvetica;fontSize=11;fontColor=default;dashed=1;textOpacity=50;opacity=30;fontStyle=0" vertex="1" parent="O9NW7VXt2tXOZRc-93we-5">
          <mxGeometry x="-12" y="12.5" width="39.25" height="25" as="geometry" />
        </mxCell>
        <mxCell id="O9NW7VXt2tXOZRc-93we-7" style="edgeStyle=orthogonalEdgeStyle;rounded=0;orthogonalLoop=1;jettySize=auto;html=1;exitX=1;exitY=0.5;exitDx=0;exitDy=0;exitPerimeter=0;entryX=0;entryY=0.5;entryDx=0;entryDy=0;entryPerimeter=0;" edge="1" parent="O9NW7VXt2tXOZRc-93we-1" source="O9NW7VXt2tXOZRc-93we-3" target="O9NW7VXt2tXOZRc-93we-6">
          <mxGeometry relative="1" as="geometry" />
        </mxCell>
        <mxCell id="O9NW7VXt2tXOZRc-93we-8" value="" style="rhombus;whiteSpace=wrap;html=1;rounded=1;fontStyle=1;glass=0;sketch=0;fontSize=12;points=[[0,0.5,0,0,0],[0.5,0,0,0,0],[0.5,1,0,0,0],[1,0.5,0,0,0]];shadow=1;fontFamily=Helvetica;fontColor=default;" vertex="1" parent="O9NW7VXt2tXOZRc-93we-1">
          <mxGeometry x="980" y="115" width="40" height="40" as="geometry" />
        </mxCell>
        <mxCell id="O9NW7VXt2tXOZRc-93we-9" style="edgeStyle=orthogonalEdgeStyle;rounded=0;orthogonalLoop=1;jettySize=auto;html=1;exitX=1;exitY=0.5;exitDx=0;exitDy=0;exitPerimeter=0;entryX=0;entryY=0.5;entryDx=0;entryDy=0;entryPerimeter=0;" edge="1" parent="O9NW7VXt2tXOZRc-93we-1" source="O9NW7VXt2tXOZRc-93we-8" target="O9NW7VXt2tXOZRc-93we-4">
          <mxGeometry relative="1" as="geometry" />
        </mxCell>
      </root>
    </mxGraphModel>
  </diagram>
</mxfile>
